<svg xmlns="http://www.w3.org/2000/svg" width="512" height="512" viewBox="0 0 512 512" version="1.1">
	<path d="M 367.470 118.725 C 366.614 120.774, 363.678 129.436, 360.946 137.975 C 358.213 146.514, 355.175 154.826, 354.194 156.446 L 352.411 159.393 323.955 159.144 C 281.167 158.770, 245.427 160.941, 217.500 165.612 C 191.165 170.016, 180.682 175.056, 153.500 196.383 C 144.742 203.255, 141.120 205.441, 135.730 207.110 C 128.319 209.405, 126.436 211.432, 127.372 216.109 C 128.062 219.558, 125.503 222.366, 120.087 224.103 C 118.114 224.735, 115.825 225.839, 115 226.555 C 114.175 227.271, 107.875 229.848, 101 232.280 C 76.888 240.812, 63.634 247.446, 52.460 256.574 C 47.512 260.617, 41.995 268.201, 42.006 270.946 C 42.010 271.801, 42.711 271.150, 43.565 269.500 C 45.267 266.213, 51.911 259, 53.238 259 C 53.696 259, 53.567 259.941, 52.951 261.091 C 52.336 262.241, 51.579 266.524, 51.270 270.609 C 50.766 277.274, 50.476 278.093, 48.433 278.606 C 44.495 279.595, 42.549 278.656, 41.965 275.488 L 41.415 272.500 40.717 275.831 C 40.332 277.663, 38.458 280.984, 36.551 283.211 C 31.331 289.310, 30.392 295.017, 31.933 311.261 C 32.624 318.542, 33.369 325.091, 33.588 325.813 C 33.807 326.536, 33.314 328.426, 32.493 330.014 C 31.672 331.602, 31 334.015, 31 335.378 C 31 340.436, 42.916 347, 52.101 347 C 55.564 347, 56.256 347.448, 58.675 351.250 C 60.162 353.588, 62.935 357.162, 64.837 359.194 L 68.296 362.888 65.898 363.383 C 64.579 363.656, 56.412 364.905, 47.750 366.160 C 39.087 367.415, 32 368.749, 32 369.123 C 32 370.933, 60.518 377.573, 113.500 388.101 C 177.155 400.749, 184.455 401.921, 193 400.860 C 220.107 397.494, 336.444 379.511, 422.500 365.385 C 485.567 355.032, 490 354.222, 490 353.046 C 490 352.299, 486.767 351.893, 468.750 350.376 L 461 349.724 465.089 345.288 C 469.806 340.171, 472.163 335.289, 474.583 325.627 C 475.654 321.354, 477.547 317.127, 479.587 314.454 C 483.996 308.678, 486 304.630, 486 301.500 C 486 298.445, 483.565 293.355, 481.827 292.776 C 480.957 292.486, 480.688 289.537, 480.880 282.405 C 481.147 272.449, 481.144 272.433, 477.608 267.293 C 474.838 263.267, 473.617 259.936, 471.998 251.989 C 468.207 233.388, 464.601 226.779, 454.055 219.109 C 449.058 215.475, 445.040 211.090, 437.676 201.235 C 426.672 186.510, 426.619 186.272, 432.633 178.394 C 434.485 175.968, 436 173.537, 436 172.991 C 436 172.382, 430.481 172, 421.691 172 C 408.280 172, 406.866 171.811, 399.147 168.994 C 390.006 165.658, 386.311 164.735, 371.011 161.965 C 364.519 160.789, 360.091 159.477, 359.392 158.521 C 357.810 156.357, 358.898 151.435, 365.311 131.750 C 368.313 122.537, 370.376 115, 369.897 115 C 369.419 115, 368.326 116.676, 367.470 118.725 M 333.510 169.175 C 321.108 171.540, 308.258 181.519, 299.838 195.324 C 298.002 198.334, 293.519 205.005, 289.876 210.148 C 282.443 220.643, 276.374 231, 277.657 231 C 278.124 231, 280.129 228.412, 282.112 225.250 C 286.809 217.761, 293.779 209, 295.039 209 C 295.586 209, 296.783 210.575, 297.701 212.500 C 299.253 215.754, 301.837 217.625, 300.705 214.674 C 300.425 213.945, 299.884 210.430, 299.502 206.864 L 298.808 200.379 304.810 192.439 C 316.148 177.443, 327.204 171.731, 347.500 170.381 C 360.449 169.519, 378.315 172.099, 393.405 177.008 C 400.091 179.183, 406.945 181.984, 408.637 183.232 C 410.328 184.480, 416.112 190.128, 421.490 195.784 C 426.867 201.439, 431.490 205.844, 431.762 205.571 C 432.708 204.625, 418.982 187.260, 415.251 184.682 C 406.374 178.547, 388.991 172.509, 371.619 169.525 C 361.861 167.849, 341.446 167.662, 333.510 169.175 M 261.500 169.680 C 238.179 170.289, 203.599 173.894, 200.029 176.088 C 198.896 176.784, 199.147 176.900, 201 176.534 C 207.647 175.222, 224.888 173.928, 248.500 172.967 C 262.800 172.385, 280.125 171.610, 287 171.244 C 298.864 170.613, 299.169 170.545, 293 169.907 C 286.501 169.234, 280.284 169.189, 261.500 169.680 M 416.186 179.416 C 418.647 181.295, 421.422 183.995, 422.353 185.416 C 424.709 189.012, 425.649 188.655, 426.284 183.922 C 426.584 181.680, 427.613 178.980, 428.570 177.922 C 430.275 176.039, 430.121 176, 421.011 176 L 411.712 176 416.186 179.416 M 206.295 186.883 C 195.377 190.683, 181.742 198.352, 168.751 207.997 C 157.586 216.287, 155.159 218.980, 154.080 224.275 L 153.423 227.500 137.689 228.106 C 129.035 228.439, 121.627 229.064, 121.227 229.495 C 120.827 229.926, 131.075 229.991, 144 229.641 C 156.925 229.291, 177.625 228.943, 190 228.869 C 204.825 228.779, 210.794 228.467, 207.500 227.954 C 204.750 227.526, 200.164 227.136, 197.309 227.088 C 192.450 227.006, 189.855 225.826, 191.838 224.600 C 192.958 223.908, 220.088 221.329, 235 220.496 C 251.303 219.586, 250.330 220.082, 252.295 211.690 C 253.221 207.736, 256.020 200.274, 258.514 195.109 C 261.009 189.943, 262.778 185.443, 262.444 185.109 C 262.111 184.774, 255.951 184.500, 248.756 184.500 C 239.181 184.500, 235.561 184.835, 235.254 185.750 C 234.970 186.592, 235.976 187, 238.335 187 C 242.858 187, 244.818 187.791, 246.063 190.118 C 246.749 191.399, 246.729 192.639, 246 194 C 245.054 195.767, 243.906 196, 236.156 196 C 225.810 196, 222.996 194.745, 224.989 191.021 L 226.231 188.700 219.687 189.371 C 212.224 190.135, 210.703 189.134, 214.745 186.119 C 218.590 183.250, 216.079 183.477, 206.295 186.883 M 363.500 188.010 C 349.757 188.888, 341.913 190.509, 335.500 193.798 L 330.500 196.362 334 197.139 C 335.925 197.567, 340.171 198.435, 343.437 199.068 C 349.437 200.232, 351.242 201.540, 356.607 208.615 C 358.527 211.147, 359.494 211.461, 367.552 212.168 C 372.413 212.594, 376.533 212.801, 376.706 212.627 C 376.879 212.454, 376.342 210.385, 375.511 208.030 C 372.481 199.444, 373.841 196, 380.259 196 C 384.073 196, 384.158 196.086, 387.494 203.250 C 389.351 207.238, 390.899 210.272, 390.935 209.993 C 391.039 209.181, 386.344 192.769, 385.143 189.750 C 383.909 186.647, 384.319 186.680, 363.500 188.010 M 396.507 190.118 C 397.582 195.143, 402.092 209.241, 402.495 208.838 C 402.688 208.646, 401.547 204.011, 399.962 198.538 C 395.614 183.534, 398.258 184.318, 403.436 199.568 L 406.299 208 412.899 207.968 C 418.921 207.939, 419.330 207.808, 417.559 206.468 C 416.491 205.661, 414.809 205, 413.820 205 C 412.569 205, 410.768 202.493, 407.895 196.750 C 405.625 192.213, 403.707 188.428, 403.634 188.339 C 403.560 188.251, 401.764 187.854, 399.642 187.458 L 395.783 186.737 396.507 190.118 M 264.367 200.260 C 261.838 203.476, 259.506 211.906, 260.791 213.191 C 261.316 213.716, 262.107 213.552, 262.710 212.792 C 264.281 210.812, 267.194 201.245, 266.819 199.297 C 266.541 197.854, 266.135 198.013, 264.367 200.260 M 130.250 211.662 C 127.769 212.663, 129.071 214.120, 132.173 213.813 C 135.886 213.447, 137.397 210.958, 133.833 211.079 C 132.550 211.122, 130.938 211.385, 130.250 211.662 M 313.107 218.306 C 311.241 218.963, 308.995 220.593, 308.116 221.930 C 306.552 224.308, 306.571 224.345, 309.009 223.676 C 315.951 221.772, 329.738 220.690, 333.831 221.729 C 337.448 222.647, 337.912 222.599, 336.923 221.408 C 333.892 217.755, 319.866 215.929, 313.107 218.306 M 421.251 219.776 C 412.314 221.183, 405.250 222.584, 405.554 222.888 C 405.859 223.192, 407.771 223.319, 409.804 223.171 C 415.076 222.785, 437.119 218.900, 439.500 217.936 L 441.500 217.127 439.500 217.171 C 438.400 217.196, 430.188 218.368, 421.251 219.776 M 433.500 221.577 C 428 222.905, 420.209 224.286, 416.187 224.647 L 408.875 225.304 413.347 229.902 C 415.807 232.431, 418.654 236.300, 419.674 238.500 L 421.529 242.500 433.514 242.134 C 440.106 241.932, 445.220 242.062, 444.879 242.422 C 444.537 242.782, 439.137 244.365, 432.879 245.940 L 421.500 248.803 419.914 259.152 C 419.041 264.843, 418.037 270.850, 417.683 272.500 C 417.068 275.359, 417.091 275.348, 418.164 272.250 C 418.783 270.462, 419.917 269, 420.684 269 C 423.404 269, 430.250 273.198, 434.560 277.508 L 438.930 281.878 443.715 277.912 C 450.523 272.271, 457.541 269, 462.839 269 C 466.842 269, 467.785 269.499, 472.286 274 C 475.036 276.750, 477.446 279, 477.643 279 C 477.839 279, 478 277.165, 478 274.923 C 478 271.750, 477.352 270.198, 475.077 267.923 C 473.469 266.315, 471.408 265, 470.497 265 C 469.176 265, 468.975 264.391, 469.502 261.992 C 470.016 259.650, 469.403 257.600, 466.736 252.742 C 464.851 249.309, 461.395 241.676, 459.056 235.779 C 455.157 225.949, 454.424 224.807, 450.230 222.029 C 447.715 220.363, 445.172 219.037, 444.579 219.082 C 443.985 219.127, 439 220.250, 433.500 221.577 M 370.102 227.509 C 344.991 231.604, 335.629 233.887, 340.504 234.729 C 342.845 235.133, 397.545 225.394, 400.500 224.047 C 404.368 222.284, 397.015 223.121, 370.102 227.509 M 386 229.539 C 379.675 230.808, 366.850 233.026, 357.500 234.468 C 348.150 235.910, 336.483 237.745, 331.574 238.545 C 326.664 239.345, 320.723 240, 318.371 240 C 309.669 240, 307.058 243.344, 310.526 250.050 L 312.051 253 306.591 253 C 298.680 253, 296.324 251.815, 294.921 247.130 C 293.504 242.401, 295.335 242.326, 268 248.230 C 257.825 250.427, 247.925 252.416, 246 252.650 C 242.522 253.071, 242.516 253.065, 245 251.648 C 246.375 250.864, 250.216 249.466, 253.535 248.540 C 257.680 247.384, 260.029 246.110, 261.035 244.472 C 261.841 243.160, 265.359 238.917, 268.853 235.043 C 272.347 231.170, 274.768 228, 274.234 228 C 271.825 228, 230.592 237.280, 222.661 239.607 C 203.321 245.282, 163.761 261.094, 165.230 262.563 C 165.468 262.801, 169.451 261.797, 174.081 260.333 C 181.357 258.032, 184.129 257.682, 194.500 257.757 C 208.743 257.860, 218.555 259.288, 221.149 261.635 C 222.986 263.298, 222.977 263.396, 220.766 265.769 C 219.519 267.105, 214 271.152, 208.500 274.761 C 203 278.370, 196.250 282.821, 193.500 284.654 C 189.154 287.550, 187.005 288.182, 177.064 289.493 C 170.774 290.322, 161.549 291.053, 156.564 291.118 C 151.579 291.183, 146.150 291.580, 144.500 292 C 138.797 293.451, 160.141 293.044, 173.506 291.447 C 180.653 290.593, 191.998 289.723, 198.717 289.513 C 215.382 288.994, 219.641 288.265, 225.744 284.890 C 233.354 280.681, 245.086 277, 250.889 277 C 259.736 277, 266.565 280.346, 274.875 288.753 C 280.415 294.358, 282.464 295.876, 283.110 294.857 C 283.582 294.111, 283.976 293.218, 283.985 292.874 C 283.993 292.530, 286.269 290.730, 289.042 288.874 L 294.083 285.500 293.443 279 C 293.091 275.425, 292.616 272.307, 292.388 272.070 C 292.160 271.834, 288.717 272.402, 284.737 273.333 C 275.937 275.391, 276 275.391, 276 273.369 C 276 272.058, 275.301 271.852, 272.434 272.317 C 269.915 272.726, 268.985 272.546, 269.266 271.703 C 269.692 270.423, 277.878 267.825, 287.324 265.971 C 292.128 265.028, 293.032 264.536, 292.484 263.164 C 292.119 262.249, 291.634 257.900, 291.405 253.500 C 290.923 244.206, 292.174 246.191, 293.999 257.615 L 295.135 264.731 301.818 263.405 C 311.910 261.403, 367.315 252.259, 377 250.998 C 381.675 250.388, 386.572 249.666, 387.882 249.393 L 390.265 248.895 388.090 246.869 C 385.736 244.676, 385.966 241.947, 388.773 238.750 C 390.041 237.306, 392.030 237, 400.132 237 C 409.349 237, 410.049 237.145, 411.500 239.359 C 412.350 240.657, 412.762 242.457, 412.416 243.359 C 411.955 244.560, 412.351 245, 413.893 245 C 415.651 245, 416 244.395, 416 241.348 C 416 238.267, 415.164 236.859, 410.652 232.348 C 404.334 226.029, 403.802 225.969, 386 229.539 M 92.300 240.060 C 76.038 247.921, 68.672 253.650, 64.473 261.700 C 63.102 264.328, 63.012 264.360, 63.006 262.218 C 62.997 258.917, 65.413 253.638, 68.140 250.999 L 70.500 248.715 67.158 250.607 C 58.033 255.776, 53.240 262.571, 54.153 269.044 L 54.500 271.500 70.500 272.198 C 80.417 272.631, 91.655 273.848, 100.061 275.401 C 107.519 276.778, 116.622 278.213, 120.289 278.589 C 126.923 279.268, 126.977 279.253, 130.942 275.671 C 135.832 271.253, 140.481 268.870, 162.589 259.448 C 182.744 250.858, 194.239 246.468, 213.242 240.103 L 226.983 235.500 172.185 235.818 C 142.046 235.992, 114.398 235.735, 110.744 235.245 L 104.101 234.355 92.300 240.060 M 299 236.731 C 294.829 237.221, 292.410 239.030, 296.050 238.937 C 297.397 238.903, 301.875 238.284, 306 237.563 L 313.500 236.252 308 236.286 C 304.975 236.305, 300.925 236.505, 299 236.731 M 277.959 239.463 C 269.512 240.692, 265 242.252, 265 243.942 C 265 244.421, 265.788 244.653, 266.750 244.457 C 267.712 244.262, 272.775 243.379, 278 242.496 C 289.470 240.556, 291 240.137, 291 238.933 C 291 237.787, 288.879 237.873, 277.959 239.463 M 399.500 241.692 C 391.462 243.540, 389.806 244.206, 390.791 245.191 C 392.032 246.432, 407 243.422, 407 241.932 C 407 240.983, 403.121 240.859, 399.500 241.692 M 179.443 244.418 C 178.376 245.198, 177.782 246.115, 178.122 246.456 C 178.904 247.237, 184 244.969, 184 243.839 C 184 242.541, 181.592 242.846, 179.443 244.418 M 105.866 251.176 C 100.039 254.084, 95.580 257.266, 91.174 261.660 C 84.330 268.484, 83.536 271.272, 88.281 271.819 C 90.602 272.086, 91.270 271.598, 92.451 268.773 C 94.119 264.780, 101.412 257.739, 109.315 252.492 C 112.442 250.416, 115 248.331, 115 247.858 C 115 246.615, 115.009 246.612, 105.866 251.176 M 412 249.709 C 410.625 249.950, 406.013 251.023, 401.752 252.094 C 397.490 253.165, 379.444 256.283, 361.649 259.023 C 333.873 263.299, 307.918 267.974, 297.674 270.546 C 294.909 271.240, 294.862 271.366, 295.535 276.378 C 295.914 279.195, 296.511 282.009, 296.862 282.631 C 297.311 283.426, 300.318 282.908, 307 280.884 C 331.983 273.315, 360.939 269.040, 392.247 268.298 L 415.994 267.734 416.898 264.117 C 417.395 262.128, 418.039 257.913, 418.328 254.750 C 418.905 248.465, 418.943 248.496, 412 249.709 M 196.001 265.748 C 187.767 266.132, 186.472 266.762, 187.468 269.900 C 188.078 271.820, 188.625 271.945, 193.818 271.342 C 196.943 270.979, 202.425 269.420, 206 267.877 L 212.500 265.072 208 265.235 C 205.525 265.324, 200.126 265.555, 196.001 265.748 M 162.500 267.123 C 155.298 268.145, 144.912 271.196, 138.890 274.060 C 136.475 275.208, 135.625 275.849, 137 275.484 C 167.767 267.323, 178.846 266.055, 182.739 270.250 C 186.336 274.126, 186.120 280.040, 182.250 283.687 C 179.799 285.997, 179.754 286.146, 181.835 285.059 C 186.536 282.603, 188.513 273.090, 185.179 268.972 C 183.624 267.052, 182.271 266.690, 175.929 266.497 C 171.843 266.373, 165.800 266.655, 162.500 267.123 M 174.607 271.582 C 173.302 274.981, 173.941 278, 175.965 278 C 178.390 278, 180.088 275.054, 179.332 272.162 C 178.676 269.652, 175.497 269.262, 174.607 271.582 M 190.394 276.911 C 190.511 280.117, 192.371 279.512, 193.298 275.967 C 193.666 274.560, 193.311 274, 192.050 274 C 190.745 274, 190.315 274.757, 190.394 276.911 M 158.500 275.788 C 157.400 275.975, 154.363 276.811, 151.750 277.644 C 146.434 279.341, 145.472 281.816, 149.132 284.380 C 151.029 285.708, 151.527 285.701, 153.644 284.314 C 155.165 283.317, 157.101 282.970, 159.012 283.352 C 162.222 283.994, 162.476 283.350, 161.132 277.974 C 160.675 276.146, 159.947 275.541, 158.500 275.788 M 414.624 279.539 C 413.659 282.053, 413.943 282.702, 415.122 280.675 C 415.706 279.671, 415.973 278.639, 415.715 278.382 C 415.458 278.124, 414.966 278.645, 414.624 279.539 M 60.500 280.555 C 61.050 280.773, 64.313 281.598, 67.750 282.387 C 74.797 284.006, 76.440 282.852, 69.557 281.119 C 65.476 280.091, 58.190 279.638, 60.500 280.555 M 80.278 281.250 C 78.625 283.388, 77.726 285.654, 79.286 283.750 C 81.406 281.164, 84.214 281.474, 83.819 284.250 C 83.567 286.018, 82.909 286.460, 80.749 286.312 C 77.647 286.099, 77.262 287.119, 79.571 289.429 C 81.630 291.487, 82.589 291.411, 85 289 C 88.397 285.603, 87.104 280, 82.922 280 C 82 280, 80.810 280.563, 80.278 281.250 M 50.061 283.962 C 48.579 284.878, 52.419 286.807, 67.500 292.720 L 76.500 296.249 89.500 295.375 C 96.650 294.894, 109.523 294.500, 118.107 294.500 C 133.529 294.500, 133.664 294.481, 129.482 292.894 C 127.154 292.011, 124.234 290.577, 122.993 289.707 C 121.072 288.362, 120.421 288.327, 118.618 289.470 C 115.968 291.151, 97.722 293.248, 84.500 293.391 C 74.946 293.495, 74.121 293.329, 66 289.673 C 61.325 287.568, 56.126 285.237, 54.447 284.492 C 52.693 283.714, 50.828 283.488, 50.061 283.962 M 89.617 283.810 C 88.894 284.980, 92.851 285.631, 105.239 286.377 C 113.523 286.877, 116.779 285.615, 109.740 284.633 C 99.134 283.153, 90.248 282.790, 89.617 283.810 M 35.371 286.557 C 34.449 287.963, 33.489 291.264, 33.236 293.892 C 32.799 298.445, 32.959 298.821, 36.639 301.856 C 41.272 305.678, 47.664 308.199, 63 312.254 C 73.964 315.153, 75.456 315.298, 95 315.360 C 124.494 315.453, 146.724 312.595, 184.726 303.825 C 194.751 301.512, 203.195 299.861, 203.491 300.157 C 203.787 300.454, 202.945 302.677, 201.619 305.098 C 200.294 307.519, 198.932 310.432, 198.594 311.571 C 197.996 313.584, 198.139 313.610, 203.658 312.508 C 209.072 311.427, 209.523 311.096, 213.274 305.437 C 215.439 302.172, 218.788 297.563, 220.717 295.195 C 222.646 292.828, 224.005 290.672, 223.738 290.405 C 223.471 290.138, 218.583 290.637, 212.876 291.515 C 191.263 294.840, 178.987 295.939, 163 295.978 C 143.165 296.028, 118.061 297.410, 97.017 299.612 C 88.501 300.503, 79.259 300.997, 76.479 300.710 C 69.386 299.978, 56.899 294.935, 47.532 289.020 C 43.160 286.259, 39.011 284, 38.314 284 C 37.617 284, 36.292 285.151, 35.371 286.557 M 176.813 286.683 C 177.534 286.972, 178.397 286.936, 178.729 286.604 C 179.061 286.272, 178.471 286.036, 177.417 286.079 C 176.252 286.127, 176.015 286.364, 176.813 286.683 M 454.025 292.752 C 450.370 294.591, 445.582 300.775, 444.542 305 C 443.988 307.252, 444.100 307.202, 445.667 304.500 C 446.945 302.296, 447.498 301.930, 447.752 303.122 C 447.942 304.014, 449.925 306.212, 452.159 308.008 C 456.029 311.117, 456.188 311.159, 455.533 308.886 C 455.155 307.574, 453.285 305.013, 451.378 303.195 L 447.910 299.890 451.355 296.445 C 453.978 293.822, 455.641 293, 458.323 293 C 462.201 293, 467.436 296.649, 468.538 300.119 C 468.892 301.237, 469.400 301.934, 469.665 301.668 C 470.711 300.623, 466.725 294.803, 463.701 292.960 C 459.764 290.559, 458.440 290.530, 454.025 292.752 M 238.895 307.851 C 232.607 311.839, 224.817 324.810, 225.067 330.876 C 225.104 331.769, 225.735 330.573, 226.471 328.218 C 229.081 319.858, 230.495 319.728, 238.506 327.112 C 243.566 331.777, 244.570 332.003, 242.507 328.013 C 240.325 323.794, 235.053 318, 233.396 318 C 231.287 318, 231.720 315.606, 234.250 313.279 C 239.004 308.907, 243.393 307.008, 248.750 307.004 C 253.508 307, 254.360 307.360, 257.843 310.843 C 259.994 312.994, 262.500 316.948, 263.533 319.820 C 264.548 322.644, 265.579 324.754, 265.823 324.510 C 266.068 324.265, 265.246 321.333, 263.998 317.994 C 259.339 305.537, 249.081 301.392, 238.895 307.851 M 378 308.119 C 358.390 310.365, 320.669 318.533, 307.964 323.285 C 300.457 326.092, 299.193 328.641, 305.500 328.255 C 312.507 327.826, 390.366 313.056, 393.750 311.514 C 398.009 309.573, 397.858 308.403, 393.250 307.642 C 388.945 306.930, 388.160 306.955, 378 308.119 M 443.158 310 C 443.158 311.375, 443.385 311.938, 443.662 311.250 C 443.940 310.563, 443.940 309.438, 443.662 308.750 C 443.385 308.063, 443.158 308.625, 443.158 310 M 397.983 311.518 C 395.041 314.650, 390.180 316.108, 369.697 320.005 C 326.844 328.157, 292.254 335.317, 289.523 336.599 L 286.500 338.018 290 337.467 C 299.449 335.979, 336.400 329.376, 360.500 324.869 C 401.248 317.249, 414.175 315, 417.226 315 C 422.297 315, 420.096 313.340, 412.130 311.157 C 402.134 308.418, 400.865 308.450, 397.983 311.518 M 38.841 318.523 C 39.157 324.784, 38.874 326.549, 37.057 329.628 C 35.869 331.642, 35.139 333.920, 35.435 334.691 C 36.289 336.917, 47.777 341.733, 56.396 343.479 C 68.794 345.989, 94 349.683, 111.500 351.553 C 123.585 352.844, 131.415 353.098, 143.500 352.591 C 169.419 351.503, 179.950 348.794, 182.828 342.478 C 184.566 338.664, 184.276 338.519, 181.504 341.813 C 180.131 343.445, 177.112 345.538, 174.796 346.465 C 168.237 349.089, 148.056 350.297, 122 349.623 C 98.600 349.018, 88.106 347.756, 63 342.525 C 55.316 340.924, 39 333.857, 39 332.129 C 39 331.600, 40.178 330.774, 41.617 330.294 C 43.597 329.634, 45.362 329.977, 48.867 331.700 C 54.526 334.483, 65.032 337.208, 83.500 340.683 C 101.949 344.154, 129.538 344.643, 137.330 341.637 C 142.622 339.595, 142.730 339.077, 139.483 331.305 C 138.212 328.264, 137.745 328, 133.633 328 C 131.175 328, 128.497 327.744, 127.681 327.431 C 126.578 327.008, 126.024 327.896, 125.517 330.902 C 124.632 336.137, 121.871 339.558, 117.315 341.061 C 107.408 344.331, 63.704 337.373, 47.852 330.003 C 46.292 329.278, 44.983 327.689, 44.666 326.136 C 44.371 324.686, 42.854 320.705, 41.297 317.289 L 38.465 311.079 38.841 318.523 M 465.365 314.363 L 462.618 316.725 464.809 317.898 C 468.402 319.821, 467.319 321, 461.957 321 C 457.630 321, 456.105 321.588, 451.207 325.144 C 448.068 327.423, 445.114 329.631, 444.642 330.052 C 444.170 330.472, 444.331 332.474, 445 334.500 L 446.216 338.183 449.541 334.960 C 451.370 333.187, 453.809 329.546, 454.961 326.868 C 456.113 324.191, 457.317 322, 457.638 322 C 457.958 322, 460.749 324.312, 463.841 327.138 C 469.327 332.152, 469.479 332.218, 470.132 329.888 C 470.500 328.575, 470.845 324.012, 470.900 319.750 C 471.012 311.046, 470.172 310.228, 465.365 314.363 M 451 314.441 C 451 315.234, 451.408 316.134, 451.907 316.442 C 452.405 316.751, 452.578 316.102, 452.290 315.001 C 451.679 312.666, 451 312.371, 451 314.441 M 442.079 316.583 C 442.127 317.748, 442.364 317.985, 442.683 317.188 C 442.972 316.466, 442.936 315.603, 442.604 315.271 C 442.272 314.939, 442.036 315.529, 442.079 316.583 M 456.500 317 C 456.840 317.550, 457.316 318, 457.559 318 C 457.802 318, 458 317.550, 458 317 C 458 316.450, 457.523 316, 456.941 316 C 456.359 316, 456.160 316.450, 456.500 317 M 254.312 318.494 C 253.139 319.316, 250.780 322.261, 249.071 325.039 C 245.613 330.659, 245.797 330.662, 254.500 325.141 C 261.158 320.918, 262.139 319.872, 260.874 318.348 C 259.410 316.584, 256.961 316.639, 254.312 318.494 M 34.079 319.583 C 34.127 320.748, 34.364 320.985, 34.683 320.188 C 34.972 319.466, 34.936 318.603, 34.604 318.271 C 34.272 317.939, 34.036 318.529, 34.079 319.583 M 169 333.917 C 169 335.145, 169.646 336, 170.573 336 C 171.505 336, 172.015 335.320, 171.823 334.333 C 171.337 331.824, 169 331.480, 169 333.917 M 224.232 336 C 224.232 337.925, 224.438 338.712, 224.689 337.750 C 224.941 336.788, 224.941 335.212, 224.689 334.250 C 224.438 333.288, 224.232 334.075, 224.232 336 M 242.531 336.293 C 242.103 337.279, 242.034 338.367, 242.376 338.710 C 243.392 339.725, 244.211 338.299, 243.743 336.328 C 243.329 334.581, 243.275 334.580, 242.531 336.293 M 260.805 341.071 C 257.345 344.362, 256.043 345.019, 254.012 344.500 C 246.219 342.507, 245.237 342.672, 237.270 347.314 C 227.645 352.922, 225.888 353.302, 224.838 350 C 224.278 348.238, 224.204 348.639, 224.587 351.358 C 224.886 353.480, 226.078 357.165, 227.235 359.547 C 229.315 363.829, 229.369 363.861, 232.118 362.439 C 235.468 360.706, 239.217 355.920, 241.440 350.535 C 244.590 342.906, 246.617 343.160, 255.108 352.250 L 261.881 359.500 264.071 354.561 C 266.521 349.036, 267.966 337, 266.179 337 C 265.577 337, 263.158 338.832, 260.805 341.071 M 403.500 338.122 C 391.832 339.570, 351.671 346.051, 349 346.917 C 347.060 347.546, 348.179 347.877, 354 348.398 C 365.317 349.409, 413.555 351.987, 421.301 351.994 L 428.102 352 425.665 348.750 C 424.325 346.962, 422.268 343.587, 421.094 341.250 C 419.066 337.212, 418.748 337.006, 414.730 337.126 C 412.403 337.196, 407.350 337.644, 403.500 338.122 M 460.326 339.595 C 455.779 342.339, 453.814 342.723, 450 341.619 L 447.500 340.894 449.861 342.947 C 452.830 345.529, 457.553 345.570, 461.686 343.050 C 465.284 340.856, 467.932 336.974, 465.785 337.039 C 465.078 337.060, 462.622 338.211, 460.326 339.595 M 223.232 344 C 223.232 345.925, 223.438 346.712, 223.689 345.750 C 223.941 344.788, 223.941 343.212, 223.689 342.250 C 223.438 341.288, 223.232 342.075, 223.232 344 M 99.037 358.220 L 96.575 361.330 105.941 360.665 C 111.092 360.299, 117.128 360, 119.354 360 C 125.388 360, 122.577 357.991, 114.303 356.390 C 103.941 354.385, 101.879 354.632, 99.037 358.220 M 253.487 363.021 C 252.289 364.960, 242.492 369.981, 239.890 369.991 C 238.454 369.996, 235.529 368.818, 233.390 367.374 C 229.939 365.045, 229.725 365, 231.498 366.977 C 234.619 370.459, 238.460 372, 244.016 372 C 250.684 372, 256.346 368.909, 259.127 363.750 C 259.928 362.264, 259.621 362, 257.094 362 C 255.457 362, 253.834 362.459, 253.487 363.021" stroke="none" fill="black" fill-rule="evenodd"/>
</svg>