<svg xmlns="http://www.w3.org/2000/svg" width="512" height="512" viewBox="0 0 512 512" version="1.1">
	<path d="M 309.500 157.094 C 303.450 157.530, 276.900 158.347, 250.500 158.909 C 224.100 159.471, 197.775 160.434, 192 161.049 C 186.225 161.664, 178.420 161.873, 174.655 161.514 C 168.446 160.921, 167.469 161.089, 164.155 163.323 C 162.145 164.677, 158.786 166.327, 156.692 166.989 C 152.654 168.266, 147.563 173.868, 130.098 196.250 L 121.710 207 117.309 207 C 109.815 207, 105.388 214.046, 109.419 219.558 C 110.783 221.424, 110.478 221.544, 101.452 222.677 C 84.038 224.864, 62.552 229.151, 54 232.145 C 49.325 233.781, 42.199 236.272, 38.164 237.679 C 25.207 242.200, 20.943 249.294, 20.646 266.825 L 20.500 275.421 26 276.663 C 29.025 277.346, 35.325 278.388, 40 278.978 C 44.675 279.569, 51.875 280.496, 56 281.037 C 68.315 282.655, 100.343 284.175, 136.500 284.858 C 165.770 285.411, 170.500 285.709, 170.500 287 C 170.500 288.300, 166.897 288.481, 143.500 288.357 C 106.517 288.161, 54.136 285.356, 43.500 283.003 C 41.300 282.517, 33.753 281.551, 26.728 280.859 C 14.250 279.628, 13.909 279.647, 11.863 281.693 C 7.528 286.028, 10.127 299.326, 17.472 310.392 C 21.209 316.022, 25.303 319.226, 30.250 320.391 C 32.485 320.917, 33 321.593, 33 323.998 C 33 328.830, 36.869 339.153, 40.611 344.306 C 42.530 346.950, 46.156 350.550, 48.668 352.306 C 56.696 357.921, 56.926 358.176, 53.345 357.489 C 51.538 357.142, 49.911 357.335, 49.536 357.941 C 49.176 358.524, 49.174 359, 49.530 359 C 49.886 359, 55.425 359.887, 61.839 360.972 C 71.514 362.608, 96.446 364.966, 163.500 370.584 C 167.350 370.906, 174.324 372.089, 178.999 373.212 C 185.969 374.887, 189.566 375.160, 198.999 374.728 C 205.324 374.439, 213.650 373.497, 217.500 372.634 C 221.350 371.771, 238 369.896, 254.500 368.467 C 271 367.039, 302.275 363.898, 324 361.486 C 345.725 359.075, 374.525 355.941, 388 354.522 C 419.757 351.177, 422.748 350.615, 426.147 347.360 C 429.940 343.726, 435.646 332.538, 437.615 324.876 C 438.809 320.232, 439.102 316.141, 438.696 309.814 L 438.138 301.129 441.215 300.453 C 442.930 300.076, 446.202 297.811, 448.609 295.334 C 452.274 291.564, 453.226 291.051, 454.898 291.945 C 458.064 293.640, 462.951 293.181, 471.281 290.406 C 483.335 286.392, 488 281.244, 488 271.955 C 488 266.700, 483.776 262, 479.054 262 L 475.954 262 477.727 259.293 C 479.223 257.009, 479.475 254.515, 479.341 243.333 C 479.108 223.969, 477.223 220.070, 468.027 219.933 L 463.500 219.865 468.266 218.583 C 470.888 217.878, 473.252 217.081, 473.521 216.813 C 474.580 215.753, 471.731 210.001, 470.152 210.012 C 469.243 210.019, 461.075 210.673, 452 211.467 C 442.925 212.260, 420.650 213.826, 402.500 214.948 C 384.350 216.070, 367.383 217.228, 364.796 217.522 L 360.092 218.057 358.974 213.778 C 353.728 193.708, 341.869 166.049, 336.204 160.670 C 333.211 157.828, 327.659 155.938, 323 156.175 C 321.625 156.245, 315.550 156.659, 309.500 157.094 M 284.838 163.056 C 271.538 164.011, 263.548 165.631, 261.827 167.720 C 260.397 169.456, 261.823 169.374, 274.500 166.995 C 277.250 166.478, 287.375 165.790, 297 165.466 C 315.946 164.827, 319 164.482, 319 162.981 C 319 161.852, 301.044 161.891, 284.838 163.056 M 321.750 162.689 C 319.048 163.396, 319.572 164.667, 325.521 171.834 C 333.352 181.269, 336.578 190.108, 345.472 226.500 C 348.194 237.636, 349.420 245.429, 350.232 256.750 L 351.326 272 355.556 272 C 358.491 272, 359.972 271.516, 360.393 270.418 C 361.379 267.850, 361.086 244.733, 359.994 238.886 C 359.440 235.924, 357.865 231.321, 356.494 228.658 C 355.122 225.994, 354 222.543, 354 220.988 C 354 213.401, 343.447 182.980, 336.981 171.925 C 331.377 162.344, 328.876 160.827, 321.750 162.689 M 200 165.677 C 185.685 166.211, 155.495 169.243, 154.500 170.246 C 153.828 170.925, 156.776 171.057, 163.500 170.648 C 181.769 169.540, 239.395 168.690, 246.238 169.429 C 252.237 170.077, 253.216 170.495, 255.171 173.241 C 257.326 176.267, 257.335 176.411, 255.638 180.912 C 251.223 192.624, 246.976 206.472, 245.896 212.677 C 244.954 218.086, 244.063 220.137, 241.576 222.624 C 238.095 226.105, 237.614 226.227, 211 230.419 C 181.978 234.991, 164.548 239.652, 156.500 244.995 L 153.500 246.987 158.408 246.993 C 161.108 246.997, 171.757 244.990, 182.073 242.534 C 202.574 237.653, 223.724 233.711, 225.041 234.526 C 225.501 234.810, 226.242 234.415, 226.689 233.648 C 227.560 232.151, 243.457 228.546, 244.994 229.497 C 246.265 230.282, 249.509 240.824, 248.722 241.611 C 248.373 241.960, 244.077 242.475, 239.175 242.754 C 231.195 243.209, 230.052 243.052, 228.256 241.256 C 227.153 240.153, 226.054 238.661, 225.813 237.940 C 225.459 236.878, 223.408 236.957, 214.938 238.359 C 207.024 239.669, 167.319 247.881, 166.332 248.412 C 166.240 248.462, 166.762 250.808, 167.493 253.626 C 168.224 256.443, 169.333 262.951, 169.957 268.087 C 170.582 273.224, 171.295 277.628, 171.542 277.876 C 171.789 278.123, 174.834 275.595, 178.308 272.259 C 186.478 264.415, 192.864 260.415, 201.343 257.833 C 209.726 255.280, 220.063 255.683, 227.259 258.845 C 233.761 261.703, 241.360 269.073, 246.196 277.214 C 250.223 283.991, 251.244 284.765, 253.923 283.069 C 255.139 282.299, 255.166 280.309, 254.109 269.407 C 253.428 262.388, 251.775 249.967, 250.436 241.805 C 246.256 216.334, 247.141 208.033, 256.503 184.883 C 258.977 178.768, 261 173.368, 261 172.883 C 261 172.397, 259.875 172, 258.500 172 C 255.436 172, 255.215 169.785, 258 167 L 260 165 233.750 165.199 C 219.313 165.308, 204.125 165.523, 200 165.677 M 291.971 168.021 C 277.174 168.743, 267.433 170.710, 264.594 173.549 C 260.362 177.781, 252.530 199.084, 250.737 211.244 C 249.709 218.213, 249.865 220.663, 252.301 235.744 C 253.790 244.960, 255.717 259.248, 256.584 267.497 C 257.451 275.745, 258.238 282.571, 258.334 282.667 C 258.557 282.890, 336.135 273.396, 341.688 272.466 C 343.992 272.080, 346.059 271.255, 346.282 270.632 C 347.206 268.049, 344.913 241.939, 343.153 235 C 338.624 217.148, 329.870 188.732, 327.093 182.868 C 322.272 172.687, 315.547 166.787, 309.185 167.156 C 307.708 167.242, 299.962 167.631, 291.971 168.021 M 279.336 171.057 C 266.349 172.749, 262.708 176.686, 256.438 195.817 C 251.908 209.638, 251.571 225.079, 255.613 233.598 C 257.531 237.639, 259.040 237.802, 273.322 235.503 C 278.438 234.680, 288.445 233.357, 295.561 232.563 C 311.403 230.795, 325.569 228.409, 329.263 226.886 C 330.897 226.212, 332.291 224.688, 332.676 223.155 C 334.183 217.150, 325.582 183.481, 320.695 176.255 C 317.051 170.867, 313.902 169.984, 298.849 170.127 C 291.507 170.197, 282.726 170.615, 279.336 171.057 M 273.250 178.706 C 270.129 179.307, 270.303 182.805, 274 193.841 C 275.650 198.766, 277 203.741, 277 204.898 C 277 207.280, 278.017 207.584, 279.849 205.750 C 280.745 204.853, 285.662 204.500, 297.254 204.500 L 313.411 204.500 314.662 207 C 315.350 208.375, 316.166 210.738, 316.476 212.250 C 317.218 215.878, 321 216.180, 321 212.610 C 321 209.064, 318.234 194.339, 316.317 187.682 C 313.608 178.273, 312.868 177.975, 292.615 178.136 C 283.202 178.211, 274.488 178.467, 273.250 178.706 M 170.158 179.925 C 161.924 180.432, 160.591 180.779, 158.912 182.856 C 156.048 186.400, 146.983 202.754, 144.421 209 L 142.166 214.500 136.333 214.280 C 131.327 214.091, 130.937 214.196, 133.581 215.015 C 135.276 215.540, 137.483 216.877, 138.486 217.985 C 140.093 219.760, 141.554 220, 150.766 220 C 160.974 220, 161.169 219.958, 159.008 218.208 C 156.915 216.513, 156.890 216.336, 158.551 214.958 C 159.948 213.798, 164.046 213.500, 178.604 213.500 C 190.159 213.500, 196.550 213.150, 195.950 212.550 C 194.524 211.124, 194.743 190.657, 196.200 189.200 C 196.860 188.540, 199.512 188, 202.093 188 C 206.484 188, 208 187.015, 208 184.161 C 208 183.790, 202.825 183.650, 196.500 183.851 C 184.672 184.226, 182.987 183.648, 187.250 180.674 C 189.419 179.162, 189.319 179.109, 184.500 179.228 C 181.750 179.296, 175.296 179.609, 170.158 179.925 M 263.165 188.958 C 261.602 193.440, 260.766 201.284, 261.710 202.600 C 262.611 203.855, 271 205.192, 271 204.080 C 271 202.940, 266.259 189.285, 265.216 187.421 C 264.430 186.018, 264.104 186.262, 263.165 188.958 M 231.177 210.631 C 231.355 211.527, 232.507 212.929, 233.738 213.744 C 235.739 215.071, 236.041 215.056, 236.600 213.601 C 237.399 211.517, 235.323 209, 232.804 209 C 231.535 209, 230.966 209.570, 231.177 210.631 M 266.138 210.894 C 265.103 211.549, 264.941 213.185, 265.464 217.694 C 266.443 226.126, 266.950 226.675, 271.642 224.384 C 275.121 222.685, 275.481 222.152, 275.304 218.957 C 274.962 212.786, 273.394 209.998, 270.275 210.015 C 268.749 210.024, 266.887 210.419, 266.138 210.894 M 113.213 212.188 C 111.512 213.888, 111.704 215.672, 113.667 216.426 C 115.752 217.226, 117.296 215.774, 116.844 213.439 C 116.407 211.186, 114.776 210.624, 113.213 212.188 M 444.500 219.692 C 441.750 219.884, 426.225 221.348, 410 222.946 C 393.775 224.543, 377.096 226.139, 372.936 226.493 L 365.373 227.136 367.694 231.825 C 371.766 240.054, 372.491 247.514, 370.359 259.260 C 369.103 266.177, 368.604 272.828, 368.819 279.756 C 369.115 289.268, 368.236 295.009, 365.319 302.611 C 364.738 304.125, 365.316 304.223, 371.043 303.575 C 383.125 302.208, 384.563 300.908, 389.636 286.777 C 393.718 275.406, 396.772 270.098, 402.565 264.304 C 414.463 252.407, 430.499 250.359, 439.196 259.627 C 443.357 264.060, 446.104 271.341, 446.728 279.583 C 447.036 283.662, 447.637 287, 448.063 287 C 450.338 287, 452.287 285.357, 454.005 281.990 C 456.349 277.395, 458.985 261.724, 457.776 259.565 C 457.270 258.660, 457.345 257.224, 457.958 256.079 C 459.325 253.525, 459.291 240.332, 457.896 232.326 C 456.740 225.685, 453.456 219.574, 450.965 219.428 C 450.159 219.381, 447.250 219.500, 444.500 219.692 M 329.450 221.922 C 328.928 222.429, 326.925 223.327, 325 223.918 L 321.500 224.993 324.987 224.474 C 326.904 224.189, 329.138 223.290, 329.951 222.478 C 330.764 221.665, 331.197 221, 330.914 221 C 330.631 221, 329.972 221.415, 329.450 221.922 M 152 223.675 C 145.397 224.648, 137.540 224.913, 126.234 224.543 L 109.968 224.011 84.734 228.901 C 70.855 231.590, 56.885 234.780, 53.688 235.990 C 48.423 237.983, 41 243.791, 41 245.917 C 41 247.187, 106.875 248.356, 130.627 247.508 C 151.062 246.778, 151.345 246.737, 155.792 243.917 C 160.442 240.968, 169.241 237.338, 186.500 231.249 C 194.344 228.482, 198.764 227.570, 207 227.020 L 217.500 226.319 202.500 226.168 C 194.250 226.085, 183.450 226.469, 178.500 227.023 C 166.837 228.327, 145.450 232.609, 138.289 235.073 C 128.660 238.385, 131.354 236.402, 142.185 232.205 C 151.151 228.730, 165.213 224.170, 171.500 222.700 C 176.121 221.619, 160.732 222.389, 152 223.675 M 314.750 225.706 C 315.988 225.944, 318.012 225.944, 319.250 225.706 C 320.488 225.467, 319.475 225.272, 317 225.272 C 314.525 225.272, 313.512 225.467, 314.750 225.706 M 465 226.945 C 465 227.525, 465.433 228, 465.961 228 C 467.419 228, 468.841 234.487, 469.578 244.500 L 470.240 253.500 467.120 254.663 C 462.650 256.329, 463.246 258, 468.309 258 C 475.824 258, 476.459 256.900, 476.779 243.333 C 477.130 228.416, 476.393 226.625, 469.726 226.195 C 466.886 226.012, 465 226.311, 465 226.945 M 239 235 C 239 235.550, 239.423 236, 239.941 236 C 240.459 236, 241.160 235.550, 241.500 235 C 241.840 234.450, 241.416 234, 240.559 234 C 239.702 234, 239 234.450, 239 235 M 323 236 C 320.478 238.522, 320.445 242.093, 322.913 245.139 C 324.508 247.107, 325.714 247.489, 330.163 247.431 C 333.198 247.392, 336.949 246.602, 338.859 245.599 C 341.858 244.025, 342.151 243.505, 341.597 240.734 C 340.521 235.355, 338.458 234, 331.345 234 C 326.333 234, 324.580 234.420, 323 236 M 34.257 242.157 C 29.457 244.486, 29.531 246, 34.444 246 C 36.876 246, 38.204 245.337, 39.385 243.535 C 40.273 242.180, 41 240.830, 41 240.535 C 41 239.506, 38.466 240.116, 34.257 242.157 M 326 241 C 324.068 242.249, 332.594 242.249, 335.500 241 C 336.982 240.363, 336.206 240.126, 332.500 240.086 C 329.750 240.055, 326.825 240.467, 326 241 M 392.209 243.616 C 390.019 245.342, 387.423 249.407, 384.452 255.765 C 381.996 261.020, 380.149 265.482, 380.347 265.680 C 380.545 265.879, 381.905 264.232, 383.368 262.020 C 384.831 259.809, 386.584 257.999, 387.264 257.997 C 388.028 257.995, 388.518 256.487, 388.547 254.050 C 388.600 249.613, 390.621 246.814, 395.117 244.951 C 398.929 243.373, 402.692 244.925, 403.574 248.440 C 404.095 250.516, 403.196 252.065, 398.352 257.442 C 392.649 263.772, 391.060 264.713, 382.250 266.982 C 379.913 267.584, 378 268.558, 378 269.146 C 378 269.733, 378.712 269.941, 379.582 269.607 C 380.452 269.273, 383.372 269, 386.071 269 C 390.834 269, 391.168 268.800, 397.487 262.160 C 408.354 250.741, 417.530 247.268, 428.445 250.441 C 431.904 251.447, 435.622 253.471, 438.068 255.680 C 442.794 259.950, 443.889 259.637, 440.757 254.909 C 435.741 247.339, 423.482 244.130, 412.409 247.489 C 406.073 249.411, 406.445 249.487, 404.984 245.962 C 402.680 240.400, 397.497 239.448, 392.209 243.616 M 30 252.762 C 27.456 253.556, 26 256.217, 26 260.074 C 26 263.058, 26.432 263.882, 28.250 264.370 C 32.664 265.553, 34 265.118, 34 262.500 C 34 261.125, 33.460 260, 32.800 260 C 31.867 260, 31.867 259.733, 32.800 258.800 C 34.374 257.226, 34.341 253.340, 32.750 252.754 C 32.063 252.501, 30.825 252.505, 30 252.762 M 58 253.044 C 67.075 253.418, 83.725 253.702, 95 253.675 L 115.500 253.627 94.500 252.954 C 82.950 252.583, 66.300 252.299, 57.500 252.322 L 41.500 252.364 58 253.044 M 158.351 256.528 C 158.029 257.368, 158.086 262.768, 158.479 268.528 C 159.149 278.368, 159.322 278.999, 161.346 278.985 C 165.589 278.955, 166.309 277.661, 165.586 271.361 C 164.182 259.112, 163.003 255, 160.898 255 C 159.819 255, 158.673 255.687, 158.351 256.528 M 116.921 260.250 C 116.286 262.587, 115.706 267.650, 115.633 271.500 L 115.500 278.500 135.250 278.771 L 155 279.042 154.804 271.271 L 154.608 263.500 154.259 270.242 C 153.949 276.218, 153.658 277.047, 151.704 277.528 C 150.492 277.827, 142.075 277.943, 133 277.786 L 116.500 277.500 116.717 272.256 C 116.837 269.371, 117.582 264.534, 118.372 261.506 C 119.163 258.478, 119.420 256, 118.944 256 C 118.467 256, 117.557 257.913, 116.921 260.250 M 151 257 C 151 257.550, 151.420 258, 151.934 258 C 152.447 258, 153.055 259.238, 153.284 260.750 C 153.619 262.962, 153.730 262.766, 153.850 259.750 C 153.959 257.017, 153.593 256, 152.500 256 C 151.675 256, 151 256.450, 151 257 M 42.083 258.392 C 42.313 258.607, 48.575 259.024, 56 259.319 C 64.844 259.669, 67.776 259.564, 64.500 259.015 C 59.460 258.169, 41.309 257.664, 42.083 258.392 M 73.920 261.750 C 75.051 263.262, 77.100 265.850, 78.473 267.500 L 80.969 270.500 95.235 270.567 C 107.701 270.625, 107.987 270.594, 97.500 270.322 C 90.900 270.151, 84.531 269.786, 83.348 269.511 C 82.164 269.236, 79.577 266.758, 77.599 264.005 C 75.622 261.252, 73.522 259, 72.934 259 C 72.345 259, 72.789 260.238, 73.920 261.750 M 86.199 259.744 C 90.984 259.927, 99.084 259.928, 104.199 259.746 C 109.315 259.564, 105.400 259.414, 95.500 259.413 C 85.600 259.412, 81.415 259.561, 86.199 259.744 M 203.147 260.936 C 195.461 263.789, 189.165 268.117, 182.305 275.261 C 174.131 283.773, 171.118 290, 175.174 290 C 175.755 290, 180.011 286.421, 184.633 282.046 C 195.872 271.407, 204.870 266.850, 215.899 266.212 C 220.424 265.950, 225.211 266.245, 227.223 266.909 C 232.282 268.578, 238.683 274.469, 242.190 280.682 C 246.171 287.736, 247.042 286.781, 243.356 279.402 C 239.671 272.024, 232.383 264.533, 226.302 261.872 C 219.378 258.842, 209.829 258.456, 203.147 260.936 M 135 262 C 132.270 264.730, 132.489 268.580, 135.550 271.641 C 137.542 273.633, 138.692 274.044, 140.800 273.518 C 144.890 272.497, 147 270.075, 147 266.402 C 147 260.578, 139.261 257.739, 135 262 M 123.975 263.565 C 122.561 267.284, 122.777 269.977, 124.543 270.655 C 126.641 271.460, 126.894 271.051, 127.632 265.671 C 128.172 261.728, 128.013 261, 126.611 261 C 125.698 261, 124.512 262.154, 123.975 263.565 M 44.750 263.723 C 46.538 263.945, 49.462 263.945, 51.250 263.723 C 53.038 263.502, 51.575 263.320, 48 263.320 C 44.425 263.320, 42.962 263.502, 44.750 263.723 M 58.762 264.707 C 60.006 264.946, 61.806 264.937, 62.762 264.687 C 63.718 264.437, 62.700 264.241, 60.500 264.252 C 58.300 264.263, 57.518 264.468, 58.762 264.707 M 66 265 C 66 265.550, 67.098 266, 68.441 266 C 69.784 266, 71.165 266.457, 71.510 267.016 C 72.434 268.511, 74.008 267.185, 73.349 265.468 C 72.714 263.811, 66 263.384, 66 265 M 82.658 265.250 C 83.252 266.218, 109.131 266.204, 110.655 265.235 C 111.291 264.831, 105.148 264.500, 97.004 264.500 C 88.861 264.500, 82.405 264.837, 82.658 265.250 M 475.827 266.652 C 474.102 267.131, 472 271.836, 472 275.217 C 472 276.570, 472.515 276.985, 473.750 276.627 C 474.712 276.348, 477.360 275.639, 479.634 275.052 C 485.019 273.663, 486.261 272.161, 484.675 268.961 C 483.460 266.512, 479.784 265.553, 475.827 266.652 M 26 268.095 C 26 268.593, 26.844 269, 27.875 269 C 28.906 269, 31.269 269.285, 33.125 269.632 C 35.386 270.056, 36.170 269.933, 35.500 269.259 C 34.182 267.933, 26 266.931, 26 268.095 M 44.083 268.369 C 44.313 268.572, 49 268.986, 54.500 269.290 C 60.247 269.607, 63.224 269.501, 61.500 269.039 C 58.531 268.245, 43.280 267.658, 44.083 268.369 M 73.500 269 C 73.148 269.569, 74.009 270, 75.500 270 C 76.991 270, 77.852 269.569, 77.500 269 C 77.160 268.450, 76.260 268, 75.500 268 C 74.740 268, 73.840 268.450, 73.500 269 M 464.675 273.833 C 464.340 277.041, 463.814 280.528, 463.506 281.583 C 463.198 282.637, 463.832 281.606, 464.915 279.290 C 465.998 276.975, 467.324 273.488, 467.861 271.540 C 468.715 268.448, 468.614 268, 467.062 268 C 465.632 268, 465.166 269.139, 464.675 273.833 M 65.500 270 C 65.840 270.550, 67.216 271, 68.559 271 C 69.902 271, 71 270.550, 71 270 C 71 269.450, 69.623 269, 67.941 269 C 66.156 269, 65.139 269.417, 65.500 270 M 47.750 273.662 C 48.438 273.940, 49.563 273.940, 50.250 273.662 C 50.938 273.385, 50.375 273.158, 49 273.158 C 47.625 273.158, 47.063 273.385, 47.750 273.662 M 57.250 274.689 C 58.212 274.941, 59.788 274.941, 60.750 274.689 C 61.712 274.438, 60.925 274.232, 59 274.232 C 57.075 274.232, 56.288 274.438, 57.250 274.689 M 75.500 275.961 C 92.747 277.281, 110 277.708, 110 276.814 C 110 276.366, 106.287 275.998, 101.750 275.996 C 97.213 275.994, 86.975 275.796, 79 275.556 C 64.765 275.127, 64.701 275.134, 75.500 275.961 M 349.107 285.750 C 348.574 287.813, 347.826 292.568, 347.445 296.319 C 346.928 301.404, 346.275 303.436, 344.876 304.309 C 339.832 307.460, 345.073 309.250, 351.490 306.569 C 355.929 304.714, 357.996 299.910, 358.728 289.750 L 359.286 282 354.681 282 C 350.200 282, 350.051 282.100, 349.107 285.750 M 330.500 287.021 C 323.900 288.004, 305.900 290.471, 290.500 292.504 C 275.100 294.537, 261.425 296.405, 260.111 296.654 C 257.782 297.096, 257.739 297.284, 258.386 304.245 C 258.751 308.171, 259.256 311.589, 259.507 311.841 C 259.759 312.093, 264.586 311.553, 270.233 310.641 C 275.880 309.730, 292.649 307.400, 307.498 305.464 C 322.346 303.528, 336.176 301.491, 338.231 300.938 C 342.686 299.738, 343.744 298.026, 344.617 290.605 C 345.140 286.148, 344.991 285.024, 343.888 285.118 C 343.124 285.182, 337.100 286.039, 330.500 287.021 M 36.118 286.906 C 34.081 288.196, 32.842 297.699, 34.100 302.372 C 35.336 306.963, 38.796 312.680, 42.044 315.500 C 43.796 317.020, 43.538 316.307, 40.972 312.526 C 36.532 305.985, 35.792 298.519, 38.890 291.515 C 40.051 288.892, 41 286.578, 41 286.373 C 41 285.655, 37.487 286.039, 36.118 286.906 M 413.750 293.080 C 412.787 293.641, 411.272 295.507, 410.383 297.227 C 408.893 300.108, 408.893 300.448, 410.383 301.538 C 411.272 302.188, 412 303.683, 412 304.860 C 412 306.476, 411.388 307, 409.500 307 C 408.125 307, 406.963 306.438, 406.919 305.750 C 406.874 305.063, 406.219 305.850, 405.464 307.500 C 403.588 311.597, 403.657 322.637, 405.595 328.324 C 408.776 337.662, 416.651 339.639, 423.648 332.856 C 432.327 324.444, 432.174 302.750, 423.381 295.030 C 419.829 291.911, 416.807 291.299, 413.750 293.080 M 99.315 294.060 C 93.437 296.285, 93.837 303.685, 100.432 314.746 L 105.055 322.500 101.806 322.830 C 100.019 323.011, 91.897 322.674, 83.758 322.080 C 63.845 320.627, 53.248 320.648, 54.738 322.138 C 55.947 323.347, 105.522 326.811, 106.574 325.760 C 106.896 325.438, 105.571 321.873, 103.631 317.837 C 99.149 308.518, 98.376 303.818, 100.371 298.039 C 101.218 295.586, 101.819 293.500, 101.706 293.406 C 101.593 293.311, 100.517 293.605, 99.315 294.060 M 21.500 296 C 24.308 297.207, 28.246 297.207, 27.500 296 C 27.160 295.450, 25.221 295.032, 23.191 295.070 C 20.216 295.127, 19.888 295.307, 21.500 296 M 47.543 295.931 C 47.226 296.443, 47.329 297.085, 47.770 297.358 C 49.032 298.138, 89.083 300.251, 89.760 299.573 C 91.399 297.935, 87.013 297.147, 70.500 296.113 C 48.836 294.757, 48.271 294.753, 47.543 295.931 M 252.735 303.250 C 253.654 307.162, 254.016 312.119, 253.703 316.500 C 253.239 322.993, 253.301 323.283, 254.556 320.500 C 257.073 314.921, 255.544 297, 252.551 297 C 251.526 297, 251.563 298.259, 252.735 303.250 M 418.485 300.024 C 418.137 300.588, 418.146 302.388, 418.505 304.024 C 419.048 306.497, 419.653 307, 422.079 307 C 425.335 307, 425.469 306.644, 423.902 302.149 C 422.810 299.017, 419.830 297.848, 418.485 300.024 M 26.500 302 C 26.840 302.550, 27.316 303, 27.559 303 C 27.802 303, 28 302.550, 28 302 C 28 301.450, 27.523 301, 26.941 301 C 26.359 301, 26.160 301.450, 26.500 302 M 22 302.645 C 22 304.297, 24.317 306.003, 26.450 305.921 C 27.892 305.866, 28.055 305.678, 27 305.291 C 26.175 304.987, 24.712 304.053, 23.750 303.215 C 22.788 302.376, 22 302.120, 22 302.645 M 119.417 307.385 C 123.951 308.116, 126.498 309.017, 126.810 310 C 128.129 314.150, 129.102 316.231, 129.525 315.808 C 129.783 315.550, 129.278 313.238, 128.403 310.670 L 126.812 306 119.656 306.135 L 112.500 306.270 119.417 307.385 M 199.495 306.941 C 198.392 307.388, 195.154 309.854, 192.301 312.420 C 185.904 318.171, 182.876 325.343, 182.713 335.127 C 182.393 354.477, 200.777 364.443, 214.742 352.489 C 220.879 347.236, 224.440 339.259, 224.305 331.068 C 224.130 320.477, 219.522 310.873, 212.998 307.499 C 209.900 305.897, 202.791 305.603, 199.495 306.941 M 329.500 307.515 C 321.518 309.025, 289.456 314.073, 271.241 316.687 C 263.990 317.728, 259.126 318.866, 259.334 319.473 C 259.528 320.038, 260.544 320.395, 261.593 320.267 C 267.777 319.512, 326.718 310.723, 332.764 309.655 C 340.459 308.295, 344.923 305.918, 339.450 306.095 C 337.827 306.148, 333.350 306.787, 329.500 307.515 M 133.511 310 C 134.362 314.006, 135.771 318, 136.332 318 C 137.010 318, 134.528 308.193, 133.633 307.333 C 133.145 306.864, 133.092 308.032, 133.511 310 M 210.750 312.861 C 209.238 314.404, 208 316.123, 208 316.680 C 208 318.455, 211.109 324, 212.105 324 C 214.439 324, 220 320.972, 220 319.701 C 220 318.512, 214.460 309.946, 213.744 310.028 C 213.610 310.043, 212.262 311.318, 210.750 312.861 M 117 312.845 C 117 314.191, 120.777 317.241, 121.958 316.847 C 123.448 316.351, 120.293 312, 118.443 312 C 117.649 312, 117 312.380, 117 312.845 M 417.500 314 C 417.160 314.550, 417.359 315, 417.941 315 C 418.523 315, 419 314.550, 419 314 C 419 313.450, 418.802 313, 418.559 313 C 418.316 313, 417.840 313.450, 417.500 314 M 189.589 317.077 C 186.460 320.795, 186.390 321.603, 189.067 323.036 C 193.054 325.169, 198.788 318.860, 195.960 315.452 C 194.136 313.254, 192.442 313.686, 189.589 317.077 M 368.500 318 C 366.850 318.420, 362.890 318.817, 359.700 318.882 C 356.511 318.947, 352.634 319.655, 351.086 320.456 C 349.537 321.256, 344.079 322.678, 338.957 323.615 C 331.384 325.001, 328.833 325.103, 325.307 324.160 C 320.426 322.854, 314.056 322.659, 312.399 323.765 C 311.794 324.169, 310.037 326.525, 308.494 329 C 306.951 331.475, 304.194 335.334, 302.367 337.576 L 299.045 341.651 326.272 341.851 C 341.248 341.961, 360.700 342.444, 369.500 342.924 C 378.300 343.405, 385.646 343.660, 385.825 343.491 C 386.004 343.322, 385.039 341.455, 383.681 339.342 C 381.312 335.654, 379.360 330.356, 377.017 321.250 C 375.843 316.688, 374.967 316.354, 368.500 318 M 405.015 320.750 C 405.040 325.189, 406.216 326.314, 409.341 324.891 C 412.583 323.413, 412.730 321.624, 409.777 319.557 C 406.493 317.256, 404.998 317.631, 405.015 320.750 M 424.250 319.220 C 421.586 320.505, 421.283 323.511, 423.724 324.447 C 425.677 325.197, 428 322.677, 428 319.809 C 428 317.765, 427.448 317.678, 424.250 319.220 M 203.500 325 C 203.840 325.550, 204.766 326, 205.559 326 C 206.352 326, 207 325.550, 207 325 C 207 324.450, 206.073 324, 204.941 324 C 203.809 324, 203.160 324.450, 203.500 325 M 413.607 330.582 C 412.686 332.981, 412.820 333.165, 415.240 332.820 C 418.116 332.409, 418.955 329, 416.180 329 C 415.099 329, 413.941 329.712, 413.607 330.582 M 195.543 330.931 C 194.860 332.036, 196.437 333.230, 197.361 332.306 C 198.311 331.355, 198.134 330, 197.059 330 C 196.541 330, 195.859 330.419, 195.543 330.931 M 253.352 333.628 C 252.720 333.887, 249.399 334.414, 245.973 334.799 L 239.742 335.500 237.428 340.750 L 235.113 346 239.764 346 C 244.979 346, 269.229 343.047, 269.992 342.319 C 270.262 342.061, 269.587 341.356, 268.492 340.751 C 267.396 340.147, 265.118 338.156, 263.429 336.326 C 260.492 333.145, 256.887 332.180, 253.352 333.628 M 65 335.491 C 65 337.470, 71.367 342.636, 75.479 343.993 C 77.487 344.656, 80.596 344.923, 82.388 344.587 C 85.436 344.015, 92 338.784, 92 336.927 C 92 335.801, 87.497 335.187, 75.250 334.644 C 67.265 334.289, 65 334.477, 65 335.491 M 114.600 335.733 C 114.217 336.116, 113.096 338.246, 112.110 340.465 C 109.850 345.549, 105.715 350.469, 100.572 354.195 L 96.573 357.092 100.537 356.552 C 102.716 356.256, 115.750 355.290, 129.500 354.406 C 143.250 353.522, 154.670 352.637, 154.879 352.438 C 155.087 352.239, 154.007 349.134, 152.479 345.538 C 149.857 339.370, 149.513 339, 146.401 339 C 143.012 339, 121.156 336.375, 117.398 335.517 C 116.243 335.252, 114.983 335.350, 114.600 335.733 M 185.606 337.299 C 183.919 338.532, 183.945 338.833, 186.114 343.299 C 187.371 345.884, 188.682 348, 189.028 348 C 189.374 348, 191.779 346.595, 194.371 344.877 L 199.086 341.755 195.863 338.877 C 192.400 335.786, 188.497 335.185, 185.606 337.299 M 209 338.264 C 207.625 338.885, 206.332 339.511, 206.126 339.654 C 205.920 339.798, 206.970 341.363, 208.459 343.133 C 210.216 345.222, 211.013 347.150, 210.731 348.629 C 210.343 350.656, 210.495 350.766, 212.115 349.632 C 214.674 347.840, 220 340.975, 220 339.469 C 220 336.919, 213.545 336.212, 209 338.264 M 201.500 347 C 201.840 347.550, 202.316 348, 202.559 348 C 202.802 348, 203 347.550, 203 347 C 203 346.450, 202.523 346, 201.941 346 C 201.359 346, 201.160 346.450, 201.500 347 M 201 353 C 199.667 353.862, 199.667 353.963, 201 353.914 C 201.825 353.884, 203.400 353.473, 204.500 353 L 206.500 352.141 204.500 352.086 C 203.400 352.055, 201.825 352.467, 201 353" stroke="none" fill="black" fill-rule="evenodd"/>
</svg>