<svg xmlns="http://www.w3.org/2000/svg" width="512" height="512" viewBox="0 0 512 512" version="1.1">
	<path d="M 298.500 112.973 C 296.850 113.395, 282.225 116.490, 266 119.850 C 249.775 123.211, 232.648 127.028, 227.940 128.333 C 213.645 132.296, 168.933 148.025, 161.861 151.578 C 152.975 156.042, 146.718 162.433, 139.187 174.736 C 135.741 180.366, 131.926 185.535, 130.710 186.224 C 129.495 186.913, 123.330 189.515, 117.010 192.006 C 104.521 196.930, 102.167 199.246, 108.450 200.425 C 110.614 200.831, 112 201.667, 112 202.568 C 112 203.380, 110.264 207.522, 108.143 211.772 C 102.854 222.368, 99.160 231.926, 97.715 238.759 L 96.500 244.500 96 233 L 95.500 221.500 92.375 221.196 C 86.722 220.646, 86 222.474, 86 237.343 L 86 250.543 76.750 253.341 C 57.164 259.267, 45.010 267.590, 37.318 280.343 C 35.276 283.729, 31.855 288.075, 29.715 290 C 26.771 292.649, 25.619 294.612, 24.976 298.076 C 23.923 303.739, 25.089 312.961, 27.280 316.305 C 29.255 319.319, 29.246 319.317, 60 322.095 C 91.739 324.962, 110.440 324.997, 137.267 322.238 C 162.730 319.620, 160.670 319.730, 159.342 321.058 C 158.287 322.113, 124.137 326.482, 108 327.627 C 102.209 328.038, 87.246 327.199, 61.056 324.995 L 22.613 321.760 20.691 324.130 C 17.900 327.573, 18.771 337.969, 22.488 345.564 C 25.935 352.610, 27.449 353.294, 46.817 356.557 C 54.893 357.917, 61.798 359.136, 62.162 359.265 C 62.526 359.394, 64.400 361.849, 66.325 364.721 L 69.826 369.942 66.663 370.421 C 64.923 370.684, 57.425 371.612, 50 372.483 C 42.575 373.353, 34.363 374.318, 31.751 374.627 C 26.484 375.249, 25.023 376.413, 27.722 377.838 C 29.812 378.941, 53.423 384.162, 85 390.505 C 97.375 392.991, 115.049 396.641, 124.275 398.617 L 141.050 402.210 163.275 399.118 C 185.978 395.960, 192.825 394.752, 262.500 381.612 C 349.252 365.251, 449.686 347.339, 473.763 343.935 C 478.308 343.292, 482.272 342.369, 482.572 341.883 C 482.880 341.385, 475.204 341, 464.952 341 C 448.040 341, 446.836 340.879, 447.514 339.250 C 447.915 338.287, 448.455 335.250, 448.714 332.500 C 449.065 328.780, 449.817 326.967, 451.650 325.417 C 453.984 323.444, 454.052 323.092, 452.945 318.698 C 451.641 313.515, 450.630 312.349, 447.010 311.846 C 445.615 311.652, 444.374 310.730, 444.187 309.750 C 443.898 308.235, 444.690 308, 450.098 308 C 454.126 308, 456.907 308.510, 457.932 309.438 C 459.037 310.439, 463.430 311.094, 472.363 311.590 C 484.392 312.258, 485.183 312.190, 484.853 310.508 C 484.114 306.747, 479.575 304.736, 470.394 304.103 C 465.435 303.760, 461.502 303.024, 461.296 302.398 C 460.930 301.290, 470.142 300.022, 478.656 300.007 L 482.812 300 483.536 294.750 C 483.934 291.863, 484.089 261.783, 483.880 227.907 C 483.584 179.876, 483.773 165.984, 484.741 164.815 C 485.424 163.991, 485.692 163.025, 485.336 162.669 C 484.980 162.313, 484.415 160.330, 484.081 158.261 C 483.590 155.221, 482.997 154.434, 480.987 154.156 C 479.619 153.967, 445.425 145.569, 405 135.495 C 305.743 110.760, 306.510 110.922, 298.500 112.973 M 310.398 128.406 C 309.439 130.905, 310.465 297.457, 311.441 297.750 C 312.255 297.994, 312.273 127.939, 311.459 127.126 C 311.232 126.899, 310.755 127.475, 310.398 128.406 M 323.769 204.185 C 323.917 245.537, 324.264 279.597, 324.540 279.874 C 324.817 280.150, 339.321 279.835, 356.772 279.173 C 374.222 278.512, 403.800 277.734, 422.500 277.446 C 441.200 277.158, 459.200 276.691, 462.500 276.409 L 468.500 275.895 468.233 219.231 C 468.087 188.066, 467.595 162.195, 467.141 161.741 C 466.497 161.097, 326.202 129, 324.029 129 C 323.738 129, 323.621 162.833, 323.769 204.185 M 274.500 131.561 C 271.200 132.309, 259.950 134.715, 249.500 136.908 L 230.500 140.896 241.500 140.963 C 247.550 140.999, 255.317 141.694, 258.760 142.506 C 272.182 145.670, 283.205 153.896, 286.980 163.565 L 288.906 168.500 288.953 150.905 C 289.013 128.446, 288.901 128.296, 274.500 131.561 M 197 152.539 C 171.533 156.085, 159.527 159.080, 152.696 163.589 C 149.323 165.815, 140.395 177.728, 141.369 178.702 C 141.576 178.910, 149.116 177.454, 158.123 175.466 C 167.130 173.479, 179.450 171.134, 185.500 170.255 C 197.415 168.525, 194.856 168.396, 242.320 173.121 C 253.771 174.261, 263.379 174.954, 263.672 174.661 C 264.484 173.849, 259.177 162.820, 256.692 160.156 C 253.729 156.979, 248.617 154.496, 242 153.019 C 233.461 151.114, 209.102 150.854, 197 152.539 M 265.768 156.458 C 269.733 159.795, 273.732 169.108, 275.170 178.354 C 276.294 185.585, 276.498 186.001, 278.929 186.014 C 280.343 186.021, 282.512 186.299, 283.750 186.630 C 285.702 187.153, 285.998 186.853, 285.988 184.367 C 285.958 177.147, 281.264 164.911, 276.727 160.223 C 274.217 157.630, 266.351 154, 263.242 154 C 263.024 154, 264.161 155.106, 265.768 156.458 M 475.468 220.500 C 475.468 251.850, 475.595 264.530, 475.750 248.679 C 475.904 232.827, 475.904 207.177, 475.749 191.679 C 475.594 176.180, 475.468 189.150, 475.468 220.500 M 182.500 178.543 C 179.706 179.897, 180.118 179.960, 188.500 179.462 C 193.450 179.168, 199.750 179.393, 202.500 179.962 C 205.250 180.532, 212.900 181.185, 219.500 181.414 C 226.100 181.644, 238.198 182.769, 246.385 183.916 C 263.370 186.294, 266.889 186.489, 265.366 184.966 C 264.151 183.751, 244.154 180.535, 225 178.474 C 207.223 176.561, 186.522 176.595, 182.500 178.543 M 214.748 196.250 C 215.248 208.967, 215.745 210.315, 215.884 199.332 C 215.948 194.289, 216.273 189.452, 216.607 188.582 C 216.984 187.599, 216.678 187, 215.799 187 C 214.655 187, 214.454 188.770, 214.748 196.250 M 222 187.960 C 222 188.353, 226.893 189.205, 232.873 189.853 C 247.818 191.474, 253.585 193.296, 255.501 197.002 C 257.999 201.832, 260.304 241.439, 258.379 246.455 C 258.037 247.346, 256.422 248.765, 254.789 249.609 C 249.509 252.340, 209.699 265, 206.393 265 L 203.189 265 203.557 277.178 L 203.926 289.356 208.406 293.928 C 210.870 296.443, 213.375 299.801, 213.972 301.392 L 215.058 304.284 221.779 303.629 C 225.476 303.268, 236.600 302.302, 246.500 301.480 C 267.531 299.736, 268.643 299.534, 269.874 297.238 C 270.729 295.644, 270.025 295.500, 261.408 295.500 C 255.827 295.500, 251.999 295.094, 251.983 294.500 C 251.942 292.959, 270.233 291.759, 271.150 293.243 C 272.369 295.216, 270.992 258.237, 269.464 248 C 268.685 242.775, 267.561 230.020, 266.967 219.655 C 266.372 209.290, 265.348 199.165, 264.690 197.155 C 263.623 193.892, 262.958 193.367, 258.497 192.258 C 249.375 189.991, 222 186.767, 222 187.960 M 206.134 190.111 C 205.627 191.425, 203.334 197.196, 201.040 202.935 C 196.030 215.467, 188.432 238.041, 187.470 243.250 C 186.811 246.820, 186.906 247, 189.448 247 C 190.999 247, 191.855 246.575, 191.491 245.986 C 190.062 243.672, 193.144 232.226, 202.207 206.199 C 205.520 196.683, 207.967 188.634, 207.644 188.310 C 207.320 187.987, 206.641 188.798, 206.134 190.111 M 277.008 193.750 C 277.013 194.713, 277.656 200.450, 278.437 206.500 C 282.456 237.613, 283.342 272.603, 280.550 290 C 279.800 294.675, 279.302 298.620, 279.442 298.766 C 279.583 298.912, 281.425 298.673, 283.536 298.234 C 286.597 297.598, 287.564 296.837, 288.316 294.468 C 290.906 286.318, 289.841 201.972, 287.055 194.646 C 286.172 192.323, 285.498 192, 281.525 192 C 277.879 192, 277.002 192.340, 277.008 193.750 M 208.079 196.583 C 208.127 197.748, 208.364 197.985, 208.683 197.188 C 208.972 196.466, 208.936 195.603, 208.604 195.271 C 208.272 194.939, 208.036 195.529, 208.079 196.583 M 243.250 204.662 C 242.328 205.034, 242 209.086, 242 220.083 L 242 235 245.300 235 C 247.115 235, 249.110 234.490, 249.732 233.868 C 251.058 232.542, 250.289 208.589, 248.830 205.750 C 247.956 204.051, 245.805 203.631, 243.250 204.662 M 208.671 208.734 C 207.968 209.885, 199.341 232.198, 198.708 234.500 C 198.406 235.600, 197.861 237.533, 197.498 238.795 C 196.901 240.866, 197.113 241.045, 199.668 240.627 C 201.226 240.373, 204.412 240.127, 206.750 240.082 L 211 240 211 224.559 C 211 211.023, 210.276 206.103, 208.671 208.734 M 215.945 211.750 C 215.915 212.162, 215.803 219.925, 215.695 229 L 215.500 245.500 207.248 245.500 C 202.710 245.500, 198.998 245.838, 198.998 246.250 C 198.999 246.662, 203.050 247, 208 247 L 217 247 217 229 C 217 219.100, 216.775 211, 216.500 211 C 216.225 211, 215.975 211.338, 215.945 211.750 M 121.645 214.766 C 121.384 215.187, 121.032 221.371, 120.863 228.507 C 120.574 240.609, 120.682 241.508, 122.461 241.850 C 123.510 242.052, 124.979 241.381, 125.727 240.359 C 126.849 238.824, 128.863 238.413, 137.293 238 L 147.500 237.500 147.500 228.500 L 147.500 219.500 140.389 219.818 L 133.277 220.137 132.664 217.068 C 132.078 214.138, 131.826 214, 127.084 214 C 124.353 214, 121.905 214.345, 121.645 214.766 M 110.681 222.750 C 109.810 225.912, 108.793 231.313, 108.420 234.750 L 107.742 241 110.871 241 L 114 241 114 235.147 C 114 231.927, 114.289 226.527, 114.642 223.147 C 115.176 218.047, 115.028 217, 113.774 217 C 112.785 217, 111.717 218.986, 110.681 222.750 M 90.750 225.574 C 90.338 225.992, 90 228.598, 90 231.367 C 90 234.914, 90.313 236.087, 91.060 235.340 C 91.644 234.756, 91.981 232.149, 91.810 229.547 C 91.640 226.944, 91.162 225.156, 90.750 225.574 M 255.343 233.500 C 255.346 237.900, 255.522 239.576, 255.733 237.224 C 255.945 234.872, 255.942 231.272, 255.727 229.224 C 255.512 227.176, 255.339 229.100, 255.343 233.500 M 158.500 242.055 C 151.350 242.449, 143.786 242.823, 141.691 242.886 C 139.428 242.954, 138.133 243.406, 138.500 244.001 C 138.897 244.642, 145.468 244.799, 156.809 244.437 C 175.926 243.827, 179 243.487, 179 241.981 C 179 240.941, 178.701 240.942, 158.500 242.055 M 252.500 243.003 C 251.400 243.480, 245.325 245.300, 239 247.047 C 222.055 251.727, 217 253.787, 217 256.013 C 217 257.041, 217.338 258.089, 217.750 258.341 C 218.566 258.841, 245.888 249.144, 250.759 246.625 C 252.408 245.772, 254.023 244.382, 254.347 243.537 C 254.672 242.692, 254.839 242.030, 254.719 242.068 C 254.598 242.105, 253.600 242.526, 252.500 243.003 M 99.750 246.728 C 97.688 246.944, 96 247.595, 96 248.174 C 96 248.837, 97.573 249.012, 100.250 248.647 C 112.242 247.011, 121.226 246.747, 122.005 248.007 C 122.882 249.426, 126 248.665, 126 247.031 C 126 246.033, 108.344 245.830, 99.750 246.728 M 143 252.599 C 109.409 254.985, 80.949 264.496, 73.284 275.898 C 69.386 281.697, 69.791 282, 81.435 282 C 87.174 282, 92.980 282.422, 94.337 282.938 C 97.759 284.239, 98.836 288.449, 99.179 301.871 L 99.470 313.242 87.485 313.073 C 80.893 312.980, 68.975 312.485, 61 311.972 C 41.952 310.749, 30 310.752, 30 311.981 C 30 313.486, 32.894 313.846, 55 315.090 C 101.601 317.711, 162.461 315.937, 167.210 311.818 C 170.121 309.294, 176.812 307.537, 193.750 304.849 C 203.559 303.293, 208 302.186, 208 301.297 C 208 299, 200.999 292.178, 196.317 289.911 C 192.108 287.874, 190.838 287.755, 179.680 288.355 C 168.354 288.964, 149.932 290.905, 149.148 291.571 C 148.954 291.736, 149.517 292.900, 150.398 294.158 C 152.506 297.168, 152.627 309.231, 150.569 311.288 C 148.981 312.876, 135.480 313.868, 113.750 313.993 L 101 314.067 101.006 303.283 C 101.009 297.353, 101.496 290.753, 102.089 288.618 C 103.594 283.198, 110.831 275.850, 118.270 272.188 C 125.654 268.553, 144.486 261.699, 153.274 259.447 C 156.698 258.570, 160.512 257.201, 161.750 256.403 C 164.124 254.874, 164.880 250.900, 162.750 251.142 C 162.063 251.221, 153.175 251.876, 143 252.599 M 168 252.941 C 168 255.666, 168.677 255.807, 175.925 254.584 C 185.308 253.001, 185.117 251, 175.583 251 C 168.744 251, 168 251.190, 168 252.941 M 85.431 257.450 C 66.993 261.230, 57.174 265.138, 50.132 271.500 C 46.698 274.602, 42.086 282.419, 43.094 283.427 C 43.318 283.651, 48.327 283.327, 54.226 282.706 C 64.478 281.629, 64.992 281.463, 65.869 278.945 C 68.294 271.990, 77.814 264.511, 91.500 258.810 C 101.827 254.509, 100.848 254.289, 85.431 257.450 M 249.800 261.028 C 247.215 261.463, 244.628 262.112, 244.050 262.469 C 242.915 263.170, 242.618 269.841, 243.607 272.418 C 244.816 275.569, 261.138 273.948, 264.097 270.383 C 265.605 268.565, 265.460 263.259, 263.848 261.316 C 262.657 259.882, 257.255 259.771, 249.800 261.028 M 162.406 269.985 C 135.799 276.351, 121.952 281.770, 113.681 289.050 C 111.106 291.316, 109 293.519, 109 293.946 C 109 294.373, 113.387 293.661, 118.750 292.363 C 124.112 291.065, 129.567 290.003, 130.871 290.002 C 132.175 290.001, 138.925 288.669, 145.871 287.041 C 152.817 285.414, 164.125 283.501, 171 282.791 L 183.500 281.500 183.806 277.816 C 184.258 272.385, 182.300 265.985, 180.211 266.067 C 179.270 266.104, 171.258 267.867, 162.406 269.985 M 192.142 266.720 C 190.104 267.107, 189.866 267.581, 190.392 270.209 C 190.726 271.881, 191 275.219, 191 277.625 L 191 282 195.636 282 L 200.272 282 199.636 277.360 C 199.286 274.809, 199 271.209, 199 269.360 C 199 265.810, 198.318 265.548, 192.142 266.720 M 247 267 C 247 267.550, 248.548 268, 250.441 268 C 252.334 268, 254.160 267.550, 254.500 267 C 254.873 266.396, 253.510 266, 251.059 266 C 248.827 266, 247 266.450, 247 267 M 462 282.681 C 458.425 282.843, 441.100 283.420, 423.500 283.962 C 389.881 284.998, 332.788 287.744, 327.250 288.593 C 324.583 289.001, 324 289.539, 324 291.591 C 324 293.848, 324.315 294.042, 327.250 293.584 C 329.038 293.305, 338.375 292.807, 348 292.478 C 391.596 290.983, 472.450 284.950, 474.350 283.050 C 475.083 282.317, 474.360 282.058, 471.950 282.193 C 470.053 282.299, 465.575 282.518, 462 282.681 M 50.500 290.735 C 48.300 290.954, 46.050 291.620, 45.500 292.214 C 44.794 292.976, 45.089 293.064, 46.500 292.512 C 47.600 292.082, 58.175 291.417, 70 291.036 L 91.500 290.342 73 290.339 C 62.825 290.337, 52.700 290.516, 50.500 290.735 M 56.784 294.738 C 59.689 294.941, 64.189 294.939, 66.784 294.734 C 69.378 294.528, 67 294.363, 61.500 294.365 C 56 294.368, 53.878 294.536, 56.784 294.738 M 46.269 295.693 C 47.242 295.947, 48.592 295.930, 49.269 295.656 C 49.946 295.382, 49.150 295.175, 47.500 295.195 C 45.850 295.215, 45.296 295.439, 46.269 295.693 M 134.999 296.250 C 134.998 297.140, 136.581 297.401, 140.499 297.157 C 147.646 296.712, 147.648 295, 140.500 295 C 136.767 295, 135 295.402, 134.999 296.250 M 36.320 302 C 36.320 305.575, 36.502 307.038, 36.723 305.250 C 36.945 303.462, 36.945 300.538, 36.723 298.750 C 36.502 296.962, 36.320 298.425, 36.320 302 M 67.299 298.745 C 72.139 298.929, 79.789 298.928, 84.299 298.743 C 88.810 298.558, 84.850 298.408, 75.500 298.409 C 66.150 298.410, 62.460 298.562, 67.299 298.745 M 45.768 299.725 C 47.565 299.947, 50.265 299.943, 51.768 299.715 C 53.271 299.486, 51.800 299.304, 48.500 299.310 C 45.200 299.315, 43.971 299.502, 45.768 299.725 M 139.250 299.662 C 138.497 299.966, 138.006 302.023, 138.015 304.833 C 138.026 308.215, 138.298 309.087, 139 308 C 139.533 307.175, 139.976 305.262, 139.985 303.750 C 139.996 301.694, 140.493 301, 141.952 301 C 143.540 301, 143.834 301.561, 143.525 304 C 143.316 305.650, 143.563 307, 144.073 307 C 144.583 307, 145 305.200, 145 303 C 145 299.495, 144.721 299.010, 142.750 299.079 C 141.512 299.122, 139.938 299.385, 139.250 299.662 M 30 301 C 30 301.550, 30.450 302, 31 302 C 31.550 302, 32 301.550, 32 301 C 32 300.450, 31.550 300, 31 300 C 30.450 300, 30 300.450, 30 301 M 122.200 301.200 C 120.412 302.988, 120.745 305.745, 123.023 308.023 C 125.316 310.316, 128.131 309.492, 130.012 305.977 C 132.338 301.631, 125.779 297.621, 122.200 301.200 M 44.762 302.707 C 46.006 302.946, 47.806 302.937, 48.762 302.687 C 49.718 302.437, 48.700 302.241, 46.500 302.252 C 44.300 302.263, 43.518 302.468, 44.762 302.707 M 124.011 303.487 C 122.515 305.290, 123.369 308, 125.433 308 C 127.183 308, 129.369 304.406, 128.487 302.979 C 127.597 301.540, 125.422 301.786, 124.011 303.487 M 75.250 303.739 C 78.412 303.937, 83.587 303.937, 86.750 303.739 C 89.912 303.541, 87.325 303.378, 81 303.378 C 74.675 303.378, 72.087 303.541, 75.250 303.739 M 60.195 307.746 C 66.077 307.922, 75.977 307.923, 82.195 307.747 C 88.413 307.571, 83.600 307.427, 71.500 307.426 C 59.400 307.425, 54.313 307.569, 60.195 307.746 M 209.032 310.790 C 209.014 311.499, 209.900 313.844, 211 316 C 212.100 318.157, 214.168 324.551, 215.595 330.210 C 218.549 341.922, 219.548 343.871, 218.686 336.237 C 217.709 327.589, 213.893 314.983, 211.394 312.146 C 210.112 310.691, 209.049 310.080, 209.032 310.790 M 391.833 316.279 C 386.603 321.126, 385.551 332.359, 389.564 340.488 C 392.892 347.228, 400.110 347.222, 403.496 340.476 C 406.407 334.678, 406.352 321.301, 403.401 317.327 C 400.531 313.463, 395.376 312.996, 391.833 316.279 M 429.073 316.635 C 426.373 320.067, 426.330 327.928, 428.980 333.765 C 431.100 338.435, 432.765 339.527, 436.383 338.619 C 443.179 336.913, 444.048 319.272, 437.558 314.765 C 435.212 313.136, 431.115 314.038, 429.073 316.635 M 430.073 317.635 C 426.761 321.845, 427.546 331.662, 431.400 334.235 C 433.415 335.580, 435.127 335.027, 438.077 332.077 C 442.021 328.132, 442.245 321.154, 438.545 317.455 C 435.377 314.286, 432.661 314.344, 430.073 317.635 M 275.131 316.732 C 271.844 317.134, 271.778 317.234, 272.424 320.822 C 272.789 322.845, 273.703 328.698, 274.456 333.829 C 275.208 338.959, 276.092 343.426, 276.420 343.754 C 276.959 344.292, 288.835 342.498, 289.565 341.768 C 289.733 341.601, 290.012 336.597, 290.185 330.649 C 290.486 320.305, 290.397 319.750, 288.139 317.917 C 285.824 316.037, 282.951 315.776, 275.131 316.732 M 393.117 317.631 C 388.587 320.803, 386.756 329.132, 389.105 335.872 C 390.686 340.408, 392.913 341.282, 396.190 338.653 C 400.557 335.150, 402.399 327.482, 399.965 322.934 C 398.798 320.754, 396.002 320.398, 394.200 322.200 C 393.418 322.982, 393 323.024, 393 322.322 C 393 320.474, 395.814 318.806, 397.844 319.451 C 402.557 320.946, 403.237 333.483, 398.922 339.319 C 396.961 341.972, 396.941 342.159, 398.652 341.842 C 399.668 341.654, 401.542 339.475, 402.815 337 C 404.647 333.438, 405.051 331.304, 404.752 326.764 C 404.155 317.697, 398.906 313.576, 393.117 317.631 M 247.711 320.521 C 229.972 322.274, 225.605 323.005, 226.647 324.047 C 227.630 325.030, 260.242 321.470, 263.500 320.023 C 265.323 319.214, 265.279 319.141, 263 319.196 C 261.625 319.230, 254.745 319.826, 247.711 320.521 M 432.500 320 C 432.160 320.550, 432.646 321, 433.581 321 C 434.515 321, 435.877 321.788, 436.608 322.750 C 437.726 324.223, 437.941 324.254, 437.968 322.950 C 438.031 319.913, 433.923 317.697, 432.500 320 M 264 325.561 C 263.175 325.742, 254.946 326.889, 245.714 328.109 C 234.695 329.566, 229.266 330.666, 229.913 331.313 C 231.546 332.946, 266 327.805, 266 325.929 C 266 325.418, 265.887 325.052, 265.750 325.116 C 265.613 325.180, 264.825 325.380, 264 325.561 M 182.465 327.952 C 181.346 328.405, 179.829 329.502, 179.093 330.388 C 177.920 331.802, 178.082 332, 180.410 332 C 187.324 332, 195.959 339.422, 198.042 347.155 C 200.168 355.050, 195.873 367.809, 189.366 372.927 C 186.170 375.441, 179.442 375.698, 176.204 373.430 C 174.972 372.567, 172.798 369.562, 171.374 366.752 C 167.872 359.841, 168.273 351.272, 172.287 347.259 C 173.746 345.800, 175.234 344.901, 175.594 345.261 C 175.955 345.621, 176.552 348.836, 176.921 352.404 C 177.760 360.509, 179.859 363.226, 184.949 362.799 C 190.050 362.370, 192.292 357.809, 191.668 349.130 C 190.889 338.282, 185.967 334.213, 177.524 337.438 C 174.229 338.696, 172.113 340.384, 170.196 343.284 C 167.737 347.003, 167.501 348.202, 167.513 356.931 C 167.523 364.917, 167.898 367.201, 169.776 370.735 C 173.242 377.260, 179.535 380.461, 185.681 378.825 C 189.831 377.721, 195.449 371.089, 197.992 364.292 C 200.279 358.179, 200.732 345.484, 198.862 339.899 C 197.166 334.834, 193.162 329.966, 189.400 328.394 C 185.642 326.824, 185.301 326.802, 182.465 327.952 M 24 328.920 C 24 330.028, 31.534 332.606, 38.713 333.955 C 55.281 337.068, 76.691 338.725, 102 338.853 C 133.692 339.013, 135.773 339.246, 136.647 342.729 C 136.999 344.132, 136.875 346.455, 136.371 347.890 L 135.454 350.500 120.977 350.787 C 102.704 351.149, 102.206 351.031, 101.810 346.246 C 101.564 343.270, 101.089 342.500, 99.500 342.500 C 97.778 342.500, 97.431 343.333, 97 348.500 L 96.500 354.500 91.741 354.805 C 86.090 355.167, 46.110 349.791, 34.025 347.043 C 29.364 345.983, 25.357 345.310, 25.121 345.546 C 24.884 345.782, 26.787 346.903, 29.348 348.036 C 36.257 351.092, 72.610 356.023, 114.714 359.614 C 137.550 361.562, 140.623 361.189, 145.861 355.830 C 149.008 352.612, 151.403 346.668, 152.442 339.500 C 153.353 333.207, 152.795 332.922, 141.965 334.153 C 129.485 335.573, 81.936 335.992, 65.500 334.827 C 50.266 333.748, 42.869 332.594, 34.145 329.936 C 27.194 327.819, 24 327.499, 24 328.920 M 349.455 328.765 C 348.881 329.169, 347.447 331.164, 346.270 333.198 L 344.128 336.897 348.314 337.413 C 350.616 337.697, 355.117 338.206, 358.315 338.545 L 364.130 339.160 363.815 335.330 C 363.534 331.917, 363.178 331.463, 360.546 331.164 C 358.921 330.979, 356.684 330.192, 355.574 329.414 C 353.364 327.866, 351.078 327.624, 349.455 328.765 M 222.677 340.215 C 222.354 345.872, 221.791 351.738, 221.428 353.250 C 220.677 356.374, 222.822 357.125, 225 354.500 C 225.685 353.675, 227.278 353, 228.541 353 C 233.469 353, 233.897 352.328, 232.565 346.684 C 231.125 340.584, 228.011 334.222, 225.239 331.715 C 223.289 329.952, 223.258 330.054, 222.677 340.215 M 259.500 331.518 C 256.200 332.240, 249 333.389, 243.500 334.072 C 238 334.754, 233.369 335.411, 233.208 335.532 C 232.958 335.719, 235.923 343.953, 236.546 344.800 C 237.175 345.656, 269.999 339.587, 269.994 338.615 C 269.980 335.714, 267.775 330.011, 266.703 330.102 C 266.041 330.159, 262.800 330.796, 259.500 331.518 M 26 334.918 C 26 336.970, 27.297 339, 28.607 339 C 30.525 339, 30.369 335.356, 28.418 334.607 C 26.308 333.797, 26 333.837, 26 334.918 M 34.272 339 C 34.272 341.475, 34.467 342.488, 34.706 341.250 C 34.944 340.012, 34.944 337.988, 34.706 336.750 C 34.467 335.512, 34.272 336.525, 34.272 339 M 107 344.500 C 107 345.746, 108.944 346, 118.500 346 C 128.056 346, 130 345.746, 130 344.500 C 130 343.254, 128.056 343, 118.500 343 C 108.944 343, 107 343.254, 107 344.500 M 266.500 345.229 C 249.488 347.689, 236.440 350.163, 235.525 351.102 C 234.810 351.837, 235.558 351.979, 238 351.571 C 239.925 351.249, 247.575 350.083, 255 348.979 C 262.425 347.874, 269.832 346.612, 271.460 346.174 C 276.219 344.893, 273.029 344.285, 266.500 345.229 M 255.012 356.623 C 245.943 357.972, 238.091 359.509, 237.562 360.038 C 236.946 360.654, 237.662 361.002, 239.550 361.004 C 244.302 361.011, 279.357 355.869, 281 354.924 C 283.768 353.331, 271.925 354.106, 255.012 356.623" stroke="none" fill="black" fill-rule="evenodd"/>
</svg>