<svg xmlns="http://www.w3.org/2000/svg" width="512" height="512" viewBox="0 0 512 512" version="1.1">
	<path d="M 350.500 59.516 C 342.759 63.687, 337.651 71.645, 338.159 78.743 L 338.500 83.500 326.500 91.593 C 319.900 96.045, 314.542 100.320, 314.593 101.093 C 314.644 101.867, 314.993 104.840, 315.370 107.699 L 316.055 112.899 312.528 113.561 C 309.127 114.199, 309 114.381, 309 118.611 L 309 123 304.549 123 C 302.101 123, 297.838 123.485, 295.075 124.077 C 290.481 125.063, 289.966 125.463, 289.056 128.758 C 288.034 132.459, 280.560 141, 278.343 141 C 277.660 141, 275.931 139.465, 274.499 137.588 C 270.674 132.573, 265.739 130.987, 254.230 131.073 C 238.666 131.190, 234.084 132.137, 230.956 135.883 L 228.291 139.076 222.918 135.538 C 219.963 133.592, 217.194 132, 216.764 132 C 216.334 132, 216.273 129.528, 216.628 126.506 L 217.274 121.012 213.387 119.360 C 211.249 118.451, 207.363 117.491, 204.750 117.226 L 200 116.746 200 110.421 L 200 104.097 192.750 99.445 C 188.763 96.886, 184.262 93.630, 182.750 92.209 C 179.958 89.586, 179.185 86.622, 181 85.500 C 183.791 83.775, 181.040 75.906, 175.638 70.165 C 169.209 63.331, 162.275 62.008, 157.751 66.750 C 154.147 70.528, 153 74.057, 153 81.369 C 153 86.509, 153.500 88.392, 155.835 92.054 C 157.396 94.501, 160.473 97.501, 162.678 98.726 L 166.685 100.951 171.377 97.976 C 173.958 96.339, 176.314 95, 176.613 95 C 176.912 95, 181.621 97.744, 187.078 101.097 C 195.633 106.354, 196.998 107.560, 196.986 109.847 C 196.957 115.452, 195.979 117, 192.465 117 C 187.925 117, 186 117.893, 186 120 C 186 122.111, 184.074 123, 179.500 123 C 173.916 123, 173 123.775, 173 128.500 C 173 133.517, 172.240 134, 164.352 134 C 158.107 134, 155 135.274, 155 137.835 C 155 141.894, 161.703 143.853, 162.689 140.082 C 163.112 138.464, 164.469 138.058, 171.345 137.488 C 184.249 136.418, 186.602 137.387, 174.697 138.867 C 165.621 139.996, 163.946 140.473, 164.218 141.855 C 164.491 143.245, 165.707 143.446, 172.051 143.154 C 179.303 142.820, 179.608 142.899, 180.976 145.456 C 182.377 148.072, 182.484 148.095, 190.189 147.423 C 195.860 146.928, 198.401 147.088, 199.510 148.008 C 200.606 148.918, 203.080 149.087, 208.335 148.611 L 215.637 147.949 218.904 156.725 C 220.701 161.551, 223.032 166.717, 224.083 168.205 L 225.994 170.911 222.747 171.402 C 220.961 171.672, 217.162 172.118, 214.304 172.393 C 205.481 173.242, 203.559 174.820, 195.593 187.750 L 192.975 192 175.859 192 L 158.742 192 154.868 195.500 C 152.184 197.925, 150.036 199, 147.873 199 C 141.857 199, 119.694 204.089, 110.872 207.496 C 100.773 211.396, 93.083 215.620, 92.283 217.706 C 91.984 218.483, 92.998 220.432, 94.535 222.036 L 97.329 224.953 94.804 226.940 C 93.414 228.033, 91.258 231.297, 90.012 234.194 C 88.064 238.723, 87.834 240.508, 88.376 246.915 C 89.733 262.970, 90.912 267.172, 95.176 271.136 C 97.326 273.136, 105.929 278.239, 114.293 282.478 C 122.657 286.716, 130.256 290.930, 131.181 291.842 C 132.299 292.945, 132.678 294.421, 132.314 296.250 C 131.665 299.511, 131.082 299.593, 126.205 297.104 C 118.687 293.269, 114.547 292.738, 106.696 294.604 C 94.087 297.599, 86.005 302.757, 80.016 311.631 C 78.372 314.067, 77.084 317.059, 77.153 318.280 C 77.328 321.354, 73.396 329.911, 71.469 330.650 C 70.598 330.985, 70.116 331.861, 70.399 332.597 C 70.681 333.333, 70.477 334.205, 69.945 334.534 C 69.413 334.862, 68.944 336.339, 68.902 337.816 C 68.565 349.629, 68.649 352.710, 69.346 354.160 C 69.921 355.355, 69.600 355.992, 68.197 356.438 C 66.696 356.914, 66.128 358.255, 65.723 362.278 C 65.434 365.150, 65.584 367.909, 66.057 368.409 C 66.531 368.909, 66.660 371.204, 66.344 373.509 C 65.998 376.029, 66.264 378.626, 67.011 380.021 C 68.043 381.949, 67.993 382.532, 66.717 383.465 C 65.462 384.382, 65.349 385.495, 66.100 389.544 C 67.531 397.260, 70.056 404.287, 72.272 406.721 C 73.837 408.439, 74.035 409.253, 73.148 410.322 C 72.255 411.398, 72.630 412.564, 74.843 415.601 C 83.976 428.133, 97.344 435, 112.605 435 C 120.515 435, 131.571 431.670, 133.091 428.830 C 133.876 427.363, 134.438 427.091, 134.956 427.929 C 135.462 428.747, 137.521 427.462, 141.432 423.888 C 145.938 419.770, 147.071 418.150, 146.722 416.324 C 146.426 414.779, 146.751 414, 147.690 414 C 148.466 414, 149.799 412.313, 150.651 410.250 C 151.502 408.188, 152.884 405.729, 153.721 404.787 C 154.568 403.834, 154.956 402.328, 154.597 401.393 C 154.242 400.468, 154.560 398.988, 155.303 398.105 C 156.616 396.547, 159.519 388.173, 159.211 386.836 C 159.126 386.471, 159.631 382.196, 160.333 377.337 L 161.608 368.502 173.554 364.804 C 187.122 360.603, 189.598 360.329, 192.926 362.660 C 194.919 364.057, 199.603 364.442, 222.389 365.083 C 250.686 365.879, 252.660 365.653, 251.424 361.760 C 250.891 360.082, 251.135 359.908, 253.128 360.541 C 254.407 360.946, 256.814 362.139, 258.476 363.191 C 260.139 364.243, 267.800 368.572, 275.500 372.811 L 289.500 380.518 290.152 387.009 C 290.971 395.148, 291.985 399.287, 293.399 400.250 C 294.167 400.773, 294.078 401.272, 293.106 401.898 C 291.952 402.641, 291.918 403.618, 292.908 407.549 C 293.566 410.163, 294.733 413.517, 295.501 415.002 C 296.426 416.790, 296.562 418.038, 295.905 418.695 C 294.603 419.997, 298.021 429.179, 302.099 435.336 C 309.016 445.779, 324.242 453.221, 335.221 451.524 C 341.964 450.483, 352.091 446.927, 352.679 445.395 C 352.973 444.628, 354.001 444, 354.962 444 C 355.923 444, 359.025 441.552, 361.855 438.560 C 366.425 433.728, 367.134 432.602, 366.955 430.465 C 366.931 430.170, 367.831 428.760, 368.955 427.330 C 370.080 425.900, 371 424.186, 371 423.520 C 371 422.855, 371.872 419.666, 372.939 416.434 C 374.210 412.579, 374.547 410.159, 373.917 409.400 C 373.298 408.654, 373.362 407.224, 374.097 405.372 C 376.710 398.790, 377.396 366.461, 375.117 357.297 C 374.405 354.436, 374.189 351.511, 374.636 350.797 C 375.478 349.455, 376.841 354.368, 377.383 360.690 C 377.533 362.445, 378.240 364.584, 378.953 365.443 C 379.752 366.406, 380.013 368.184, 379.634 370.078 C 378.337 376.565, 394.186 388, 404.475 388 C 409.427 388, 421.200 385.086, 422.438 383.555 C 423.022 382.832, 424.720 381.957, 426.210 381.611 C 432.239 380.212, 438.327 368.664, 439.976 355.500 C 440.458 351.650, 441.333 345.800, 441.921 342.500 C 444.213 329.620, 442.503 302.866, 438.941 295.885 C 435.902 289.928, 432.077 286, 429.315 286 C 426.227 286, 421.417 289.297, 420.743 291.876 C 420.253 293.748, 420.315 293.747, 423.559 291.833 C 426.859 289.886, 426.886 289.886, 428.885 291.885 C 431.194 294.194, 433.318 301.131, 432.696 304.327 C 432.381 305.944, 432.237 305.733, 432.132 303.500 C 431.962 299.838, 428.559 294, 426.596 294 C 422.338 294, 418.853 298.783, 417.455 306.547 C 417.064 308.721, 416.340 311.175, 415.847 312 C 414.863 313.646, 415.493 306.727, 417.056 298.727 C 417.729 295.284, 417.649 293.411, 416.769 292.002 C 415.772 290.405, 415.838 289.818, 417.135 288.775 C 419.801 286.631, 420.113 284.113, 417.977 281.977 C 416.890 280.890, 416 279.685, 416 279.300 C 416 278.915, 416.540 279.140, 417.200 279.800 C 418.989 281.589, 422 281.268, 422 279.288 C 422 278.346, 420.762 276.525, 419.250 275.242 L 416.500 272.908 419.822 274.517 C 422.457 275.793, 423.447 275.874, 424.608 274.910 C 426.914 272.997, 431.662 278.207, 436.082 287.500 C 439.416 294.510, 439.894 295.104, 439.943 292.299 C 440.025 287.705, 438.144 279.157, 436.020 274.466 C 433.365 268.603, 426.014 262.186, 421.043 261.391 C 416.129 260.605, 415.803 258.637, 419.512 252.148 C 421.008 249.532, 422 246.221, 422 243.848 C 422 238.950, 423.617 235.765, 430 228.096 C 439.784 216.339, 443 211.011, 443 206.557 C 443 200.488, 441.150 198.633, 432.557 196.082 C 424.830 193.788, 424.137 193.263, 426.159 191.241 C 429.184 188.216, 425.637 174.437, 421.247 172.161 C 417.770 170.359, 410.239 169.977, 396.945 170.930 C 389.490 171.464, 382.065 172.412, 380.445 173.036 C 378.825 173.660, 370.300 174.568, 361.500 175.055 C 344.010 176.022, 329.440 178.204, 324.939 180.531 C 323.355 181.351, 321.131 183.016, 319.998 184.232 C 318.147 186.219, 317.714 186.301, 315.719 185.037 C 310.157 181.515, 307.191 180.796, 294.253 179.829 C 283.400 179.019, 279.672 178.349, 276.573 176.651 C 271.291 173.757, 271.076 172.326, 275.733 171.072 C 281.997 169.385, 287.332 162.410, 293.651 147.647 C 295.558 143.191, 297.655 139.204, 298.310 138.788 C 298.964 138.371, 300.974 138.024, 302.775 138.015 C 305.366 138.003, 306.250 138.529, 307.012 140.532 L 307.975 143.064 319.737 142.782 L 331.500 142.500 331.807 138.250 L 332.115 134 341.807 134.027 C 347.138 134.042, 355.775 134.476, 361 134.992 C 372.176 136.094, 373.280 135.440, 372.794 128 L 372.500 123.500 367.500 123.650 C 364.750 123.733, 356.087 123.566, 348.250 123.279 C 334.548 122.778, 333.999 122.676, 333.985 120.629 C 333.955 116.461, 332.598 115.658, 326.625 116.275 L 321.053 116.850 320.032 113.175 C 319.470 111.154, 319.021 107.925, 319.034 106 C 319.055 102.681, 319.581 102.151, 329.196 95.750 C 334.773 92.037, 340.335 89, 341.556 89 C 342.777 89, 346.065 90.575, 348.864 92.500 C 351.662 94.425, 354.812 96, 355.863 96 C 358.578 96, 366.817 90.174, 370.345 85.760 C 375.770 78.972, 375.107 67.351, 368.960 61.461 C 366.442 59.049, 364.973 58.537, 359.733 58.246 C 355.349 58.003, 352.610 58.380, 350.500 59.516 M 329 122 C 329 122.550, 329.450 123, 330 123 C 330.550 123, 331 122.550, 331 122 C 331 121.450, 330.550 121, 330 121 C 329.450 121, 329 121.450, 329 122 M 205.160 130.230 C 205.007 134.745, 205.170 135.047, 208.750 136.888 C 214.130 139.655, 217.242 143.395, 221.844 152.623 C 224.072 157.090, 226.630 161.028, 227.529 161.373 C 230.741 162.605, 249.593 161.997, 255.448 160.472 C 265.545 157.842, 274.752 152.322, 284.018 143.344 C 292.967 134.675, 296.428 132.649, 304.293 131.475 C 309.461 130.704, 310.395 128.349, 305.391 128.707 C 297.418 129.277, 293.578 131.322, 285.221 139.449 C 270.010 154.240, 258.988 159.086, 240.274 159.210 C 233.120 159.258, 228.541 158.864, 227.650 158.125 C 226.881 157.486, 224.839 153.219, 223.111 148.643 C 219.641 139.448, 217.736 137.211, 210.820 134.207 C 206.787 132.455, 206.083 131.713, 205.730 128.837 C 205.400 126.153, 205.289 126.426, 205.160 130.230 M 369 128.500 C 369 129.325, 369.450 130, 370 130 C 370.550 130, 371 129.325, 371 128.500 C 371 127.675, 370.550 127, 370 127 C 369.450 127, 369 127.675, 369 128.500 M 160 138 C 160 138.550, 160.477 139, 161.059 139 C 161.641 139, 161.840 138.550, 161.500 138 C 161.160 137.450, 160.684 137, 160.441 137 C 160.198 137, 160 137.450, 160 138 M 276.500 166 C 276.160 166.550, 276.332 167, 276.882 167 C 277.432 167, 278.160 166.550, 278.500 166 C 278.840 165.450, 278.668 165, 278.118 165 C 277.568 165, 276.840 165.450, 276.500 166 M 270.813 168.683 C 271.534 168.972, 272.397 168.936, 272.729 168.604 C 273.061 168.272, 272.471 168.036, 271.417 168.079 C 270.252 168.127, 270.015 168.364, 270.813 168.683 M 400.091 175.549 C 391.754 177.357, 391.926 177.278, 392.917 178.872 C 393.627 180.016, 395.708 179.852, 405.429 177.885 C 418.705 175.200, 418.958 175.291, 418.985 182.795 C 418.996 186.094, 418.400 187.691, 416.416 189.675 L 413.832 192.259 416.666 191.587 C 423.194 190.039, 424.958 181.777, 419.908 176.402 C 418.025 174.397, 416.729 174.013, 412.076 174.079 C 409.009 174.123, 403.616 174.785, 400.091 175.549 M 261.239 181.322 C 260.154 182.520, 257.181 186.645, 254.633 190.489 C 250.248 197.104, 248.871 201, 250.918 201 C 253.411 201, 255.407 199.220, 260.008 192.894 C 262.766 189.102, 265.676 186, 266.476 186 C 268.285 186, 270.343 189.665, 269.608 191.578 C 268.914 193.388, 269.963 193.343, 272.461 191.454 C 274.360 190.017, 274.308 189.878, 270.771 186.962 C 268.763 185.307, 266.851 183.105, 266.522 182.069 C 265.613 179.207, 263.436 178.899, 261.239 181.322 M 382.645 180.145 C 389.746 181.740, 393.977 187.744, 393.994 196.250 C 393.997 197.762, 394.450 199, 395 199 C 396.596 199, 396.156 190.131, 394.373 186.374 C 391.901 181.165, 388.519 178.982, 383.115 179.107 L 378.500 179.214 382.645 180.145 M 404.324 182.223 C 397.406 184.187, 397.182 184.348, 398.074 186.695 C 398.583 188.035, 399 190.426, 399 192.010 L 399 194.890 404.750 192.395 C 407.913 191.022, 411.310 188.945, 412.300 187.777 C 414.150 185.596, 414.280 180.837, 412.500 180.420 C 411.950 180.292, 408.271 181.103, 404.324 182.223 M 210.004 183.996 C 207.300 186.891, 201.171 200.504, 202.137 201.470 C 202.388 201.722, 210.464 202.235, 220.083 202.610 L 237.572 203.293 241.624 198.689 C 247.494 192.021, 250.788 185.473, 249.389 183.253 C 248.415 181.708, 246.183 181.468, 230.565 181.227 L 212.846 180.953 210.004 183.996 M 285 185.861 C 285 186.335, 287.717 186.969, 291.037 187.270 C 298.302 187.928, 299.380 188.715, 301.013 194.545 C 301.707 197.023, 302.633 199.273, 303.071 199.544 C 303.510 199.815, 305.711 199.299, 307.963 198.398 C 312.607 196.540, 312.659 195.375, 308.389 188.750 L 305.972 185 295.486 185 C 289.719 185, 285 185.388, 285 185.861 M 215.250 188.031 C 213.789 188.618, 213 189.781, 213 191.345 C 213 195.503, 215.062 196.219, 225.949 195.845 C 235.648 195.511, 236.065 195.400, 239.107 192.356 C 240.835 190.627, 241.942 188.715, 241.566 188.106 C 240.731 186.756, 218.578 186.693, 215.250 188.031 M 286.736 196.043 C 281.982 197.974, 263.699 202.782, 252.680 205 C 246.346 206.274, 246.555 206.065, 238.002 219.694 C 235.865 223.101, 232.813 226.563, 231.221 227.386 C 228.109 228.995, 195.212 238, 192.445 238 C 190.377 238, 171.962 231.178, 170.250 229.778 C 168.452 228.307, 168.695 224.778, 171.350 213.805 L 173.695 204.111 170.598 204.713 C 166.842 205.442, 166.695 205.654, 163.804 214.471 C 162.323 218.988, 161.500 223.904, 161.500 228.227 C 161.500 237.291, 163.083 238.751, 177.859 243.321 C 188.586 246.638, 189.440 246.756, 193.193 245.432 C 195.380 244.660, 203.543 242.406, 211.334 240.422 C 226.917 236.455, 238.971 231.238, 257.735 220.342 C 267.982 214.392, 293.579 203.017, 296.750 203.005 C 298.374 202.999, 298.326 202.025, 296.487 197.622 C 294.748 193.460, 293.569 193.269, 286.736 196.043 M 161.014 197.194 C 159.166 197.874, 157 200.922, 157 202.841 C 157 204.369, 160.962 202.939, 161.976 201.045 C 162.741 199.616, 164.621 199.319, 173.625 199.204 C 180.870 199.112, 184.779 198.650, 185.646 197.784 C 186.692 196.739, 184.697 196.500, 174.914 196.500 C 168.305 196.500, 162.050 196.812, 161.014 197.194 M 405.248 196.706 C 404.009 196.945, 402.475 198.112, 401.839 199.301 C 400.029 202.682, 390.795 209.173, 375.724 217.657 C 373.098 219.136, 371.073 220.606, 371.224 220.923 C 371.376 221.240, 373.424 225.325, 375.776 230 C 378.127 234.675, 380.558 241.252, 381.177 244.616 L 382.303 250.732 391.402 246.109 C 396.406 243.567, 401.591 241.040, 402.925 240.493 C 404.597 239.808, 405.872 237.947, 407.030 234.500 C 409.710 226.526, 413.442 219.865, 420.265 210.879 C 423.764 206.270, 426.939 201.976, 427.320 201.335 C 427.796 200.535, 425.231 199.517, 419.133 198.085 C 410.211 195.990, 409.389 195.909, 405.248 196.706 M 333 197.690 C 326.240 198.821, 315.349 203.266, 292.685 214.146 C 267.818 226.083, 250.960 235.443, 250.242 237.711 C 250.032 238.378, 255.853 236.076, 263.180 232.596 C 283.852 222.777, 286.453 221.995, 298.288 222.033 C 305.976 222.057, 309.859 222.563, 314 224.080 C 317.025 225.188, 320.178 226.322, 321.007 226.600 C 321.851 226.884, 325.149 225.058, 328.507 222.449 C 339.865 213.622, 345.955 212.001, 351.799 216.250 C 357.282 220.237, 362.416 224.307, 365.916 227.441 L 369.331 230.500 367.126 227.290 C 365.914 225.525, 363.338 222.775, 361.402 221.180 C 358.702 218.955, 357.527 216.908, 356.355 212.390 C 353.080 199.767, 346.258 195.473, 333 197.690 M 431 201.891 C 431 202.380, 428.227 206.993, 424.838 212.141 C 418.039 222.466, 414.105 230.521, 411.597 239.250 L 409.944 245 405.236 245 C 400.066 245, 392.397 248.345, 386.792 253.045 C 381.992 257.070, 383.924 257.601, 390.654 254.108 C 399.575 249.477, 404.648 248, 411.626 248 C 417.477 248, 419.513 247.053, 417 245.500 C 413.810 243.528, 417.644 234.051, 426.893 221.047 C 436.725 207.221, 437 206.767, 437 204.384 C 437 202.268, 435.283 201, 432.418 201 C 431.638 201, 431 201.401, 431 201.891 M 401.226 206.117 C 397.455 207.984, 387.484 217.817, 388.416 218.750 C 388.611 218.945, 391.616 217.266, 395.092 215.019 C 398.569 212.772, 403.998 209.711, 407.157 208.216 C 410.315 206.722, 412.922 205.162, 412.950 204.750 C 413.054 203.187, 405.324 204.089, 401.226 206.117 M 146.592 208.127 C 141.692 208.598, 137.444 209.222, 137.152 209.515 C 136.860 209.807, 137.719 210.797, 139.060 211.714 C 140.402 212.631, 144.107 215.996, 147.292 219.191 C 150.478 222.386, 153.685 225, 154.419 225 C 155.801 225, 160.319 209.325, 159.377 207.800 C 159.105 207.360, 158.121 207.061, 157.191 207.135 C 156.261 207.209, 151.491 207.656, 146.592 208.127 M 110.442 213.336 L 101.519 217.671 105.847 220.403 C 108.227 221.906, 116.548 226.212, 124.337 229.972 C 132.127 233.733, 140.207 237.977, 142.294 239.405 C 144.381 240.832, 146.235 242, 146.414 242 C 147.090 242, 147.869 234.821, 147.342 233.448 C 146.675 231.712, 121.509 209, 120.251 209 C 119.764 209, 115.350 210.951, 110.442 213.336 M 181.333 215.098 C 177.962 215.896, 176.959 216.679, 176.083 219.192 C 173.819 225.685, 174.305 226.432, 183.435 230.500 C 188.634 232.816, 192.758 234.062, 194.185 233.747 C 204.561 231.455, 227.105 224.462, 229.624 222.753 C 233.797 219.922, 235.528 217.128, 234.032 215.632 C 232.570 214.169, 187.198 213.710, 181.333 215.098 M 310.574 231.527 C 315.259 234.881, 319.589 236.745, 320.524 235.810 C 320.760 235.573, 320.231 234.346, 319.346 233.084 C 317.480 230.419, 312.250 228, 308.356 228 C 305.831 228, 305.981 228.239, 310.574 231.527 M 293.580 230.871 C 293.284 231.350, 287.745 233.919, 281.271 236.579 C 260.713 245.026, 250 252.608, 250 258.711 C 250 262.630, 253.409 265.179, 261.128 267.031 C 265.535 268.088, 266.394 267.965, 271.712 265.510 C 274.895 264.040, 281.038 261.537, 285.363 259.947 C 289.688 258.358, 293.878 256.516, 294.675 255.855 C 296.808 254.085, 303 244.506, 303 242.976 C 303 241.411, 295.806 230.021, 294.809 230.009 C 294.429 230.004, 293.876 230.392, 293.580 230.871 M 94.554 235.500 C 92.799 239.340, 92.795 239.936, 94.444 250.380 C 96.144 261.150, 97.590 266, 99.101 266 C 100.752 266, 100.795 264.202, 99.308 257.469 C 98.462 253.636, 97.457 246.225, 97.075 241 L 96.382 231.500 94.554 235.500 M 370.379 233.500 C 370.672 234.600, 371.634 239.775, 372.516 245 C 375.365 261.877, 377.016 268, 378.718 268 C 380.011 268, 380.169 267.097, 379.649 262.675 C 378.645 254.132, 374.406 238.703, 372.032 234.954 C 370.829 233.054, 370.085 232.400, 370.379 233.500 M 109.396 236.694 C 107.221 241.632, 107.168 249.637, 109.286 253.650 C 111.819 258.452, 123.442 264.521, 125.067 261.891 C 125.670 260.917, 126.142 261.243, 126.858 263.128 C 128.316 266.962, 133.183 268.633, 138.641 267.174 C 141.054 266.528, 144.147 266, 145.514 266 C 147.219 266, 147.997 265.450, 147.990 264.250 C 147.973 261.108, 143.321 252.571, 139.872 249.352 C 134.952 244.760, 119.164 235.389, 113.287 233.573 C 111.417 232.995, 110.813 233.479, 109.396 236.694 M 151.375 239.551 C 149.531 242.364, 149.607 243.251, 154.172 272.353 C 155.714 282.182, 156.893 286.829, 158.230 288.353 C 160.098 290.481, 160.109 290.447, 159.479 284.500 C 159.129 281.200, 157.753 272.104, 156.421 264.286 C 153.797 248.882, 153.418 241.955, 155.035 238.934 C 156.658 235.901, 153.407 236.449, 151.375 239.551 M 236.739 244.431 C 235.820 247.417, 233.093 254.505, 230.680 260.181 C 228.267 265.856, 225.078 274.174, 223.593 278.663 C 222.108 283.153, 220.242 287.077, 219.447 287.382 C 217.867 287.988, 217.431 291, 218.923 291 C 221.715 291, 226.012 285.472, 228.077 279.222 C 231.752 268.100, 240.095 249.041, 242.581 246.086 C 244.719 243.545, 244.786 243.140, 243.399 241.159 C 240.752 237.380, 238.582 238.446, 236.739 244.431 M 286.790 240.964 C 285.949 242.311, 284.876 242.756, 283.375 242.379 C 278.192 241.078, 273.608 247.227, 276.486 251.619 C 278.754 255.080, 282.092 255.484, 288.527 253.076 C 294.861 250.706, 298.922 248.081, 298.969 246.327 C 298.986 245.681, 297.835 243.769, 296.411 242.077 C 293.327 238.411, 288.717 237.878, 286.790 240.964 M 290 240.785 C 289.175 241.068, 288.192 241.774, 287.816 242.353 C 287.021 243.575, 287.885 249.082, 289.077 250.394 C 290.144 251.570, 295.685 249.264, 296.425 247.336 C 297.622 244.216, 293.185 239.692, 290 240.785 M 310.559 246.251 C 308.941 249.138, 305.679 254.396, 303.309 257.936 C 296.082 268.731, 298.001 270.342, 306.803 260.867 C 313.945 253.178, 319 246.163, 319 243.941 C 319 242.549, 316.485 241.077, 314 241.015 C 313.725 241.008, 312.176 243.364, 310.559 246.251 M 113.655 243.829 C 109.697 248.203, 113.336 255.396, 119.210 254.809 C 123.060 254.424, 126.520 250.212, 125.535 247.109 C 124.800 244.796, 120.242 242, 117.205 242 C 116.163 242, 114.565 242.823, 113.655 243.829 M 278.950 246.093 C 277.554 248.702, 278.443 252.572, 280.632 253.412 C 283.297 254.435, 286.925 251.465, 286.287 248.783 C 285.193 244.178, 280.831 242.579, 278.950 246.093 M 114.368 247.669 C 113.856 249.708, 114.205 250.747, 115.846 252.076 C 118.577 254.288, 121.844 253.471, 122.619 250.383 C 123.584 246.539, 122.421 245, 118.550 245 C 115.579 245, 114.935 245.411, 114.368 247.669 M 133.465 250.952 C 132.346 251.405, 130.809 252.525, 130.049 253.441 C 128.858 254.876, 128.955 255.608, 130.750 258.750 C 131.895 260.754, 133.658 262.677, 134.666 263.023 C 137.549 264.013, 145 262.115, 145 260.391 C 145 257.996, 142.197 253.252, 139.783 251.561 C 137.312 249.829, 136.441 249.746, 133.465 250.952 M 262.280 251.009 C 259.998 251.939, 258.558 255.466, 259.168 258.632 C 259.604 260.896, 266.122 263.437, 269.390 262.617 C 273.140 261.676, 274.575 255.210, 271.668 252.350 C 269.979 250.689, 264.861 249.957, 262.280 251.009 M 133.750 253.080 C 131.566 254.352, 131.515 256.863, 133.613 259.858 C 134.872 261.656, 135.803 262.018, 137.863 261.509 C 141.842 260.527, 142.277 259.599, 140.619 255.632 C 139.050 251.875, 137.077 251.142, 133.750 253.080 M 406.602 256.750 C 403.733 265.490, 402.095 275.601, 401.393 288.894 C 400.581 304.273, 401.810 302.594, 385.327 310.847 C 375.963 315.536, 372.366 318, 374.885 318 C 377.004 318, 400.589 306.210, 402.261 304.315 C 403.605 302.791, 404.249 299.341, 404.983 289.728 C 405.735 279.865, 406.708 274.773, 409.472 266.224 C 413.704 253.132, 413.792 252, 410.580 252 C 408.579 252, 407.891 252.822, 406.602 256.750 M 262.390 254.427 C 262.088 255.212, 261.990 256.900, 262.171 258.177 C 262.422 259.951, 263.229 260.571, 265.585 260.801 C 269.395 261.173, 271.465 258.987, 270.593 255.513 C 270.069 253.426, 269.367 253, 266.450 253 C 264.330 253, 262.720 253.566, 262.390 254.427 M 357.955 258.318 C 365.088 270.201, 366.331 278.052, 363.585 293.872 C 362.328 301.110, 362.226 303.568, 363.137 304.665 C 364.905 306.795, 365.592 305.359, 367.498 295.550 C 370.725 278.945, 367.714 265.581, 358.926 257.500 L 355.664 254.500 357.955 258.318 M 105.449 262.083 C 105.137 262.587, 105.408 263, 106.052 263 C 106.695 263, 110.434 264.526, 114.361 266.391 C 142.527 279.770, 146 281.278, 146 280.126 C 146 278.992, 114.805 263.543, 109.758 262.178 C 107.511 261.570, 105.789 261.532, 105.449 262.083 M 291 263.040 C 288.405 263.818, 263.541 272.819, 244.620 279.829 C 238.635 282.047, 233.258 284.342, 232.670 284.930 C 230.790 286.810, 233.618 286.164, 242.772 282.624 C 251.534 279.234, 258.252 276.808, 280.500 268.997 C 291.784 265.036, 294.957 263.539, 293.933 262.662 C 293.695 262.457, 292.375 262.627, 291 263.040 M 175 267.500 C 177.475 268.825, 179.950 269.910, 180.500 269.910 C 181.050 269.910, 179.475 268.825, 177 267.500 C 174.525 266.175, 172.050 265.090, 171.500 265.090 C 170.950 265.090, 172.525 266.175, 175 267.500 M 205 266 C 203.172 267.181, 204.751 267.181, 207.500 266 C 208.819 265.433, 208.989 265.122, 208 265.086 C 207.175 265.055, 205.825 265.467, 205 266 M 200 268 C 199.175 268.533, 198.950 268.969, 199.500 268.969 C 200.050 268.969, 201.175 268.533, 202 268 C 202.825 267.467, 203.050 267.031, 202.500 267.031 C 201.950 267.031, 200.825 267.467, 200 268 M 104.237 269.250 C 104.459 269.938, 114.351 275.469, 126.220 281.542 C 139.592 288.385, 149.846 294.334, 153.182 297.184 C 158.195 301.467, 158.738 301.693, 161.061 300.476 C 162.855 299.536, 170.291 299.075, 187.528 298.834 C 211.266 298.503, 211.537 298.523, 215.300 300.863 L 219.100 303.225 225.300 300.190 C 233.304 296.272, 273.486 281.168, 286.750 277.092 C 292.387 275.359, 297 273.591, 297 273.162 C 297 272.733, 296.438 271.685, 295.750 270.832 C 294.643 269.460, 292.324 270.057, 275.500 276.052 C 251.830 284.485, 230.971 292.346, 224.758 295.175 L 220.015 297.335 214.436 294.512 L 208.857 291.689 187.785 292.366 C 176.196 292.739, 164.809 293.523, 162.480 294.109 C 158.416 295.133, 158.052 295.026, 153.373 291.431 C 150.693 289.371, 142.650 284.887, 135.500 281.465 C 106.753 267.707, 103.303 266.359, 104.237 269.250 M 195 270 C 194.175 270.533, 193.950 270.969, 194.500 270.969 C 195.050 270.969, 196.175 270.533, 197 270 C 197.825 269.467, 198.050 269.031, 197.500 269.031 C 196.950 269.031, 195.825 269.467, 195 270 M 183 271 C 183.825 271.533, 185.175 271.945, 186 271.914 C 186.989 271.878, 186.819 271.567, 185.500 271 C 182.751 269.819, 181.172 269.819, 183 271 M 206.813 275.683 C 207.534 275.972, 208.397 275.936, 208.729 275.604 C 209.061 275.272, 208.471 275.036, 207.417 275.079 C 206.252 275.127, 206.015 275.364, 206.813 275.683 M 201.500 277 C 200.181 277.567, 200.011 277.878, 201 277.914 C 201.825 277.945, 203.175 277.533, 204 277 C 205.828 275.819, 204.249 275.819, 201.500 277 M 193.813 279.683 C 194.534 279.972, 195.397 279.936, 195.729 279.604 C 196.061 279.272, 195.471 279.036, 194.417 279.079 C 193.252 279.127, 193.015 279.364, 193.813 279.683 M 283.441 284.568 C 281.596 286.059, 281.648 286.105, 284.500 285.497 C 288.229 284.703, 290.201 283, 287.391 283 C 286.286 283, 284.509 283.706, 283.441 284.568 M 289.500 289.886 C 284.456 292.210, 279.993 296.361, 280.022 298.702 C 280.042 300.298, 280.239 300.258, 281.772 298.344 C 283.942 295.636, 289.936 292.009, 292.250 292.004 C 293.332 292.001, 294 291.237, 294 290 C 294 288.900, 293.887 288.010, 293.750 288.022 C 293.613 288.034, 291.700 288.873, 289.500 289.886 M 137.440 296.451 C 135.156 299.936, 135.982 302.324, 139.911 303.599 C 141.886 304.239, 142.828 304.988, 142.170 305.395 C 141.549 305.779, 140.093 305.585, 138.935 304.965 C 137.777 304.345, 136.570 304.097, 136.254 304.413 C 135.307 305.360, 139.169 309, 141.120 309 C 145.158 309, 146.528 299.528, 143 296 C 140.396 293.396, 139.388 293.478, 137.440 296.451 M 288.855 297.507 C 285.158 299.930, 281 304.905, 281 306.904 C 281 308.763, 282.087 308.151, 286.062 304.056 C 288.486 301.558, 291.185 299.868, 293.423 299.449 C 296.509 298.870, 296.828 298.546, 295.943 296.893 C 294.641 294.460, 293.330 294.573, 288.855 297.507 M 246.223 298.557 C 243.394 300.538, 243.282 305.282, 246 308 C 248.411 310.411, 249.370 310.487, 251.427 308.430 C 253.677 306.180, 254.431 302.240, 253.148 299.426 C 251.876 296.634, 249.410 296.324, 246.223 298.557 M 140 299.559 C 140 300.416, 140.450 300.840, 141 300.500 C 141.550 300.160, 142 299.459, 142 298.941 C 142 298.423, 141.550 298, 141 298 C 140.450 298, 140 298.702, 140 299.559 M 250 302.300 C 250 303.235, 249.550 304, 249 304 C 248.450 304, 248 304.450, 248 305 C 248 305.550, 248.627 306, 249.393 306 C 251.214 306, 252.357 302.957, 251.033 301.633 C 250.322 300.922, 250 301.131, 250 302.300 M 326 302.586 L 322.500 304.019 326.871 303.588 C 329.275 303.352, 331.728 302.672, 332.321 302.079 C 333.875 300.525, 330.338 300.809, 326 302.586 M 339.916 302.842 C 340.813 304.518, 340.506 304.818, 337.379 305.326 C 333.814 305.904, 331 307.545, 331 309.046 C 331 309.486, 332.432 309.132, 334.183 308.259 C 339.100 305.806, 346.468 305.421, 349.573 307.456 C 352.056 309.083, 352.162 309.077, 351.839 307.331 C 351.491 305.451, 346.667 302.714, 341.698 301.577 C 339.175 301, 338.997 301.126, 339.916 302.842 M 94 304.432 C 94 304.861, 95.285 306.852, 96.855 308.856 C 98.426 310.860, 100.232 313.495, 100.869 314.710 L 102.028 316.921 105.413 314.623 C 108.836 312.300, 111.635 311.081, 118 309.141 C 121.428 308.096, 121.407 308.085, 117 308.636 C 114.525 308.945, 110.199 310.427, 107.386 311.929 L 102.272 314.660 100.507 311.384 C 98.709 308.045, 94 303.014, 94 304.432 M 289.140 307.014 C 285.610 310.544, 284.355 313.755, 285.901 315.301 C 286.700 316.100, 287 315.968, 287 314.819 C 287 312.166, 293.072 307, 296.190 307 C 298.021 307, 299 306.477, 299 305.500 C 299 302.651, 292.506 303.648, 289.140 307.014 M 410.690 306.365 C 410.384 307.163, 402.480 311.682, 393.126 316.407 C 383.772 321.133, 375.822 325.479, 375.459 326.066 C 373.699 328.914, 377.148 327.894, 388.793 322.120 C 404.536 314.315, 410.728 310.431, 411.548 307.848 C 412.285 305.528, 411.519 304.205, 410.690 306.365 M 312 308.773 C 312 309.198, 313.607 310.411, 315.571 311.468 C 319.175 313.409, 325 319.850, 325 321.894 C 325 322.502, 325.450 323, 326 323 C 329.475 323, 324.563 313.970, 319.078 310.274 C 315.770 308.044, 312 307.245, 312 308.773 M 356.750 309.332 C 356.337 310.339, 356 312.076, 356 313.190 C 356 314.916, 355.592 315.106, 353.250 314.467 C 351.738 314.055, 349.443 313.780, 348.151 313.856 C 343.168 314.149, 326 323.320, 326 325.689 C 326 326.471, 327.771 325.833, 330.628 324.021 C 333.173 322.407, 337.621 320.557, 340.512 319.910 C 346.404 318.591, 353 319.391, 353 321.425 C 353 323.215, 343.805 330.060, 336.336 333.830 C 333.015 335.507, 328.929 338.031, 327.255 339.439 C 325.581 340.848, 323.978 342, 323.694 342 C 323.409 342, 322.873 340.210, 322.504 338.023 C 322.134 335.836, 320.851 332.590, 319.651 330.810 C 315.562 324.742, 305.457 319.427, 304.284 322.728 C 304.033 323.434, 305.582 324.649, 307.932 325.589 C 312.767 327.524, 320.391 335.625, 322.019 340.557 L 323.170 344.045 327.977 340.517 C 334.041 336.065, 339.069 333.956, 345.795 333.042 C 350.420 332.414, 351 332.524, 350.375 333.911 C 348.882 337.228, 344.064 362.633, 342.879 373.438 C 340.828 392.137, 343.841 408.460, 351.253 418.799 C 353.107 421.384, 355.546 423.636, 356.674 423.801 C 359.156 424.166, 364.503 419.862, 366.597 415.812 C 369.788 409.642, 372.525 387, 370.080 387 C 369.574 387, 368.424 390.262, 367.524 394.250 C 365.118 404.913, 361.740 411.776, 358.499 412.590 C 354.282 413.648, 351.448 411.614, 348.367 405.321 C 345.883 400.247, 345.470 398.110, 345.145 388.670 C 344.724 376.401, 346.210 362.231, 349.141 350.571 C 352.293 338.029, 354.891 334.254, 359.559 335.426 C 362.689 336.211, 365.889 342.693, 368.931 354.409 C 370.060 358.759, 371.213 362.546, 371.492 362.826 C 373.632 364.965, 367.047 336.972, 364.010 331.019 C 361.609 326.314, 361.575 326, 363.465 326 C 364.270 326, 365.471 327.011, 366.132 328.247 C 368.568 332.798, 368.029 327.991, 365.557 323.112 C 364.151 320.337, 363 317.178, 363 316.092 C 363 313.556, 361.169 312.396, 360.386 314.437 C 359.293 317.284, 358.119 316.060, 357.807 311.750 C 357.587 308.709, 357.287 308.021, 356.750 309.332 M 291.535 314.104 C 289.591 315.811, 288 318.034, 288 319.045 C 288 322.059, 289.488 322.054, 290.825 319.034 C 292.401 315.474, 297.317 313.188, 299.501 315.001 C 301.090 316.320, 301.452 315.341, 300.393 312.582 C 299.421 310.049, 295.358 310.747, 291.535 314.104 M 84.250 312.716 C 82.282 313.426, 82.763 314.429, 85.985 316.332 C 89.677 318.513, 94.385 325.217, 95.992 330.580 L 97.201 334.615 99.999 332 C 103.769 328.479, 113.634 323.329, 118.250 322.473 C 122.602 321.666, 123.285 319.990, 119.250 320.022 C 115.655 320.051, 108.930 323.147, 102.985 327.511 L 98.224 331.006 97.594 327.647 C 96.310 320.806, 87.903 311.399, 84.250 312.716 M 148 318.282 C 148 321.507, 149.109 324.496, 152.541 330.524 C 157.367 338.999, 160.758 343.252, 159.697 339.500 C 159.386 338.400, 157.977 334.442, 156.566 330.705 C 152.308 319.428, 149.185 320.427, 186.916 321 C 205.021 321.275, 220.152 321.818, 220.541 322.207 C 220.930 322.596, 220.695 328.050, 220.019 334.326 C 219.094 342.909, 219.072 346.266, 219.930 347.869 C 221.776 351.318, 223 350.330, 223 345.393 C 223 342.860, 223.725 336.824, 224.611 331.981 C 226.326 322.606, 226.795 322.049, 233 322.013 C 236.942 321.990, 248.550 316.150, 247.245 314.845 C 246.467 314.067, 244.713 314.109, 241.021 314.995 C 238.194 315.673, 233.320 316.270, 230.190 316.321 C 224.496 316.415, 186.185 315.400, 161.250 314.496 L 148 314.015 148 318.282 M 409.500 319.523 L 405.500 322.970 409.750 322.985 C 413.278 322.997, 414 322.674, 414 321.082 C 414 320.027, 414.273 318.452, 414.607 317.582 C 415.551 315.121, 413.862 315.763, 409.500 319.523 M 293.589 322.077 C 290.887 325.287, 290.657 326.269, 291.876 329.371 C 292.472 330.888, 292.838 330.484, 293.810 327.240 C 294.470 325.038, 295.682 322.679, 296.505 321.996 C 297.327 321.314, 298 320.360, 298 319.878 C 298 318.129, 296.123 319.065, 293.589 322.077 M 78.109 325.250 C 74.693 333.229, 74.666 333.735, 77.552 335.626 C 80.501 337.559, 90 350.554, 90 352.657 C 90 354.793, 91.253 354.233, 94.922 350.458 C 96.803 348.521, 101.078 345.313, 104.422 343.330 C 114.297 337.471, 115.196 336.863, 114.711 336.378 C 113.429 335.096, 96.998 344.145, 92.572 348.571 C 91.135 350.008, 90.936 349.997, 90.342 348.448 C 89.983 347.513, 90.209 345.310, 90.845 343.553 C 92.305 339.516, 92.295 337.717, 90.787 332.685 C 89.555 328.572, 83.290 321, 81.119 321 C 80.465 321, 79.110 322.913, 78.109 325.250 M 236.107 323.371 C 235.481 324.126, 234.040 329.824, 232.906 336.035 C 230.940 346.797, 230.923 347.504, 232.549 351.108 C 234.041 354.417, 239 360.317, 239 358.784 C 239 358.473, 238.110 356.257, 237.022 353.859 C 234.456 348.203, 234.504 346.176, 237.499 333.814 C 238.873 328.141, 239.998 323.163, 239.999 322.750 C 240.001 321.488, 237.314 321.917, 236.107 323.371 M 254 324.021 C 254 324.583, 255.238 325.571, 256.750 326.217 C 258.262 326.862, 266.250 330.486, 274.500 334.269 C 282.750 338.052, 290.063 341.387, 290.750 341.681 C 291.438 341.974, 292 341.566, 292 340.773 C 292 338.839, 258.809 323.003, 254.750 323.001 C 254.338 323, 254 323.460, 254 324.021 M 163.278 327.642 C 164.589 334.197, 168.306 342.066, 172.157 346.441 C 177.080 352.033, 178.374 351.675, 174.483 345.796 C 172.938 343.461, 170.281 337.975, 168.578 333.605 C 165.441 325.557, 162.112 321.810, 163.278 327.642 M 408.790 331 C 405.759 335.080, 405.517 335.707, 407.470 334.428 C 410.204 332.636, 413.277 328.330, 412.813 326.942 C 412.641 326.428, 410.830 328.254, 408.790 331 M 174.011 330.487 C 172.698 332.068, 173.283 335, 174.910 335 C 175.444 335, 176.160 334.550, 176.500 334 C 177.307 332.694, 182.599 332.715, 185.066 334.035 C 187.872 335.537, 187.757 342.356, 184.892 344.363 C 182.492 346.044, 183.146 348, 186.107 348 C 189.168 348, 190.935 342.833, 189.759 337.320 C 188.695 332.331, 189.474 330.560, 191.508 333.342 C 193.049 335.449, 197 334.794, 197 332.433 C 197 329.728, 198.750 331.001, 199.383 334.167 L 200.017 337.333 202.323 335.167 C 205.193 332.470, 207.986 332.415, 211.262 334.991 C 213.480 336.736, 213.867 336.788, 214.396 335.409 C 215.456 332.649, 215.048 330.232, 213.418 329.607 C 212.548 329.273, 203.603 329, 193.541 329 C 178.567 329, 175.021 329.270, 174.011 330.487 M 137.064 333.392 C 130.775 335.164, 125.427 337.220, 125.180 337.959 C 124.876 338.873, 125.336 339.134, 126.616 338.774 C 127.652 338.482, 133.113 336.990, 138.750 335.458 C 145.245 333.693, 149 332.183, 149 331.336 C 149 330.601, 148.887 330.038, 148.750 330.084 C 148.613 330.131, 143.354 331.619, 137.064 333.392 M 302.504 332.250 C 298.291 344.416, 298.234 344.996, 301.250 345.012 C 302.488 345.019, 305.476 346.154, 307.892 347.534 C 310.654 349.113, 313.027 349.809, 314.288 349.409 C 315.953 348.880, 316.199 349.130, 315.740 350.885 C 315.436 352.047, 315.663 353.291, 316.243 353.650 C 317.636 354.511, 316.380 344.844, 314.520 340.394 C 313.769 338.596, 311.252 335.746, 308.927 334.062 C 304.281 330.696, 303.153 330.378, 302.504 332.250 M 429.049 336.724 C 428.467 338.801, 427.705 342.863, 427.357 345.750 C 426.827 350.148, 426.983 351, 428.315 351 C 430.273 351, 431.987 345.320, 431.994 338.809 C 432.001 332.888, 430.436 331.780, 429.049 336.724 M 178.544 336.344 C 177.179 337.343, 176.879 338.384, 177.382 340.387 C 178.256 343.866, 180.556 344.712, 183.037 342.466 C 185.264 340.451, 185.566 337.966, 183.800 336.200 C 182.244 334.644, 180.815 334.684, 178.544 336.344 M 416.780 336.140 C 416.495 336.888, 416.601 339.975, 417.017 343 C 418.832 356.201, 422.463 363.294, 427.666 363.805 C 433.121 364.341, 435.927 358.543, 437.621 343.231 C 438.336 336.774, 437.047 336.906, 434.999 343.500 C 434.315 345.700, 432.817 349.208, 431.668 351.296 C 430.015 354.302, 429.072 355.031, 427.139 354.796 C 423.669 354.375, 421.295 350.612, 419.157 342.140 C 418.135 338.092, 417.065 335.392, 416.780 336.140 M 195.333 337.575 C 195 338.441, 195.654 341.254, 196.786 343.825 C 197.917 346.396, 199.072 349.242, 199.352 350.149 C 199.933 352.035, 206.354 354.462, 208.541 353.623 C 209.344 353.315, 210 352.326, 210 351.424 C 210 350.330, 209.466 349.991, 208.392 350.403 C 206.321 351.198, 199 344.024, 199 341.199 C 199 336.659, 196.596 334.283, 195.333 337.575 M 203.958 337.550 C 203.024 338.676, 202.922 340.112, 203.586 342.800 C 204.421 346.182, 204.799 346.500, 207.976 346.500 C 210.861 346.500, 211.615 346.036, 212.412 343.770 C 213.656 340.232, 212.395 338.991, 210.420 341.810 C 208.908 343.969, 206 344.832, 206 343.122 C 206 342.639, 207.006 341.576, 208.236 340.759 C 210.168 339.477, 210.287 339.051, 209.114 337.637 C 207.408 335.582, 205.617 335.552, 203.958 337.550 M 341.335 342.293 C 339.226 344.655, 334.800 348.660, 331.500 351.194 C 328.200 353.727, 323.927 357.533, 322.005 359.650 L 318.509 363.500 323.005 359.348 C 327.750 354.965, 338.787 347, 340.116 347 C 340.547 347, 341.035 349.587, 341.200 352.750 L 341.500 358.500 343.853 350 C 345.147 345.325, 346.437 340.712, 346.720 339.750 C 347.600 336.749, 345.330 337.821, 341.335 342.293 M 74.504 343.978 C 73.381 350.623, 74.623 353.475, 81.071 359.062 C 85.030 362.491, 87 363.666, 87 362.599 C 87 361.720, 86.373 361, 85.607 361 C 84.841 361, 83.936 360.275, 83.596 359.389 C 83.153 358.236, 83.407 357.942, 84.489 358.357 C 88.118 359.750, 84.737 349.376, 79.566 343.250 C 78.057 341.462, 76.452 340, 75.999 340 C 75.546 340, 74.873 341.790, 74.504 343.978 M 152.250 346.973 C 149.912 348.034, 148 349.102, 148 349.346 C 148 349.960, 153.688 348.510, 158.500 346.670 C 162.396 345.181, 162.422 345.140, 159.500 345.092 C 157.850 345.066, 154.588 345.912, 152.250 346.973 M 191.465 346.057 C 190.182 348.132, 191.992 351.960, 194.562 352.605 C 197.819 353.422, 198.722 352.479, 196.813 350.256 C 195.983 349.290, 195.025 347.712, 194.683 346.750 C 193.988 344.789, 192.453 344.458, 191.465 346.057 M 297.667 349.667 C 296.013 351.320, 297.072 355.712, 299.377 356.762 C 303.203 358.505, 308.954 364.012, 311.009 367.900 C 313.742 373.072, 313.426 369.447, 310.625 363.500 C 308.367 358.706, 300.640 349, 299.082 349 C 298.670 349, 298.033 349.300, 297.667 349.667 M 116.476 351.750 C 116.070 352.712, 115.514 359.691, 115.240 367.258 C 114.495 387.893, 117.429 399.541, 125.122 406.492 C 130.465 411.318, 133.014 411.087, 138.818 405.250 C 143.640 400.400, 146.585 393.868, 145.126 391.260 C 144.521 390.179, 143.569 390.740, 141.027 393.676 C 137.135 398.172, 131.354 401.988, 128.424 401.995 C 126.073 402.001, 122.976 398.970, 120.674 394.410 C 117.891 388.898, 116.707 378.376, 117.230 363.823 C 117.504 356.220, 117.612 350, 117.471 350 C 117.329 350, 116.882 350.788, 116.476 351.750 M 278.507 350.988 C 278.118 351.618, 279.637 351.748, 282.698 351.347 C 289.024 350.519, 289.419 350, 283.726 350 C 281.191 350, 278.843 350.445, 278.507 350.988 M 250.550 352.897 C 251.072 353.391, 257.125 356.690, 264 360.228 C 270.875 363.767, 279.499 368.333, 283.164 370.375 C 289.888 374.122, 293.532 373.939, 288.173 370.123 C 282.865 366.343, 254.119 352, 251.852 352 C 250.483 352, 249.973 352.352, 250.550 352.897 M 99.913 359.895 C 96.936 362.036, 93.713 365.143, 92.750 366.799 C 90.194 371.195, 90.609 371.625, 93.750 367.836 C 96.276 364.790, 98.055 363.114, 104.276 357.923 C 108.189 354.657, 105.508 355.869, 99.913 359.895 M 159.668 360.375 C 153.711 362.789, 148.341 365.259, 147.735 365.865 C 145.213 368.387, 148.358 367.958, 156.667 364.648 C 161.525 362.712, 167.656 360.591, 170.290 359.935 C 175.029 358.755, 176.188 356.746, 172.422 356.243 C 171.365 356.102, 165.626 357.962, 159.668 360.375 M 70 360.473 C 70 363.011, 73.785 368.463, 79.045 373.500 C 82.671 376.973, 84.436 378.237, 83.236 376.500 C 82.096 374.850, 79.101 371.494, 76.581 369.042 C 74.062 366.590, 72 363.804, 72 362.851 C 72 361.898, 71.550 360.840, 71 360.500 C 70.450 360.160, 70 360.148, 70 360.473 M 337.883 365.260 C 336.840 366.140, 336.575 367.661, 336.971 370.500 L 337.530 374.500 338.810 369.628 C 340.228 364.230, 340.058 363.427, 337.883 365.260 M 331 370.358 C 329.625 371.621, 327.156 374.194, 325.514 376.077 C 323.872 377.959, 325.109 377.040, 328.264 374.034 C 333.459 369.083, 334.508 367.936, 333.750 368.032 C 333.613 368.049, 332.375 369.096, 331 370.358 M 297 376.345 C 297 378.935, 298.331 380.271, 305 384.370 L 309.500 387.136 304.250 382.478 C 301.363 379.916, 299 376.960, 299 375.910 C 299 374.859, 298.550 374, 298 374 C 297.450 374, 297 375.055, 297 376.345 M 105.405 377.250 L 103.500 379.500 105.750 377.595 C 107.864 375.805, 108.455 375, 107.655 375 C 107.465 375, 106.453 376.012, 105.405 377.250 M 99.500 381.588 L 96.500 384.165 99.750 382.015 C 101.537 380.832, 103 379.669, 103 379.432 C 103 378.683, 102.577 378.944, 99.500 381.588 M 71 385.300 C 71 387.479, 72.636 390, 74.051 390 C 74.409 390, 74.209 388.425, 73.606 386.500 C 72.358 382.513, 71 381.888, 71 385.300 M 93.405 386.250 L 91.500 388.500 93.750 386.595 C 95.864 384.805, 96.455 384, 95.655 384 C 95.465 384, 94.453 385.012, 93.405 386.250 M 357.001 391.996 C 355.147 399.725, 355.213 406.637, 357.160 408.587 C 358.707 410.136, 358.933 410.031, 360.480 407.038 C 362.087 403.930, 364.947 392.314, 364.983 388.750 C 364.996 387.423, 364.178 387, 361.600 387 C 358.346 387, 358.148 387.216, 357.001 391.996 M 328.908 390.750 C 324.499 395.668, 322.679 398, 323.252 398 C 323.561 398, 325.698 395.750, 328 393 C 332.430 387.708, 333.081 386.096, 328.908 390.750 M 298 400.845 C 298 402.503, 301.678 404.967, 309.413 408.492 C 318.487 412.627, 320.442 412.631, 312.755 408.498 C 309.865 406.944, 305.619 404.396, 303.320 402.836 C 298.879 399.823, 298 399.494, 298 400.845" stroke="none" fill="black" fill-rule="evenodd"/>
</svg>