<svg xmlns="http://www.w3.org/2000/svg" width="512" height="512" viewBox="0 0 512 512" version="1.1">
	<path d="M 233 19.117 C 206.454 21.776, 176.907 30.587, 149.404 44.047 C 87.947 74.123, 43.443 128.956, 26.076 196 C 20.396 217.926, 18.937 227.893, 18.291 249.172 C 17.470 276.196, 19.930 295.699, 27.456 321.849 C 46.314 387.366, 88.956 439.120, 148.500 468.757 C 195.499 492.150, 251.633 499.703, 302.500 489.479 C 343.107 481.318, 380.964 462.847, 412.500 435.810 C 452.683 401.359, 480.848 351.822, 491.138 297.500 C 493.797 283.464, 494.801 250.087, 493.056 233.709 C 486.405 171.261, 454.396 110.636, 408.620 73.785 C 357.487 32.622, 294.360 12.972, 233 19.117 M 235.266 47.101 C 197.281 51.522, 155.984 67.955, 125.335 90.846 C 114.894 98.644, 98.080 114.667, 90.020 124.500 C 54.257 168.126, 37.024 234.662, 46.894 291 C 57.935 354.016, 89.406 401.760, 141.500 434.521 C 166.494 450.240, 200.336 462.066, 232 466.146 C 244.464 467.752, 269.065 467.718, 281 466.078 C 293.237 464.397, 314.639 459.120, 328 454.491 C 370.351 439.818, 409.758 409.367, 433.736 372.784 C 455.526 339.541, 470.723 286.686, 468.609 251.500 C 466.785 221.149, 459.023 190.825, 446.083 163.500 C 426.893 122.976, 392.194 88.794, 349.609 68.462 C 312.188 50.596, 271.138 42.927, 235.266 47.101 M 276.500 164.513 C 246.002 167.402, 213.965 173.427, 205.129 177.934 C 203.075 178.982, 200.912 180.897, 200.324 182.189 C 199.735 183.481, 194.132 190.379, 187.872 197.519 C 181.613 204.658, 175.355 211.964, 173.967 213.754 L 171.443 217.008 151.472 219.890 C 140.487 221.476, 128.125 223.079, 124 223.452 C 110.420 224.683, 85.982 230.996, 73.375 236.530 C 67.118 239.276, 60.163 245.379, 58.347 249.718 C 56.710 253.628, 56.597 260.344, 58.118 263.316 C 58.733 264.517, 60.859 267.198, 62.843 269.273 L 66.450 273.045 62.225 276.907 C 57.559 281.172, 56.940 283.940, 59.975 286.975 C 61.945 288.945, 62.952 289.310, 70.500 290.796 C 74.121 291.508, 74.832 292.190, 78 297.992 C 82.119 305.535, 85.548 307.891, 93.621 308.725 C 98.999 309.280, 99.671 309.666, 105.412 315.502 C 109.942 320.107, 113.036 322.275, 117.500 323.971 C 131.915 329.449, 147.312 327.137, 157.317 317.994 L 162.780 313 189.342 313 L 215.904 313 218.867 317.307 C 228.236 330.925, 242.163 337.553, 259.887 336.829 C 268.123 336.493, 270.472 335.981, 276.288 333.254 C 283.753 329.752, 293.527 321.170, 296.595 315.423 C 298.635 311.602, 298.341 311.651, 307.733 313.564 C 309.514 313.926, 314.677 313.506, 319.233 312.628 C 332.464 310.076, 380.118 301.261, 384.518 300.551 C 388.527 299.904, 388.543 299.915, 391.550 305.183 C 395.655 312.375, 399.761 315, 406.898 314.998 C 413.894 314.997, 418.482 312.774, 422.532 307.423 C 426.335 302.398, 428.784 294.823, 429.758 285.071 L 430.500 277.643 440 274.571 C 449.965 271.350, 459.703 266.419, 461.394 263.738 C 463.003 261.186, 460.550 257.320, 455.790 254.906 C 450.425 252.186, 450.034 251.572, 450.015 245.838 C 449.995 239.536, 447.491 226.850, 445.514 223.026 C 443.457 219.049, 441.556 218.378, 429.857 217.501 C 424.582 217.106, 419.836 216.494, 419.311 216.141 C 418.787 215.788, 415.369 210.946, 411.717 205.379 C 402.678 191.603, 393.694 183.402, 380.579 176.954 C 370.197 171.850, 354.273 167.179, 340 165.050 C 327.680 163.212, 293.299 162.921, 276.500 164.513 M 289 170.599 C 261.146 172.507, 216.771 178.621, 209.155 181.600 C 206.253 182.736, 206.091 182.914, 208.370 182.466 C 230.115 178.191, 277.006 172.724, 293 172.598 C 307.777 172.482, 311.903 173.206, 315.971 176.629 C 319.785 179.838, 319.892 183.163, 316.576 195.500 C 313.238 207.918, 312.409 209.816, 308.874 213.117 L 305.788 216 310.654 216 C 316.835 216, 317.367 215.178, 320.559 200.688 C 324.239 183.984, 325.684 179.646, 328.425 177.071 C 330.769 174.868, 331.388 174.775, 339.206 175.451 C 349.189 176.313, 366.610 179.365, 373.500 181.459 C 379.270 183.212, 381.138 183.390, 379 181.981 C 375.336 179.567, 361.033 175.935, 345.917 173.581 C 329.894 171.085, 302.706 169.660, 289 170.599 M 255.333 185.681 C 252.582 185.962, 250.288 186.985, 248.583 188.690 C 245.593 191.680, 245.238 193.358, 247.750 192.623 C 251.327 191.577, 261.474 190, 264.625 190 C 268.199 190, 269.292 189.090, 268.078 187.126 C 267.187 185.685, 261.552 185.045, 255.333 185.681 M 378.059 187.062 C 378.026 187.372, 379.289 191.422, 380.864 196.062 C 384.768 207.565, 389.623 218, 391.069 218 C 393.243 218, 399 213.864, 399 212.302 C 399 210.070, 393.060 202.350, 386.341 195.849 C 383.128 192.742, 379.964 189.367, 379.309 188.349 C 378.654 187.332, 378.091 186.753, 378.059 187.062 M 341.021 191.053 C 336.907 191.483, 333.195 191.620, 332.771 191.358 C 331.690 190.690, 331.626 190.406, 335.492 203.545 C 337.413 210.072, 339.569 215.998, 340.283 216.712 C 341.209 217.637, 347.601 218.241, 362.541 218.814 C 374.068 219.255, 383.822 219.359, 384.216 219.043 C 384.934 218.466, 374.699 193.594, 372.779 191.250 C 371.621 189.836, 353.726 189.725, 341.021 191.053 M 393.572 197.250 C 409.601 214.560, 408.770 221.007, 390.313 222.544 C 385.684 222.930, 368.343 222.673, 351.778 221.974 L 321.659 220.703 319.829 222.962 C 316.779 226.729, 317.773 238.964, 321.313 241.214 C 322.853 242.194, 395.131 242.204, 396.671 241.225 C 397.315 240.815, 398.141 239.287, 398.507 237.828 L 399.173 235.176 395.336 236.544 C 387.465 239.351, 383 238.040, 383 232.922 C 383 229.503, 384.903 227.957, 389.940 227.281 C 394.760 226.635, 398.960 228.929, 399.079 232.273 C 399.133 233.799, 399.627 233.176, 400.648 230.293 C 402.030 226.391, 405.371 222.655, 411.012 218.704 L 413.318 217.089 405.549 207.528 C 398.028 198.273, 390.620 191, 388.712 191 C 388.202 191, 390.389 193.813, 393.572 197.250 M 205.143 198.626 C 203.297 202.407, 200.576 207.300, 199.096 209.500 L 196.406 213.500 250.049 213.500 C 294.046 213.500, 303.989 213.253, 305.346 212.128 C 308.801 209.260, 307.129 208.752, 296.601 209.470 C 288.883 209.996, 285.596 209.847, 283.851 208.894 C 282.542 208.178, 277.321 207.484, 272.070 207.328 L 262.639 207.048 260.188 202.591 C 258.800 200.066, 256.602 197.691, 255.119 197.113 C 251.922 195.867, 231.281 193.221, 218.143 192.374 L 208.500 191.753 205.143 198.626 M 188.249 203.442 C 182.062 209.461, 177 214.748, 177 215.192 C 177 216.223, 190.096 216.226, 191.718 215.196 C 194.036 213.723, 200.132 199.024, 199.808 195.688 L 199.498 192.500 188.249 203.442 M 323.129 203.488 C 321.187 216.545, 320.951 216, 328.567 216 C 336.098 216, 335.841 217.271, 330.995 204 C 328.960 198.428, 327.742 196.422, 326.257 196.197 C 324.487 195.929, 324.130 196.763, 323.129 203.488 M 207 218.156 C 184.301 219.723, 155.491 228.910, 140.572 239.339 L 134.262 243.750 118.707 244.168 C 100.990 244.644, 100.881 244.560, 109.723 237.320 C 116.055 232.136, 119.269 230.169, 125.935 227.398 C 133.132 224.406, 130.899 224.427, 118.693 227.465 C 101.974 231.626, 92.353 237.467, 87.928 246.142 C 86.369 249.197, 85.212 256, 86.250 256 C 86.388 256, 89.643 255.343, 93.484 254.539 C 107.898 251.523, 123.983 251.542, 140.584 254.593 C 143.499 255.129, 143.765 254.905, 145.454 250.481 C 147.997 243.824, 156.315 235.883, 165.219 231.614 C 178.591 225.203, 195.078 220.731, 209.500 219.603 C 216.211 219.078, 216.037 219.155, 205.286 221.481 C 183.353 226.226, 170.119 231.742, 160.631 240.094 C 154.820 245.209, 153 248.615, 153 254.374 C 153 262.815, 162.305 269.650, 175.241 270.710 L 182.500 271.304 178.365 267.265 C 171.382 260.444, 170.274 252.263, 175.007 242.485 C 180.714 230.696, 199.737 223.194, 232.299 219.893 C 238.734 219.241, 244 218.314, 244 217.833 C 244 217.027, 229.359 217.472, 220.833 218.539 C 218.816 218.791, 217.016 218.660, 216.833 218.249 C 216.650 217.837, 212.225 217.795, 207 218.156 M 280 222.104 C 263.826 223.516, 232.955 227.019, 223.317 228.536 C 208.681 230.840, 207.603 231.762, 210.358 239.624 C 211.105 241.756, 212.032 245.637, 212.419 248.250 C 212.808 250.873, 213.655 252.993, 214.311 252.985 C 214.965 252.977, 218.200 252.337, 221.500 251.563 C 236.934 247.944, 274.350 243.406, 296.500 242.468 C 315.639 241.657, 314.987 241.852, 313.920 237.257 C 313.440 235.191, 313.037 230.688, 313.024 227.250 L 313 221 301.250 221.138 C 294.788 221.213, 285.225 221.648, 280 222.104 M 417.002 222.100 C 408.995 223.667, 403.994 229.002, 403.248 236.774 L 402.775 241.697 407.527 242.349 C 412.782 243.069, 446 243.256, 446 242.565 C 446 240.662, 442.774 227.445, 441.919 225.849 C 439.573 221.465, 428.645 219.820, 417.002 222.100 M 192.500 235.877 C 195.834 237.955, 200.166 242.437, 201.799 245.500 C 203.757 249.172, 204.357 244.555, 202.445 240.526 C 200.553 236.539, 196.601 233.998, 192.300 234.004 L 189.500 234.007 192.500 235.877 M 185.357 243.992 C 179.840 246.218, 178.362 253.453, 182.566 257.657 C 188.895 263.986, 199.140 254.834, 194.850 246.684 C 192.877 242.935, 189.999 242.118, 185.357 243.992 M 67.522 248.250 C 63.882 251.413, 63.085 257.085, 65.887 259.887 C 70.723 264.723, 77.671 260.104, 76.685 252.711 C 75.769 245.838, 72.262 244.131, 67.522 248.250 M 433.010 259.126 C 422.107 260.388, 422.053 261.096, 432.904 260.509 C 438.076 260.229, 445.613 260, 449.654 260 C 453.885 260, 457 259.576, 457 259 C 457 257.808, 443.802 257.877, 433.010 259.126 M 419.750 261.662 C 420.438 261.940, 421.563 261.940, 422.250 261.662 C 422.938 261.385, 422.375 261.158, 421 261.158 C 419.625 261.158, 419.063 261.385, 419.750 261.662 M 436 264.125 C 421.595 266.071, 416.090 267.221, 414.338 268.650 C 413.327 269.474, 412.950 269.936, 413.500 269.676 C 414.050 269.417, 419.675 268.451, 426 267.530 C 440.791 265.376, 450.918 263.196, 446 263.226 C 444.075 263.237, 439.575 263.642, 436 264.125 M 256.869 268.453 C 254.532 269.773, 252.431 272.764, 253.259 273.592 C 253.427 273.760, 255.492 273.409, 257.848 272.810 C 266.519 270.610, 275.212 276.543, 278.022 286.578 C 279.467 291.741, 281.649 291.963, 281.194 286.901 C 280.678 281.154, 276.207 273.165, 271.920 270.328 C 267.213 267.214, 260.536 266.382, 256.869 268.453 M 61.446 282.087 C 61.077 282.685, 61.259 283.659, 61.852 284.252 C 63.203 285.603, 181.028 286.606, 211.250 285.523 C 230.669 284.828, 232 284.659, 232 282.890 C 232 281.052, 229.685 281, 147.059 281 C 86.972 281, 61.921 281.318, 61.446 282.087 M 408.231 290.354 C 408.517 292.893, 409.492 296.103, 410.399 297.486 C 413.600 302.371, 420.225 299.834, 422.933 292.685 C 424.724 287.959, 424.042 286.253, 421.948 290.219 C 419.744 294.392, 416.964 296.277, 413.698 295.813 C 411.906 295.558, 411.408 294.683, 411 291.078 C 410.714 288.545, 409.904 286.459, 409.105 286.196 C 408 285.832, 407.818 286.696, 408.231 290.354 M 172.655 292.829 C 170.418 295.300, 170.517 301.253, 172.829 303.345 C 175.336 305.614, 179.681 305.465, 180.965 303.066 C 184.811 295.880, 177.757 287.191, 172.655 292.829 M 244.160 295.240 C 240.861 298.539, 245.389 310.758, 251.422 314.837 C 258.492 319.618, 267.528 318.965, 273.438 313.245 C 277.307 309.500, 281.972 301.049, 281.990 297.750 C 282.005 295.170, 279.312 295.621, 278.637 298.311 C 277.558 302.610, 271.974 309.109, 267.688 311.055 C 265.385 312.100, 261.543 312.966, 259.150 312.978 C 255.546 312.996, 254.234 312.434, 251.497 309.697 C 248.830 307.030, 248.055 305.291, 247.480 300.683 C 246.716 294.572, 246.001 293.399, 244.160 295.240 M 283.236 306.280 C 281.441 309.024, 280.648 310.707, 281.474 310.022 C 283.221 308.571, 287.400 302.037, 286.864 301.593 C 286.664 301.427, 285.031 303.536, 283.236 306.280 M 117.381 363.981 C 117.743 366.246, 119.402 372.352, 121.067 377.550 C 124.089 386.986, 124.099 387, 127.425 387 C 131.578 387, 132.378 386.034, 134.664 378.251 C 135.674 374.815, 136.775 372.002, 137.111 372.001 C 137.447 372.001, 138.716 375.150, 139.931 379 L 142.140 386 148.469 386 L 154.799 386 159.319 373.750 L 163.840 361.500 161.336 361.175 C 157.366 360.661, 156.518 361.431, 154.492 367.392 C 153.444 370.477, 152.229 373, 151.793 373 C 151.357 373, 151 370.300, 151 367 L 151 361 147.856 361 L 144.711 361 145.245 368.750 L 145.780 376.500 143.507 369.667 C 140.764 361.422, 140.179 360.764, 135.954 361.177 C 132.459 361.519, 132.340 361.712, 129.988 370.851 C 129.372 373.244, 128.632 374.965, 128.343 374.676 C 128.054 374.387, 127.045 371.080, 126.101 367.325 L 124.384 360.500 120.553 360.181 L 116.722 359.863 117.381 363.981 M 173.704 361.439 C 171.999 363.144, 164 382.915, 164 385.425 C 164 386.560, 164.983 387, 167.525 387 C 170.364 387, 171.234 386.514, 172 384.500 C 172.788 382.429, 173.613 382, 176.815 382 C 179.966 382, 180.889 382.461, 181.818 384.500 C 182.789 386.630, 183.626 387, 187.479 387 C 189.965 387, 192 386.757, 192 386.460 C 192 386.163, 191.059 384.075, 189.908 381.820 C 188.758 379.565, 186.322 373.846, 184.495 369.110 C 181.440 361.192, 180.935 360.476, 178.212 360.196 C 176.512 360.021, 174.592 360.551, 173.704 361.439 M 200.643 361.028 C 192.192 363.561, 191.611 371.124, 199.494 375.996 C 203.853 378.690, 203.174 380.103, 197.684 379.761 C 193.920 379.526, 193.465 379.745, 193.155 381.944 C 192.692 385.227, 195.346 387, 200.723 387 C 206.879 387, 211.780 384.725, 212.591 381.492 C 213.557 377.645, 211.634 374.364, 207.040 372.020 C 204.818 370.887, 203 369.324, 203 368.547 C 203 366.714, 206.138 365.746, 209.415 366.568 C 211.566 367.108, 212 366.872, 212 365.165 C 212 362.762, 208.432 359.963, 205.527 360.086 C 204.412 360.133, 202.214 360.557, 200.643 361.028 M 233.607 361.582 C 233.273 362.452, 233 364.702, 233 366.582 C 233 369.886, 232.870 370, 229.117 370 C 225.037 370, 224.047 368.690, 224.014 363.250 C 224.002 361.348, 223.459 361, 220.500 361 L 217 361 217 373.500 L 217 386 220.393 386 C 224.163 386, 225 384.804, 225 379.418 C 225 376.097, 225.113 376, 229 376 L 233 376 233 381 L 233 386 237 386 L 241 386 241 373 L 241 360 237.607 360 C 235.435 360, 233.995 360.569, 233.607 361.582 M 254.262 361.250 C 253.053 362.788, 245.308 381.790, 244.840 384.369 C 244.575 385.827, 245.219 386.320, 247.774 386.613 C 250.481 386.923, 251.245 386.556, 252.185 384.494 C 253.135 382.407, 254.012 382, 257.552 382 C 261.231 382, 261.865 382.326, 262.411 384.500 C 262.948 386.643, 263.607 387, 267.019 387 C 269.529 387, 271.006 386.538, 271.015 385.750 C 271.024 385.063, 268.932 378.988, 266.367 372.250 C 261.733 360.075, 261.685 360, 258.475 360 C 256.698 360, 254.803 360.563, 254.262 361.250 M 275.714 360.619 C 274.935 361.398, 274.705 385.372, 275.469 386.136 C 275.728 386.394, 277.541 386.419, 279.498 386.190 L 283.058 385.774 282.779 373.137 L 282.500 360.500 279.464 360.203 C 277.794 360.039, 276.107 360.227, 275.714 360.619 M 308.250 360.644 C 307.563 360.931, 306.955 362.592, 306.900 364.333 C 306.845 366.075, 306.508 368.521, 306.150 369.769 C 305.548 371.869, 305.173 371.627, 301.101 366.519 C 297.186 361.609, 296.292 361, 292.989 361 L 289.278 361 288.705 367.250 C 288.391 370.688, 288.393 376.313, 288.711 379.750 L 289.289 386 292.599 386 L 295.909 386 296.204 379.250 L 296.500 372.500 301.255 379.134 C 305.888 385.598, 308.166 387.060, 312.279 386.210 C 313.890 385.877, 314.032 384.643, 313.779 373.171 C 313.518 361.334, 313.368 360.488, 311.500 360.310 C 310.400 360.206, 308.938 360.356, 308.250 360.644 M 326.395 361.025 C 317.329 363.818, 314.152 375.879, 320.746 382.473 C 324.515 386.242, 332.653 388.004, 338.750 386.370 C 341.358 385.671, 341.845 381.538, 339.671 378.565 C 338.585 377.080, 337.956 376.953, 336.237 377.873 C 332.729 379.751, 328.287 379.248, 326.557 376.777 C 324.305 373.563, 324.630 371.436, 327.747 368.984 C 330.415 366.885, 331.695 366.807, 339.318 368.273 C 340.728 368.544, 341.372 364.041, 340.184 362.224 C 339.096 360.560, 330.368 359.802, 326.395 361.025 M 347.305 360.723 C 346.503 361.278, 346.053 365.629, 345.939 373.923 L 345.768 386.295 349.385 386.397 C 352.915 386.498, 353.001 386.411, 353.001 382.750 C 353 378.085, 355.271 377.690, 357.485 381.970 C 359.257 385.398, 361.789 387, 365.434 387 C 368.681 387, 368.699 385.309, 365.501 380.597 L 363.003 376.915 365.128 374.040 C 367.866 370.337, 367.062 364.742, 363.453 362.377 C 360.742 360.601, 349.190 359.418, 347.305 360.723 M 372 374 L 372 387 376.750 386.989 C 379.363 386.983, 383.188 386.699, 385.250 386.358 C 388.568 385.810, 389 385.408, 389 382.869 C 389 380.135, 388.788 380, 384.500 380 C 380.667 380, 380 379.704, 380 378 C 380 376.296, 380.667 376, 384.500 376 C 389.213 376, 389.341 375.876, 388.370 372.250 C 387.876 370.406, 387.065 370, 383.883 370 C 381.098 370, 380 369.576, 380 368.500 C 380 367.389, 381.167 367, 384.500 367 C 388.833 367, 389 366.889, 389 364 L 389 361 380.500 361 L 372 361 372 374 M 353 369.430 C 353 371.523, 353.477 372, 355.570 372 C 357.662 372, 358.080 371.582, 357.820 369.750 C 357.614 368.304, 356.696 367.386, 355.250 367.180 C 353.418 366.920, 353 367.338, 353 369.430 M 175.605 372.588 C 174.579 375.262, 174.931 377, 176.500 377 C 177.424 377, 178 376.062, 178 374.559 C 178 371.640, 176.456 370.369, 175.605 372.588 M 256.531 372.902 C 255.708 375.494, 256.218 376.317, 258.352 375.838 C 259.637 375.550, 259.667 375.140, 258.553 373.077 L 257.245 370.654 256.531 372.902" stroke="none" fill="black" fill-rule="evenodd"/>
</svg>