<svg xmlns="http://www.w3.org/2000/svg" width="512" height="512" viewBox="0 0 512 512" version="1.1">
	<path d="M 259 150.680 C 236.675 151.938, 210.039 154.413, 202.495 155.930 C 184.186 159.611, 173.902 165.031, 143.368 187.093 C 136.110 192.338, 129.485 196.331, 126.877 197.033 C 120.935 198.633, 117.492 201.293, 116.390 205.137 C 115.495 208.258, 114.992 208.514, 100.603 213.165 C 70.964 222.747, 57.566 231.174, 51.869 243.818 C 50.304 247.293, 47.421 252.091, 45.463 254.480 C 41.272 259.595, 40.291 264.150, 41.966 270.721 C 42.637 273.349, 43.818 279.962, 44.591 285.415 C 45.365 290.869, 46.205 295.538, 46.459 295.792 C 46.713 296.046, 46.205 297.637, 45.331 299.327 C 44.109 301.690, 43.866 304.219, 44.281 310.272 C 44.953 320.077, 46.371 322, 52.928 322 C 57.202 322, 57.689 322.267, 59.481 325.595 C 61.881 330.050, 69.307 336.802, 74.913 339.626 L 79.134 341.751 61.574 342.483 C 51.916 342.885, 44.227 343.559, 44.488 343.980 C 44.748 344.401, 58.132 345.050, 74.230 345.423 C 90.329 345.796, 124.875 346.730, 151 347.499 C 219.833 349.525, 232.013 349.576, 332.500 348.248 C 428.201 346.983, 455.949 346.364, 465 345.295 L 470.500 344.644 466 343.896 C 463.525 343.485, 455.998 343.115, 449.272 343.074 L 437.045 343 441.409 338.977 C 446.360 334.413, 449.183 328.558, 452.119 316.760 C 453.565 310.951, 455.039 307.580, 457.221 305.096 C 462.850 298.685, 464.353 293.753, 463.613 284.124 C 463.254 279.455, 462.341 273.130, 461.584 270.068 C 460.827 267.005, 459.935 260.581, 459.601 255.791 C 458.984 246.935, 457.554 242.012, 455.589 241.985 C 454.990 241.976, 455.131 241.570, 455.902 241.081 C 458.743 239.283, 451.347 215, 447.958 215 C 447.475 215, 440.805 207.463, 433.135 198.250 C 425.465 189.037, 417.122 179.494, 414.595 177.042 C 412.068 174.590, 410 172.029, 410 171.351 C 410 169.539, 408.965 169.122, 399.155 166.981 C 394.251 165.910, 386.793 163.655, 382.583 161.969 C 378.372 160.284, 369.855 157.578, 363.655 155.956 C 343.395 150.658, 335.887 149.994, 298.500 150.191 C 279.800 150.289, 262.025 150.509, 259 150.680 M 323.228 156.079 C 311.431 157.663, 304.105 163.611, 294.120 179.709 C 286.865 191.407, 283.535 198.345, 284.949 198.816 C 285.606 199.035, 283.074 200.796, 279.322 202.729 C 275.570 204.661, 272.215 206.526, 271.867 206.871 C 271.519 207.217, 270.929 209.637, 270.556 212.250 L 269.877 217 273.689 216.882 C 282.051 216.622, 283.083 215.978, 284.981 209.835 C 288.641 197.987, 304.590 171.260, 311.943 164.651 C 316.815 160.272, 323.319 157.014, 327 157.108 L 329.500 157.172 326.994 157.934 C 319.862 160.104, 313.631 164.872, 308.072 172.415 C 303.757 178.268, 300.299 184.651, 304.222 179.520 C 305.475 177.881, 309.118 173.761, 312.319 170.364 C 324.382 157.559, 335.904 156.402, 370 164.571 C 377.975 166.482, 385.400 168.261, 386.500 168.524 C 391.818 169.798, 378.308 164.516, 369.727 161.967 C 359.595 158.957, 339.183 155.659, 333.642 156.136 C 331.898 156.286, 330.028 156.176, 329.486 155.890 C 328.944 155.604, 326.128 155.689, 323.228 156.079 M 273.500 157.986 C 259.839 158.545, 257.161 158.982, 243.500 162.883 C 235.250 165.240, 228.275 167.406, 228 167.697 C 227.433 168.297, 232.831 167.673, 251.500 164.980 C 258.650 163.949, 271.925 162.374, 281 161.480 C 290.075 160.586, 297.928 159.437, 298.450 158.927 C 299.038 158.354, 297.829 158, 295.282 158 C 293.017 158, 290.564 157.859, 289.832 157.686 C 289.099 157.513, 281.750 157.648, 273.500 157.986 M 325.882 164.381 C 318.438 167.041, 314.727 170.209, 306.103 181.269 C 304.946 182.753, 304.931 184.250, 306.011 190.563 L 307.298 198.089 309.899 195.608 C 311.330 194.244, 313.767 192.649, 315.315 192.064 C 322.552 189.329, 334.812 192.028, 341.146 197.751 C 344.585 200.857, 345.117 201.873, 344.787 204.695 C 344.328 208.628, 344.070 208.594, 360.317 206.787 C 367.121 206.030, 371.406 205.105, 371.704 204.328 C 372.438 202.417, 366.532 182.291, 362.632 173.415 L 359.156 165.500 353.828 164.346 C 346.551 162.771, 330.331 162.791, 325.882 164.381 M 365.561 169.250 C 365.944 170.488, 367.047 173.075, 368.013 175 C 369.973 178.906, 374.094 191.721, 375.972 199.753 C 377.311 205.478, 377.915 206.289, 379.919 205.050 C 380.980 204.395, 380.693 202.575, 378.474 195.866 C 374.994 185.349, 366.899 167, 365.739 167 C 365.258 167, 365.178 168.012, 365.561 169.250 M 373.582 173.629 C 374.956 176.308, 378.225 184.125, 380.847 191 L 385.613 203.500 390.556 203.831 C 393.275 204.013, 399.222 203.860, 403.771 203.490 L 412.042 202.817 408.342 195.968 C 403.177 186.404, 395.571 176.318, 391.792 174.019 C 388.745 172.167, 383.729 170.780, 375.065 169.394 L 371.083 168.758 373.582 173.629 M 399.036 172.669 C 399.814 173.676, 401.695 175.973, 403.215 177.773 C 404.736 179.573, 408.743 185.198, 412.122 190.273 C 415.500 195.348, 420.117 201.142, 422.382 203.149 L 426.500 206.797 422.780 207.504 L 419.059 208.211 421.723 211.703 C 427.347 219.076, 425.741 230.497, 415.578 255.405 C 407.844 274.361, 404.750 280.425, 402.598 280.839 C 401.007 281.145, 400.838 280.780, 401.448 278.351 C 402.234 275.221, 401.881 275.327, 400.095 278.759 C 399.051 280.766, 399.203 281.127, 401.451 281.981 C 402.843 282.511, 404.615 282.701, 405.387 282.405 C 406.160 282.109, 408.974 277.734, 411.642 272.683 C 420.175 256.530, 430.028 248.657, 439.488 250.432 C 444.705 251.410, 453.440 260.064, 454.949 265.750 C 456.221 270.542, 457.512 271.607, 456.508 267.036 C 456.150 265.406, 455.264 259.511, 454.539 253.936 C 453.255 244.067, 453.110 243.688, 449.016 239.517 C 445.380 235.812, 444.628 234.269, 443.454 228.103 C 442.706 224.182, 441.430 220.024, 440.617 218.863 C 439.505 217.276, 439.407 216.320, 440.224 215.013 C 441.433 213.077, 441.132 212.607, 428.076 196.034 C 418.813 184.276, 410.280 174.853, 407.565 173.382 C 406.429 172.767, 403.727 171.943, 401.560 171.551 C 397.850 170.880, 397.703 170.945, 399.036 172.669 M 201.428 179.417 C 193.666 181.187, 183.180 185.653, 174.726 190.790 C 167.722 195.045, 152.703 206.037, 153.206 206.540 C 153.369 206.702, 161.151 206.371, 170.501 205.804 C 179.850 205.237, 202.800 204.696, 221.500 204.603 C 240.200 204.509, 256.032 204.102, 256.682 203.699 C 257.574 203.146, 257.514 202.296, 256.438 200.233 C 255.654 198.730, 255.010 196.698, 255.006 195.718 C 254.994 192.297, 257.916 186.996, 260.448 185.842 C 261.852 185.202, 263 184.372, 263 183.998 C 263 182.527, 255.063 181.157, 246.500 181.150 C 241.550 181.146, 235.212 180.686, 232.415 180.128 C 223.134 178.278, 207.950 177.929, 201.428 179.417 M 232.577 185.250 C 229.901 189.351, 225.835 199.005, 226.256 200.263 C 226.483 200.943, 228.669 197.338, 231.114 192.250 C 235.236 183.672, 236.003 180.002, 232.577 185.250 M 295.692 193.684 C 289.374 204.477, 288.826 206.323, 293.147 202.250 C 297.412 198.230, 298.522 198.189, 299.850 202 C 300.999 205.296, 302.714 205.908, 303.689 203.369 C 304.469 201.334, 302.485 188.085, 301.209 186.809 C 300.621 186.221, 298.551 188.800, 295.692 193.684 M 122.667 201.667 C 121.307 203.026, 122.072 204, 124.500 204 C 126.056 204, 127 203.433, 127 202.500 C 127 201, 123.925 200.409, 122.667 201.667 M 332.222 203.935 C 323.210 206.149, 321.657 207.485, 329.063 206.652 C 335.505 205.928, 341 204.201, 341 202.902 C 341 201.776, 341.024 201.773, 332.222 203.935 M 263.990 208.435 C 262.060 209.147, 254.635 210.714, 247.490 211.918 C 240.346 213.123, 229.325 215.404, 223 216.987 C 216.675 218.571, 206.550 220.814, 200.500 221.971 C 194.450 223.128, 185.964 224.955, 181.642 226.030 C 177.321 227.105, 173.359 227.722, 172.839 227.401 C 171.761 226.734, 157.926 232.457, 153.689 235.323 C 151.313 236.929, 148.443 237.297, 135.189 237.698 C 126.560 237.960, 115.900 238.840, 111.500 239.654 C 98.726 242.019, 94.353 242.320, 90.816 241.074 C 88.992 240.432, 83.091 239.633, 77.702 239.299 C 69.785 238.809, 68.009 238.418, 68.452 237.264 C 68.753 236.479, 69 235.458, 69 234.995 C 69 234.532, 70.607 232.048, 72.570 229.476 L 76.140 224.799 71.143 227.519 C 68.394 229.015, 64.958 231.478, 63.507 232.993 C 60.965 235.646, 60.922 235.878, 62.348 239.291 C 63.723 242.582, 64.210 242.877, 69.164 243.423 C 85.007 245.170, 143.531 243.840, 149 241.609 C 156.306 238.629, 192.492 227.779, 203.260 225.340 C 211.380 223.501, 216.307 222.919, 221.008 223.246 C 227.564 223.702, 234 226.125, 234 228.138 C 234 228.736, 231.975 231.919, 229.500 235.212 C 227.025 238.504, 225 241.812, 225 242.563 C 225 244.271, 231.831 249, 234.299 249 C 235.308 249, 237.652 247.842, 239.508 246.426 C 247.808 240.095, 260.586 238.169, 268.587 242.042 C 274.141 244.731, 281.540 252.753, 284.570 259.372 C 287.463 265.690, 291 279.007, 291 283.578 C 291 287.854, 291.883 290, 293.641 290 C 294.779 290, 294.937 288.935, 294.420 284.750 C 292.496 269.197, 288.637 256.102, 283.429 247.453 C 279.554 241.018, 279.888 240.050, 286 240.004 C 287.925 239.990, 291.188 239.699, 293.250 239.358 C 297.826 238.602, 297.986 237.281, 294.500 229 C 293.125 225.733, 292 222.173, 292 221.089 C 292 220.005, 291.584 218.861, 291.075 218.546 C 290.566 218.232, 285.828 218.456, 280.546 219.045 C 269.278 220.302, 266.510 219.795, 267.486 216.654 C 267.854 215.469, 268.510 212.813, 268.943 210.750 C 269.824 206.561, 269.492 206.406, 263.990 208.435 M 393.250 208.732 C 390.913 208.943, 389 209.550, 389 210.083 C 389 210.615, 391.700 213.953, 395 217.500 L 401 223.950 401 230.975 L 401 238 408.567 238 C 417.511 238, 417.532 235.545, 408.393 258.432 C 404.893 267.194, 402.183 274.516, 402.369 274.702 C 402.555 274.888, 404.550 270.644, 406.803 265.270 C 409.057 259.897, 412.993 250.550, 415.551 244.500 C 420.895 231.860, 422.325 223.848, 420.505 216.737 C 418.467 208.774, 417.164 207.972, 406.595 208.175 C 401.593 208.271, 395.587 208.522, 393.250 208.732 M 171 210.084 C 142.544 211.105, 119.207 212.749, 115.500 213.993 C 112.174 215.110, 135.571 214.706, 170.500 213.043 C 208.950 211.213, 218.959 210.989, 213.500 212.082 C 202.354 214.312, 176.359 223.433, 173.550 226.099 C 172.025 227.546, 173.285 227.198, 182.650 223.589 C 192.765 219.689, 217.370 212.424, 227 210.492 C 233.158 209.257, 232.421 209.191, 213 209.250 C 201.725 209.284, 182.825 209.660, 171 210.084 M 380 209.666 C 378.625 209.802, 368.950 210.657, 358.500 211.567 C 348.050 212.477, 338.359 213.808, 336.965 214.525 C 332.577 216.782, 327.504 217.213, 319.541 216.006 C 315.300 215.363, 311.571 215.096, 311.254 215.413 C 310.938 215.729, 311.426 216.813, 312.339 217.823 C 316.359 222.264, 311.876 225.807, 301.662 226.262 L 296.318 226.500 298.409 232.340 L 300.500 238.180 304.500 237.706 C 306.700 237.445, 314.800 236.485, 322.500 235.572 C 343.136 233.126, 367.142 229.977, 370 229.341 C 372.413 228.804, 372.430 228.835, 370.500 230.250 C 369.400 231.056, 366.700 232.284, 364.500 232.979 C 357.349 235.236, 358.288 236, 368.213 236 L 377.826 236 376.732 233.101 C 375.843 230.744, 375.962 229.707, 377.371 227.556 C 379.773 223.891, 383.452 222.740, 390.248 223.529 C 393.411 223.896, 396 223.855, 396 223.439 C 396 222.582, 385.080 210.793, 383.515 209.959 C 382.957 209.662, 381.375 209.530, 380 209.666 M 443.485 219.670 C 443.902 220.677, 444.867 224.361, 445.629 227.857 C 447.333 235.676, 447.529 236, 450.559 236 C 453.673 236, 453.705 233.776, 450.715 225 C 448.738 219.200, 448.189 218.465, 445.612 218.170 C 443.150 217.889, 442.837 218.110, 443.485 219.670 M 282.500 224 C 282.160 224.550, 282.359 225, 282.941 225 C 283.523 225, 284 224.550, 284 224 C 284 223.450, 283.802 223, 283.559 223 C 283.316 223, 282.840 223.450, 282.500 224 M 205 229.396 C 200.325 230.658, 190.200 233.357, 182.500 235.395 C 161.594 240.929, 155.655 242.790, 153.475 244.491 C 151.560 245.984, 151.576 246.017, 154 245.578 C 155.375 245.330, 158.477 244.857, 160.892 244.528 C 163.308 244.200, 169.833 242.403, 175.392 240.535 C 195.860 233.658, 214.620 229.177, 223.500 229.044 C 227.112 228.990, 228.084 228.700, 227 228 C 224.424 226.335, 213.864 227.005, 205 229.396 M 384.073 228.378 C 381.639 229.028, 379.442 230.175, 379.191 230.926 C 378.827 232.018, 379.756 232.157, 383.810 231.620 C 388.692 230.972, 396 228.494, 396 227.487 C 396 226.615, 388.608 227.167, 384.073 228.378 M 217 230.682 C 212.022 231.498, 197.787 235.099, 194.186 236.454 C 192.159 237.217, 188.136 238.372, 185.247 239.021 C 179.112 240.399, 178.573 240.970, 180.148 244.425 C 181.115 246.549, 182.002 247, 185.207 247 C 188.479 247, 189.362 246.526, 190.797 244.001 C 192.427 241.131, 192.776 241.008, 198.917 241.134 C 205.684 241.272, 208 239.915, 208 235.809 C 208 234.814, 208.427 234, 208.948 234 C 210.364 234, 208.061 239.978, 205.169 243.810 L 202.670 247.121 205.585 246.417 C 213.509 244.502, 221.399 238.578, 225.117 231.750 C 225.942 230.236, 225.627 230.018, 222.785 230.136 C 220.978 230.211, 218.375 230.457, 217 230.682 M 391.230 233.963 C 386.572 237.027, 387.138 238, 393.582 238 C 396.822 238, 397 237.817, 397 234.500 C 397 232.575, 396.663 231.035, 396.250 231.078 C 395.837 231.121, 393.579 232.419, 391.230 233.963 M 98 233.290 C 96.625 233.983, 95.356 235.551, 95.180 236.775 C 94.903 238.705, 95.316 239, 98.296 239 C 102.740 239, 107.599 235.427, 105.915 233.398 C 104.481 231.670, 101.299 231.626, 98 233.290 M 56.582 238.235 C 55.754 239.499, 54.375 242.519, 53.519 244.947 C 51.352 251.088, 52.881 252.190, 57.699 247.960 C 59.789 246.124, 61.462 244.370, 61.415 244.061 C 60.964 241.079, 59.578 236.857, 58.915 236.447 C 58.460 236.166, 57.410 236.970, 56.582 238.235 M 217 248.242 C 202.791 252.281, 192.030 254.117, 174.171 255.549 C 147.332 257.701, 130.849 259.670, 111.460 263.039 C 102.088 264.668, 92.349 266, 89.819 266 C 82.328 266, 63.751 260.619, 51.754 254.975 C 49.379 253.857, 48.746 253.920, 47.068 255.438 C 46.001 256.404, 44.667 258.518, 44.103 260.136 C 43.253 262.573, 43.404 263.404, 44.986 264.986 C 49.150 269.150, 53.354 269.504, 97.500 269.415 C 138.811 269.331, 139.894 269.277, 163.500 266.137 C 187.078 263, 199.199 260.658, 207.876 257.562 C 215.026 255.010, 215.206 255.215, 212.390 262.697 C 209.518 270.327, 205.617 285.951, 206.391 286.724 C 207.293 287.626, 213.878 285.979, 215.381 284.476 C 216.176 283.681, 217.829 279.986, 219.053 276.265 C 221.468 268.929, 226.076 259.168, 229.241 254.686 L 231.228 251.871 229.028 249.530 C 225.982 246.288, 224.450 246.124, 217 248.242 M 244.309 275.230 C 242.554 275.794, 239.629 277.542, 237.809 279.114 L 234.500 281.973 238.218 280.487 C 242.886 278.620, 244.365 278.606, 243.663 280.435 C 243.360 281.225, 243.580 282.027, 244.152 282.217 C 244.724 282.408, 245.262 285.025, 245.346 288.032 L 245.500 293.500 238.317 293.516 C 234.367 293.525, 230.873 293.794, 230.552 294.115 C 229.584 295.082, 226.910 306.243, 227.503 306.837 C 227.807 307.140, 230.658 306.851, 233.838 306.194 C 242.513 304.403, 243.683 304.576, 244.311 307.750 C 244.756 309.998, 244.100 311.276, 240.719 314.750 C 238.445 317.087, 235.817 319, 234.881 319 C 232.937 319, 228 313.564, 228 311.423 C 228 310.640, 227.550 310, 227 310 C 225.572 310, 225.763 312.949, 227.528 318.128 C 232.057 331.420, 247.072 338.574, 259.758 333.485 C 274.373 327.621, 280.636 304.947, 272.215 288.383 C 266.100 276.354, 255.848 271.521, 244.309 275.230 M 49.107 285.296 C 50.629 289.808, 52.152 295.211, 52.492 297.303 C 53.045 300.702, 55.246 303.088, 56.589 301.744 C 57.174 301.159, 48.141 278.205, 47.064 277.539 C 46.666 277.294, 47.586 280.784, 49.107 285.296 M 253.667 277.667 C 252.859 278.474, 252.764 292, 253.566 292 C 254.807 292, 258.642 289.624, 261.108 287.326 C 262.543 285.990, 264.681 284.824, 265.858 284.736 C 269.124 284.490, 268.456 283.245, 263.304 279.978 C 258.812 277.129, 255.096 276.238, 253.667 277.667 M 152.661 280.993 C 148.981 284.224, 145.281 291.743, 144.171 298.247 C 143.556 301.850, 143.029 302.467, 139.489 303.733 C 131.832 306.470, 119.362 308.032, 100.500 308.618 C 78.532 309.299, 65.140 307.716, 56.212 303.383 C 50.747 300.730, 48 300.776, 48 303.520 C 48 309.638, 83.147 313.403, 119.091 311.134 C 136.237 310.052, 173.969 305.968, 185 304.001 C 190.314 303.053, 195 299.683, 195 296.809 C 195 296.216, 194.123 296.845, 193.051 298.208 C 191.154 300.620, 190.645 300.704, 173.801 301.371 C 164.286 301.748, 154.363 302.422, 151.750 302.869 C 146.545 303.761, 145.552 302.981, 149.564 301.153 C 151.889 300.093, 151.982 299.839, 150.564 298.421 C 148.660 296.517, 148.613 297.463, 150.993 289.759 C 152.089 286.211, 154.092 282.114, 155.445 280.654 C 158.779 277.056, 156.882 277.287, 152.661 280.993 M 430.062 281.767 C 428.331 282.605, 426.457 284.146, 425.898 285.191 C 424.978 286.910, 425.073 286.971, 426.895 285.834 C 428.003 285.142, 429.173 284.839, 429.495 285.161 C 430.374 286.040, 431.804 296.010, 431.105 296.391 C 430.772 296.572, 429.038 296.107, 427.250 295.358 C 425.008 294.417, 423.975 293.297, 423.919 291.747 C 423.846 289.744, 423.688 289.826, 422.464 292.500 C 419.439 299.106, 421.344 319.369, 425.554 325.380 C 427.600 328.302, 432.200 330.986, 435.173 330.993 C 438.016 331, 444 326.656, 444 324.585 C 444 323.160, 439.839 319, 438.413 319 C 437.886 319, 436.607 320.575, 435.570 322.500 C 434.241 324.968, 432.994 326, 431.343 326 C 430.054 326, 429 325.768, 429 325.485 C 429 324.391, 435.228 314, 435.884 314 C 436.265 314, 438.300 316.062, 440.406 318.582 C 443.070 321.768, 444.555 322.845, 445.281 322.119 C 445.856 321.544, 446.542 317.358, 446.804 312.817 L 447.282 304.560 444.799 307.448 C 443.150 309.364, 441.758 310.121, 440.658 309.699 C 437.653 308.546, 438.838 305.903, 443.115 304.223 L 447.229 302.607 446.585 297.123 C 445.909 291.378, 443.701 286.894, 439.812 283.371 C 436.594 280.456, 433.739 279.986, 430.062 281.767 M 437.596 285.845 C 437.308 286.310, 436.764 288.626, 436.385 290.992 L 435.698 295.293 438.599 294.581 C 443.707 293.327, 444.556 291.671, 441.920 288.106 C 439.563 284.917, 438.509 284.367, 437.596 285.845 M 195.232 292 C 195.232 293.925, 195.438 294.712, 195.689 293.750 C 195.941 292.788, 195.941 291.212, 195.689 290.250 C 195.438 289.288, 195.232 290.075, 195.232 292 M 187.393 291.582 C 187.727 292.452, 188 293.378, 188 293.641 C 188 293.903, 188.450 293.840, 189 293.500 C 190.593 292.515, 190.157 290, 188.393 290 C 187.338 290, 186.995 290.544, 187.393 291.582 M 362.039 297.005 C 346.935 299.636, 328.598 302.613, 321.289 303.621 C 313.980 304.629, 308 305.824, 308 306.276 C 308 306.729, 310.587 306.849, 313.750 306.542 C 316.913 306.236, 327.375 305.525, 337 304.963 C 374.433 302.776, 386.948 300.285, 390.806 294.250 C 392.593 291.453, 395.525 291.173, 362.039 297.005 M 264.832 296.297 C 262.455 298.111, 260.363 300.356, 260.183 301.286 C 259.781 303.374, 265.092 306.224, 265.743 304.270 C 265.965 303.606, 267.688 302.774, 269.573 302.420 C 272.509 301.870, 273 301.375, 273 298.970 C 273 292.140, 271.098 291.518, 264.832 296.297 M 246.169 298.512 C 242.920 302.643, 245.152 308, 250.122 308 C 252.961 308, 257 305.019, 257 302.923 C 257 301.302, 251.370 296, 249.650 296 C 248.822 296, 247.256 297.130, 246.169 298.512 M 230.500 299 C 230.138 299.585, 231.176 300, 233 300 C 234.824 300, 235.862 299.585, 235.500 299 C 235.160 298.450, 234.035 298, 233 298 C 231.965 298, 230.840 298.450, 230.500 299 M 247.380 301.452 C 246.605 303.473, 247.758 305, 250.059 305 C 252.094 305, 252.402 304.211, 251.393 301.582 C 250.632 299.600, 248.122 299.519, 247.380 301.452 M 432 302.371 C 432 304.461, 431.408 304.821, 427 305.406 C 422.859 305.955, 422 306.418, 422 308.100 C 422 309.848, 423.437 313.552, 424.650 314.932 C 425.290 315.659, 432 308.694, 432 307.304 C 432 306.580, 433.112 306, 434.500 306 C 436.470 306, 437 305.493, 437 303.607 C 437 301.442, 435.368 300, 432.918 300 C 432.413 300, 432 301.067, 432 302.371 M 256.491 312.374 C 254.997 314.653, 254.997 315.094, 256.487 317.975 C 258.620 322.099, 260.605 322.720, 263.365 320.127 C 264.829 318.752, 266.932 318, 269.314 318 C 271.342 318, 273 317.583, 273 317.074 C 273 316.141, 264.388 311.702, 260.306 310.530 C 258.664 310.059, 257.703 310.523, 256.491 312.374 M 249.250 315.824 C 247.849 316.714, 241 327.753, 241 329.121 C 241 330.471, 245.205 330.098, 248 328.500 C 249.375 327.714, 251.512 327.055, 252.750 327.035 C 255.493 326.992, 255.674 324.726, 253.391 319.020 C 251.713 314.826, 251.311 314.516, 249.250 315.824 M 379.500 318.541 C 372.350 319.235, 355.475 320.315, 342 320.940 C 328.525 321.565, 313.821 322.322, 309.325 322.622 L 301.150 323.167 299.506 327.276 C 297.274 332.854, 294.303 336.845, 290.792 338.980 C 287.938 340.716, 288.917 340.779, 327.680 341.375 C 349.581 341.712, 377.058 342.163, 388.739 342.379 L 409.978 342.770 405.561 337.857 C 403.132 335.155, 400.364 330.819, 399.410 328.222 C 395.867 318.575, 395.072 317.003, 393.801 317.140 C 393.085 317.217, 386.650 317.847, 379.500 318.541 M 96.757 324.157 C 97.602 325.002, 98.803 325.029, 101.207 324.259 L 104.500 323.204 100.050 323.102 C 96.681 323.025, 95.881 323.281, 96.757 324.157 M 130 323.789 C 130 324.336, 127.990 327.019, 125.533 329.752 C 121.583 334.145, 116.208 337.550, 108 340.857 C 105.019 342.058, 159.813 342.370, 192.889 341.339 L 214.101 340.679 210.238 336.589 C 208.114 334.340, 205.183 330.865, 203.726 328.866 L 201.076 325.233 174.288 324.611 C 159.555 324.269, 143.563 323.720, 138.750 323.392 C 133.216 323.014, 130 323.160, 130 323.789" stroke="none" fill="black" fill-rule="evenodd"/>
</svg>