<svg xmlns="http://www.w3.org/2000/svg" width="512" height="512" viewBox="0 0 512 512" version="1.1">
	<path d="M 336.989 48.821 C 328.891 51.487, 322.390 55.637, 314.356 63.267 L 307.212 70.053 298.533 67.537 C 278.208 61.648, 256.894 62.544, 239.449 70.022 L 234.788 72.020 228.668 66.353 C 213.173 52.007, 188.219 47.581, 178.368 57.432 C 174.160 61.640, 172.684 67.362, 172.675 79.500 C 172.664 93.451, 175.705 104.097, 183.110 116.028 C 185.293 119.546, 185.294 119.582, 183.544 127.528 C 181.951 134.764, 181.347 135.930, 176.998 140.153 C 173.964 143.100, 172.556 145.156, 173.159 145.759 C 173.762 146.362, 173.003 147.171, 171.089 147.963 C 167.054 149.634, 165.039 151.994, 167.628 152.015 C 172.018 152.051, 172.310 153.439, 169.228 159.611 C 167.611 162.850, 165.997 166.706, 165.642 168.180 C 165.287 169.654, 164.269 171.588, 163.379 172.478 C 161.466 174.391, 161.267 174.188, 167.250 176.405 C 172.354 178.297, 172.506 178.539, 171.025 182.435 C 170.173 184.676, 170.311 185, 172.118 185 C 173.255 185, 178.306 187.497, 183.343 190.548 C 189.184 194.087, 196.031 197.193, 202.250 199.126 C 207.613 200.792, 211.989 202.458, 211.976 202.828 C 211.963 203.197, 209.117 205.432, 205.650 207.794 C 197.152 213.584, 182.427 227.090, 182.804 228.749 C 183.135 230.209, 176.344 240, 175 240 C 174.544 240, 172.572 237.823, 170.619 235.163 C 163.556 225.540, 160.650 215.353, 160.732 200.500 L 160.788 190.500 158.948 194.500 C 157.936 196.700, 156.819 199.400, 156.465 200.500 C 155.205 204.419, 154.262 197.941, 154.718 188.500 L 155.154 179.500 152.656 184.500 C 148.732 192.353, 149.123 188.111, 154.670 162.645 L 155.292 159.790 150.569 163.395 C 147.972 165.378, 145.431 167, 144.923 167 C 143.744 167, 143.735 165.677, 144.907 164.450 C 146.051 163.252, 148.048 156, 147.234 156 C 146.901 156, 145.593 156.973, 144.326 158.163 L 142.024 160.326 144.012 156.211 C 146.284 151.508, 146.381 151, 145 151 C 144.450 151, 144 151.927, 144 153.059 C 144 154.223, 143.550 154.840, 142.965 154.479 C 142.396 154.127, 139.894 156.013, 137.405 158.670 L 132.880 163.500 134.531 159.500 C 137.132 153.197, 137.369 152.454, 136.542 153.200 C 136.115 153.585, 134.676 156.060, 133.343 158.700 C 131.231 162.882, 130.998 163.084, 131.535 160.270 C 131.873 158.493, 132.311 154.218, 132.507 150.770 C 132.704 147.321, 133.968 140.787, 135.316 136.250 C 136.664 131.713, 137.482 128.018, 137.134 128.040 C 136.785 128.062, 133.800 131.688, 130.500 136.099 C 122.638 146.607, 121.551 147.525, 122.357 142.980 L 122.975 139.500 121.533 142.500 C 120.739 144.150, 120.038 146.850, 119.975 148.500 C 119.911 150.150, 119.438 152.400, 118.922 153.500 C 118.150 155.149, 118.041 154.947, 118.304 152.354 C 118.515 150.272, 118.230 149.358, 117.460 149.654 C 116.303 150.098, 114.072 141.511, 113.934 136.083 C 113.897 134.604, 113 136.492, 111.837 140.500 C 108.413 152.294, 108.589 152.074, 106.260 147.500 C 105.139 145.300, 103.651 141.588, 102.953 139.250 C 101.383 133.995, 100.055 133.714, 100.584 138.750 C 102.304 155.127, 102.956 163.378, 102.559 163.774 C 102.303 164.030, 99.935 160.813, 97.297 156.625 C 94.658 152.437, 92.112 149.008, 91.637 149.005 C 91.163 149.002, 90.954 152.175, 91.173 156.055 C 91.560 162.900, 91.507 163.093, 89.381 162.559 C 87.682 162.133, 87.267 162.402, 87.533 163.755 C 88.368 167.993, 88.791 182.335, 88.028 180.500 C 87.570 179.400, 86.689 177.200, 86.070 175.611 C 84.236 170.906, 84.053 172.998, 85.553 181.511 C 86.327 185.905, 86.961 190.850, 86.961 192.500 C 86.962 195.402, 86.861 195.337, 83.868 190.500 C 77.833 180.749, 77.705 182.209, 83.131 198.910 C 88.764 216.247, 101.614 240.697, 112.871 255.500 C 123.867 269.959, 140.699 283.708, 156.425 291.078 L 164.805 295.005 159.934 303.110 C 152.332 315.758, 149.170 324.951, 146.522 342.097 C 146.028 345.299, 145.503 345.832, 141.733 346.958 C 134.675 349.067, 130.350 351.737, 126.623 356.285 C 124.670 358.668, 120.547 362.357, 117.461 364.482 C 109.981 369.634, 86.805 395.654, 87.209 398.446 C 87.643 401.445, 91.432 400.689, 97.777 396.338 C 100.679 394.348, 103.289 392.956, 103.577 393.244 C 103.865 393.532, 102.330 396.295, 100.167 399.384 C 88.609 415.882, 90.509 426.201, 102.574 412.459 C 105.771 408.817, 108.698 406.298, 109.175 406.775 C 109.653 407.253, 109.196 410.264, 108.145 413.567 C 104.984 423.496, 104.733 425.534, 106.492 426.993 C 107.836 428.109, 108.529 427.871, 111.125 425.402 C 112.805 423.806, 115.354 420.475, 116.791 418 C 121.603 409.713, 123.461 410.431, 122.480 420.199 C 121.793 427.037, 121.823 427.162, 124.040 426.834 C 127.461 426.328, 129.756 422.381, 132.069 413.022 C 133.505 407.213, 135.236 403.084, 137.570 399.905 C 143.346 392.036, 143.296 392.044, 149.497 397.909 C 160.593 408.403, 176.200 413.381, 191.252 411.226 C 209.601 408.599, 225.799 396.992, 241.766 375.029 C 242.481 374.046, 243.838 377.501, 244.942 383.113 C 245.573 386.316, 246.553 389.223, 247.120 389.574 C 247.688 389.925, 249.806 388.905, 251.826 387.308 C 253.847 385.711, 257.750 383.128, 260.500 381.569 C 263.250 380.009, 267.843 376.993, 270.707 374.867 C 273.571 372.740, 276.383 371, 276.957 371 C 278.196 371, 278.195 370.489, 277.011 389.712 C 276.279 401.612, 275.516 406.590, 273.507 412.573 C 270.529 421.444, 270.884 422.438, 277.640 424.139 C 280.038 424.743, 282 425.486, 282 425.790 C 282 426.094, 280.851 429.214, 279.447 432.724 C 277.674 437.156, 276.987 440.537, 277.197 443.794 C 277.638 450.617, 280.012 451.570, 295.793 451.254 C 305.396 451.063, 309.774 451.442, 315.793 452.989 C 320.032 454.079, 326.491 455.386, 330.148 455.895 C 333.804 456.404, 337.712 457.311, 338.832 457.910 C 339.952 458.510, 341.728 459, 342.779 459 C 345.085 459, 348 455.998, 348 453.624 C 348 450.583, 343.100 447.082, 337.873 446.389 C 335.193 446.033, 333 445.292, 333 444.742 C 333 443.405, 342.495 444.687, 345.995 446.498 C 347.598 447.326, 349.058 449.211, 349.623 451.180 C 350.866 455.515, 355.466 457.451, 357.597 454.536 C 359.949 451.320, 359.361 446.430, 356.338 444.051 C 354.873 442.899, 352.623 441.693, 351.338 441.370 C 347.480 440.402, 348.705 439.144, 352.641 440.032 C 356.856 440.982, 358.427 442.340, 360.791 447.077 C 361.830 449.159, 363.368 450.623, 364.715 450.815 C 368.119 451.299, 368.808 446.844, 366.170 441.413 C 362.974 434.835, 358.681 433.082, 343.182 432.026 C 327.592 430.964, 315.679 427.660, 315.187 424.263 C 314.948 422.609, 315.810 421.627, 318.881 420.061 C 331.918 413.410, 343.919 391.467, 345.599 371.209 C 347.519 348.065, 337.103 325.862, 315.576 307.208 L 310.651 302.941 312.788 296.720 C 315.353 289.255, 318 276.452, 318 271.513 L 318 267.942 326.909 273.992 C 337.730 281.342, 344.876 284.654, 360.264 289.452 C 366.734 291.469, 373.140 294.105, 374.499 295.310 C 376.858 297.400, 376.991 298.139, 377.420 311.500 C 377.684 319.709, 377.428 327.282, 376.801 329.809 C 375.551 334.853, 376.974 339.348, 379.655 338.821 C 383.016 338.160, 385.297 333.365, 385.929 325.631 C 386.853 314.333, 389.946 311.891, 398.079 316.040 C 404.179 319.152, 406.041 322.997, 405.810 332 C 405.535 342.684, 408.622 347.233, 412.443 341.777 C 414.816 338.390, 414.552 326.002, 412 321 C 409.892 316.867, 409.306 313.890, 410.929 315.550 C 411.439 316.073, 413.521 319.593, 415.556 323.374 C 418.926 329.638, 419.203 330.743, 418.678 335.830 C 418.059 341.826, 420.027 348, 422.557 348 C 424.686 348, 427 343.853, 427 340.038 C 427 336.387, 429.948 328.010, 431.236 328.004 C 431.640 328.002, 432.478 330.011, 433.097 332.470 C 434.462 337.890, 436.329 339.802, 438.500 338 C 440.364 336.453, 440.418 332.444, 438.642 327.376 C 437.895 325.244, 436.975 321.475, 436.596 319 C 435.803 313.820, 434.837 312.354, 430 308.997 C 428.075 307.661, 424.250 304.302, 421.500 301.533 C 418.750 298.764, 413.238 293.658, 409.250 290.186 C 405.262 286.714, 402 283.311, 402 282.624 C 402 280.681, 396.815 276.221, 393.644 275.436 C 390.640 274.693, 390.193 274.133, 379.178 257.288 C 371.411 245.410, 357.828 229.530, 353.500 227.267 C 351.850 226.404, 348.768 223.734, 346.650 221.333 C 344.533 218.931, 338.758 213.537, 333.816 209.344 C 323.930 200.956, 323.887 200.533, 332.821 199.417 C 336.039 199.015, 338.377 198.180, 338.709 197.315 C 339.012 196.525, 343.364 193.922, 348.380 191.530 C 353.396 189.137, 360.640 184.890, 364.479 182.090 C 368.317 179.291, 372.029 177, 372.729 177 C 374.401 177, 374.336 175.827, 372.532 173.441 C 370.392 170.612, 370.618 170.162, 374.548 169.425 C 377.796 168.816, 378.071 168.498, 377.798 165.659 C 377.564 163.222, 377.927 162.479, 379.500 162.183 C 383.189 161.488, 383.209 160.237, 379.594 156.235 C 377.617 154.048, 376 151.367, 376 150.279 C 376 149.191, 374.686 146.344, 373.080 143.953 C 370.615 140.282, 370.385 139.439, 371.605 138.547 C 372.782 137.686, 371.944 136.515, 367.100 132.251 C 362.537 128.235, 360.664 125.719, 359.074 121.469 C 356.284 114.010, 356.433 112.120, 360.391 104.784 C 366.379 93.686, 367.489 88.953, 367.495 74.500 C 367.500 62.614, 367.286 61.076, 365 56.552 C 361.386 49.399, 358.402 47.589, 349.699 47.270 C 344.816 47.091, 340.727 47.590, 336.989 48.821 M 337.104 59.039 C 331.013 61.802, 321.456 68.840, 315.500 74.949 L 310.500 80.076 310.500 87.627 C 310.500 94.250, 310.776 95.400, 312.750 96.999 C 313.988 98.001, 315 99.267, 315 99.812 C 315 100.357, 316.462 101.730, 318.250 102.862 C 321.251 104.762, 321.552 104.789, 322.180 103.210 C 322.554 102.269, 322.891 100.085, 322.930 98.356 C 323.005 94.977, 325.796 91.454, 332.250 86.589 C 337.023 82.992, 337.065 81.565, 332.376 82.326 C 328.375 82.976, 325.712 84.963, 322.764 89.500 L 320.815 92.500 321.468 89.500 C 322.494 84.792, 326.246 79.825, 332.312 75.145 C 339.032 69.961, 344.621 67, 347.688 67 C 350.518 67, 353.011 70.660, 353.704 75.832 C 354.166 79.277, 353.800 80.216, 350.614 83.742 C 346.578 88.210, 345.780 90.723, 348.934 89.035 C 352.542 87.104, 352.417 87.988, 348.518 91.982 C 346.380 94.172, 344.969 96.302, 345.383 96.717 C 345.798 97.131, 346.996 96.352, 348.046 94.985 C 349.096 93.618, 349.966 93.033, 349.978 93.683 C 349.990 94.334, 347.758 97.168, 345.019 99.981 C 340.044 105.088, 340.077 105.350, 345.243 101.773 C 347.038 100.530, 347.806 100.341, 347.467 101.226 C 347.182 101.969, 344.662 103.983, 341.867 105.702 L 336.786 108.827 339.393 111.094 C 341.248 112.707, 342 114.343, 342 116.766 C 342 119.400, 342.792 120.872, 345.500 123.269 C 348.929 126.305, 350.066 129, 347.918 129 C 347.322 129, 343.835 127.696, 340.168 126.103 C 336.500 124.509, 330.904 122.400, 327.731 121.414 L 321.961 119.622 313.731 122.986 C 304.363 126.815, 297.751 130.507, 290.404 136.013 L 285.309 139.832 284.603 148.166 C 282.951 167.678, 281.649 172.214, 278.639 168.957 C 276.535 166.681, 272.271 154.016, 271.481 147.698 C 270.893 142.985, 270.217 141.516, 267.634 139.324 C 260.312 133.114, 235.683 124, 226.222 124 C 222.746 124, 218.865 125.341, 209.831 129.663 C 197.878 135.382, 194.835 135.933, 198.856 131.653 C 200.230 130.191, 201.413 127.100, 202.013 123.407 C 202.580 119.917, 203.665 116.993, 204.664 116.260 C 206.687 114.776, 206.718 114.806, 200.829 112.625 C 198.260 111.673, 195.617 110.243, 194.956 109.447 C 193.542 107.743, 193.976 107.660, 197.435 108.975 C 201.093 110.366, 200.592 108.913, 196.440 106.085 C 194.489 104.756, 192.428 102.799, 191.859 101.736 C 190.916 99.974, 191.090 99.861, 193.817 100.460 C 198.190 101.420, 198.556 99.507, 194.482 96.989 C 189.823 94.110, 188 90.317, 188 83.504 C 188 78.828, 188.422 77.487, 190.571 75.338 C 192.779 73.130, 193.708 72.858, 197.154 73.409 C 202.670 74.291, 210.739 78.483, 215.332 82.853 C 219.196 86.530, 222.566 91.767, 221.655 92.679 C 221.384 92.950, 220.681 92.273, 220.094 91.175 C 218.637 88.453, 212.482 84.784, 210.034 85.178 C 208.465 85.431, 209.467 86.575, 214.692 90.500 C 218.354 93.250, 222.043 96.625, 222.891 98 C 224.404 100.454, 224.395 100.468, 222.429 98.788 C 219.702 96.457, 213 93.737, 213 94.961 C 213 95.504, 214.337 96.640, 215.970 97.485 C 219.351 99.233, 221 101.785, 221 105.268 C 221 108.692, 221.870 109.131, 224.827 107.198 C 230.057 103.780, 233.899 99.060, 234.539 95.265 C 234.889 93.194, 235.380 90.747, 235.631 89.826 C 236.310 87.332, 224.734 74.431, 217.789 69.942 C 210.318 65.113, 203.088 62.697, 195.813 62.598 C 183.141 62.426, 178.788 71.736, 182.067 92 C 183.567 101.271, 187.497 109.387, 192.706 113.972 C 195.115 116.093, 196.681 118.079, 196.186 118.385 C 195.691 118.691, 195.034 121.379, 194.727 124.358 C 194.419 127.337, 193.413 131.235, 192.490 133.020 C 191.106 135.695, 191.048 136.420, 192.156 137.146 C 193.160 137.804, 191.150 140.308, 184.197 147.059 C 176.851 154.193, 175.027 156.510, 175.524 158.076 C 175.964 159.463, 175.211 161.135, 173.022 163.627 C 169.200 167.981, 169.433 169.964, 173.945 171.482 C 176.113 172.212, 176.947 172.915, 176.195 173.380 C 173.309 175.163, 175.232 177.742, 182.910 182.384 C 198.493 191.804, 210.203 195.598, 235.998 199.584 C 242.967 200.661, 247.871 202.012, 250.586 203.603 C 255.331 206.384, 256.437 206.580, 255.638 204.500 C 254.630 201.872, 256.821 202.889, 258.579 205.864 C 261.160 210.234, 271.816 216.517, 273.607 214.726 C 273.890 214.443, 272.969 213.060, 271.561 211.652 C 269.579 209.670, 269 208.083, 269 204.634 C 269 200.886, 269.489 199.767, 272.077 197.589 C 274.890 195.221, 275.927 195, 284.194 195 L 293.235 195 297.118 198.882 C 299.396 201.160, 301 203.723, 301 205.084 C 301 207.289, 301.168 207.233, 304.403 203.955 C 308.364 199.940, 308.456 200.277, 300.359 189.129 C 297.415 185.075, 293.605 178.911, 291.892 175.432 L 288.778 169.106 292.932 159.420 C 298.652 146.086, 305.791 135.797, 304.360 142.950 C 303.661 146.443, 303.404 146.391, 312 144.500 C 321.221 142.472, 325.981 142.663, 333.416 145.362 C 339.294 147.496, 350.327 153.597, 355.500 157.576 C 357.459 159.082, 357.428 159.173, 354 162 C 349.619 165.613, 335.867 172.901, 326 176.840 C 315.367 181.084, 304.579 187.230, 304.187 189.267 C 303.721 191.690, 305.586 191.471, 315 188 C 319.475 186.350, 324.118 185.030, 325.318 185.066 C 326.518 185.102, 325.144 185.766, 322.265 186.542 C 316.010 188.226, 307 192.638, 307 194.017 C 307 195.482, 309.826 195.177, 316.291 193.013 C 319.477 191.947, 323.752 190.817, 325.791 190.502 C 328.138 190.139, 326.929 190.807, 322.500 192.322 C 313.804 195.297, 310 197.073, 310 198.161 C 310 199.320, 310.002 199.320, 320.312 196.378 C 332.552 192.886, 349.093 185.402, 358.591 179.059 C 368.630 172.355, 368.631 172.355, 366.596 170.106 C 364.932 168.267, 364.947 168.152, 366.932 167.521 C 369.419 166.732, 375 162.183, 375 160.946 C 375 160.464, 373.599 158.474, 371.886 156.523 C 369.769 154.112, 368.946 152.316, 369.313 150.910 C 369.963 148.426, 365.528 143.194, 357.564 137.050 C 351.733 132.551, 350.376 130.457, 352.014 128.483 C 352.769 127.574, 352.470 126.217, 350.947 123.635 C 349.784 121.664, 348.244 117.819, 347.524 115.091 C 346.432 110.951, 346.439 110.046, 347.568 109.612 C 350.298 108.565, 355.080 100.471, 357.507 92.789 C 361.990 78.598, 360.325 61.385, 354.151 58.081 C 350.896 56.339, 341.946 56.841, 337.104 59.039 M 320.601 75.562 C 317.073 82.768, 317.611 86.450, 321.176 79.500 C 324.350 73.314, 325.415 70, 324.230 70 C 323.732 70, 322.099 72.503, 320.601 75.562 M 219 75.339 C 219 75.490, 220.574 78.739, 222.497 82.557 C 225.804 89.122, 225.994 89.313, 225.997 86.062 C 226 82.625, 222.637 76.472, 220.250 75.547 C 219.563 75.281, 219 75.187, 219 75.339 M 247.327 143.110 L 247.932 148.220 245.216 147.577 C 243.722 147.224, 238.324 146.662, 233.219 146.329 C 225.491 145.825, 223.232 146.032, 219.719 147.563 C 212.956 150.510, 198.280 158.894, 194.892 161.744 C 191.925 164.241, 191.866 164.431, 193.639 165.766 C 198.611 169.509, 215.972 177.218, 228.790 181.374 C 236.650 183.922, 245.297 187.130, 248.007 188.504 C 250.717 189.877, 253.577 191, 254.363 191 C 256.421 191, 261.053 185.386, 265.381 177.646 L 269.129 170.945 267.129 167.722 C 266.029 165.950, 261.942 160.225, 258.047 155 C 254.151 149.775, 250.505 143.813, 249.944 141.750 C 248.393 136.054, 246.601 136.985, 247.327 143.110 M 306.991 154.741 C 310.820 155.203, 311.961 156.344, 311.985 159.731 C 312.001 162.169, 308.546 163.637, 304.983 162.706 C 303.891 162.420, 303.249 162.595, 303.558 163.093 C 304.504 164.624, 309.661 164.099, 311.847 162.250 C 313.756 160.635, 313.807 160.249, 312.506 157.250 C 311.247 154.347, 310.691 154.017, 307.298 154.160 L 303.500 154.320 306.991 154.741 M 238.039 158.189 C 234.083 162.434, 236.577 165.419, 243.987 165.307 C 249.974 165.216, 251.026 164.590, 250.900 161.191 L 250.801 158.500 250.110 161 C 249.532 163.097, 248.730 163.550, 245.136 163.811 C 236.320 164.451, 235.458 158.366, 244.165 156.954 L 248.500 156.250 244.289 156.125 C 241.138 156.032, 239.564 156.551, 238.039 158.189 M 235 190.465 C 239.675 191.721, 244.767 193.256, 246.315 193.875 C 247.863 194.494, 249.888 194.986, 250.815 194.970 C 252.368 194.942, 252.371 194.864, 250.854 193.978 C 248.539 192.626, 230.916 187.987, 228.500 188.093 C 227.400 188.142, 230.325 189.209, 235 190.465 M 227.004 193.671 C 227.006 194.127, 231.393 195.490, 236.754 196.699 C 242.114 197.909, 247.625 199.225, 249 199.623 C 251.160 200.248, 251.330 200.139, 250.247 198.817 C 249.184 197.520, 243.109 195.903, 229.750 193.364 C 228.238 193.076, 227.002 193.214, 227.004 193.671 M 219 205.329 C 214.854 207.512, 212 209.446, 212 210.073 C 212 211.096, 222.317 209.315, 226.484 207.573 C 229.612 206.264, 230.149 205.705, 228.984 204.969 C 226.850 203.620, 221.907 203.798, 219 205.329 M 279.776 204.733 C 282.128 204.945, 285.728 204.942, 287.776 204.727 C 289.824 204.512, 287.900 204.339, 283.500 204.343 C 279.100 204.346, 277.424 204.522, 279.776 204.733 M 315 206.415 C 316.375 207.150, 318.625 208.060, 320 208.438 L 322.500 209.125 320 207.085 C 318.625 205.963, 316.375 205.052, 315 205.062 L 312.500 205.080 315 206.415 M 228.188 208.594 C 222.721 211.318, 218.781 215.040, 220.664 215.701 C 221.481 215.987, 221.560 217.046, 220.932 219.239 C 220.438 220.960, 220.155 222.489, 220.303 222.637 C 220.451 222.785, 224.172 220.340, 228.571 217.203 C 232.970 214.066, 237.679 210.762, 239.035 209.859 C 241.977 207.901, 241.666 207.463, 236.803 206.713 C 234.054 206.289, 231.845 206.771, 228.188 208.594 M 305 206.713 C 300.437 208.403, 300.971 209.316, 309.106 213.736 C 315.284 217.092, 317.468 217.861, 318.068 216.891 C 319.161 215.122, 317.681 212.707, 313.279 209.078 C 309.617 206.060, 308.007 205.600, 305 206.713 M 239.595 213.503 C 225.421 223.309, 218 237.182, 218 253.874 L 218 260.328 225.211 253.414 C 230.572 248.275, 232.512 246.929, 232.770 248.173 C 232.961 249.093, 230.811 256, 227.992 263.523 C 225.173 271.045, 223.086 277.420, 223.355 277.689 C 223.624 277.958, 227.592 274.861, 232.172 270.807 C 237.791 265.834, 241.294 261.821, 242.940 258.468 C 244.627 255.034, 245.500 254.048, 245.768 255.273 C 245.981 256.248, 243.698 262.323, 240.695 268.773 C 237.691 275.223, 234.681 282.234, 234.006 284.353 C 232.587 288.803, 231.573 287.481, 244.500 298.035 C 266.542 316.031, 277.663 330.496, 274.948 337.637 C 273.334 341.881, 270.012 340.380, 266.521 333.831 C 262.763 326.780, 257.442 320.231, 256.353 321.317 C 255.902 321.766, 257.167 325.141, 259.163 328.817 C 264.807 339.211, 267.719 356.138, 264.429 359.429 C 261.225 362.633, 258 360.878, 258 355.930 C 258 352.615, 252.043 335.275, 250.067 332.837 C 247.011 329.068, 246.768 331.252, 249.563 337.358 C 252.585 343.957, 253.977 356.307, 252.096 359.821 C 250.667 362.492, 247.423 362.660, 246.071 360.134 C 245.522 359.107, 244.344 354.742, 243.454 350.433 C 241.762 342.241, 239.253 336.285, 236.549 334.041 C 234.032 331.952, 233.641 333.497, 235.388 338.624 C 237.287 344.197, 237.501 352.099, 235.800 353.800 C 234.201 355.399, 231.511 355.321, 230.112 353.635 C 229.489 352.884, 228.588 349.156, 228.110 345.349 C 227.531 340.737, 226.066 336.095, 223.718 331.433 C 221.780 327.585, 219.659 322.426, 219.004 319.968 C 217.571 314.590, 215.619 312.197, 211.105 310.288 C 206.785 308.461, 206.455 308.986, 205.616 319.048 C 204.878 327.899, 201.611 339.733, 199.280 342 C 197.899 343.343, 197.804 343.238, 198.366 341 C 198.711 339.625, 199.252 336.025, 199.567 333 C 200.133 327.568, 200.118 327.527, 198.320 329.715 C 197.319 330.933, 195.758 332.958, 194.851 334.215 C 193.945 335.472, 192.897 336.203, 192.524 335.839 C 191.716 335.052, 191.271 328.225, 191.115 314.191 C 191.041 307.600, 190.639 304.105, 190 304.500 C 188.166 305.633, 188.848 325.808, 191.027 334.899 C 195.056 351.703, 206.602 366.258, 222.076 374.038 C 232.187 379.122, 233.908 379.093, 238.468 373.766 C 241.411 370.328, 242.269 369.811, 243.031 371.016 C 243.547 371.832, 243.976 373.030, 243.985 373.679 C 244.023 376.591, 246.811 377.777, 251.542 376.893 C 262.827 374.785, 275.233 364.250, 286.156 347.500 C 293.717 335.907, 295.345 333.012, 294.681 332.348 C 294.416 332.083, 292.595 333.472, 290.633 335.433 C 285.608 340.459, 284.589 340.127, 285.456 333.750 C 286.892 323.183, 287.946 310.317, 287.973 303.050 C 288.014 291.819, 289.616 295.754, 290.696 309.738 C 291.216 316.468, 291.952 322.285, 292.331 322.665 C 294.260 324.593, 297.951 314.583, 299.952 302 C 301.771 290.553, 301.124 270.393, 298.499 256.750 C 297.216 250.080, 299.375 252.764, 305.213 265.096 C 312.481 280.450, 313.468 280.189, 312.736 263.106 C 312.438 256.173, 311.878 249.713, 311.491 248.750 C 310.239 245.642, 313.322 246.798, 316.820 250.750 L 320.140 254.500 319.546 251 C 319.219 249.075, 317.613 244.637, 315.976 241.138 C 311.388 231.329, 312.369 230.316, 319.526 237.474 C 322.653 240.600, 323.989 241.428, 323.965 240.224 C 323.876 235.883, 321.003 225.481, 319.240 223.117 C 316.926 220.018, 307.999 214.427, 302.856 212.858 C 299.429 211.813, 298.927 211.964, 294.456 215.378 C 287.640 220.582, 283.449 221.607, 274.346 220.296 C 268.794 219.496, 264.597 218.036, 258.002 214.610 C 253.122 212.074, 248.088 210.025, 246.815 210.055 C 245.542 210.085, 242.293 211.637, 239.595 213.503 M 268.557 223.446 C 271.644 228.158, 276.565 229.311, 281.872 226.566 C 288.125 223.332, 287.496 222.348, 279.226 222.426 C 274.977 222.467, 270.449 222.120, 269.165 221.656 C 266.847 220.818, 266.843 220.831, 268.557 223.446 M 418 305.702 C 418 306.351, 420.213 309.190, 422.917 312.011 C 425.674 314.886, 428.293 318.756, 428.878 320.820 L 429.922 324.500 429.371 320 C 428.912 316.244, 427.926 314.592, 423.410 310.011 C 420.435 306.992, 418 305.053, 418 305.702 M 418.795 317.169 C 419.967 319.065, 421.873 322.615, 423.031 325.058 C 424.654 328.483, 424.988 328.813, 424.488 326.500 C 423.551 322.163, 419.659 314.720, 418.046 314.182 C 417.114 313.871, 417.358 314.844, 418.795 317.169" stroke="none" fill="black" fill-rule="evenodd"/>
</svg>