<svg xmlns="http://www.w3.org/2000/svg" width="512" height="512" viewBox="0 0 512 512" version="1.1">
	<path d="M 302.347 29.985 C 293.914 32.196, 288.339 34.885, 283.644 39.008 C 278.607 43.431, 278.536 45.236, 283.186 50.753 C 289.088 57.756, 298 76.251, 298 81.499 C 298 83.810, 298.497 87.126, 299.104 88.868 C 300 91.439, 299.902 92.501, 298.581 94.517 C 296.213 98.130, 293.563 97.621, 284.808 91.874 C 274.248 84.941, 274.269 82.617, 284.863 85.622 C 286.974 86.221, 287.114 86.082, 286.173 84.324 C 285.594 83.241, 283.334 81.117, 281.151 79.605 C 278.968 78.092, 276.739 75.650, 276.197 74.177 C 275.655 72.705, 273.980 67.978, 272.476 63.673 C 269.364 54.767, 266.600 50.987, 261.395 48.517 C 248.355 42.329, 210.657 30, 204.777 30 C 200.542 30, 196.490 34.529, 194.395 41.602 C 189.787 57.158, 195.480 79, 204.141 79 C 205.171 79, 214.673 82.263, 225.257 86.250 L 244.500 93.500 257.020 93.557 C 267.477 93.605, 270.071 93.929, 272.771 95.524 C 276.369 97.649, 277.794 100.606, 276.058 102.342 C 275.430 102.970, 273.248 103.972, 271.208 104.569 C 268.783 105.279, 267.638 106.147, 267.899 107.078 C 268.119 107.860, 268.502 109.702, 268.751 111.172 L 269.204 113.844 259.661 113.672 L 250.119 113.500 246.226 117.290 C 242.859 120.569, 241.399 121.219, 235.417 122.104 C 225.680 123.544, 222.448 124.726, 221.269 127.279 C 220.561 128.812, 218.425 130.039, 214.372 131.240 C 207.219 133.361, 200.180 138.413, 195.542 144.756 C 193.634 147.365, 189.965 154.571, 187.387 160.768 C 181.036 176.042, 179.109 176.416, 166.750 164.781 C 161.165 159.524, 160 157.878, 160 155.248 C 160 148.127, 147.856 140.092, 130.976 136.046 C 123.744 134.312, 119.155 134.013, 99.700 134.007 C 80.893 134.001, 76.367 134.276, 73.854 135.576 C 71.562 136.761, 70.938 137.655, 71.337 139.181 C 71.700 140.570, 71.021 141.938, 69.184 143.518 C 66.842 145.532, 66.500 146.571, 66.500 151.663 C 66.500 157.279, 67.116 159.018, 73.788 172.250 C 73.996 172.662, 66.984 173, 58.206 173 C 44.863 173, 42.029 173.260, 40.930 174.584 C 38.853 177.087, 41.032 179.323, 47.103 180.917 C 50.071 181.696, 52.600 182.396, 52.721 182.471 C 52.843 182.547, 51.985 184.545, 50.814 186.911 C 48.371 191.849, 47.110 201, 48.873 201 C 49.493 201, 50 201.499, 50 202.108 C 50 202.771, 49.059 202.981, 47.662 202.630 C 43.055 201.474, 41.535 203.981, 41.149 213.375 C 40.809 221.655, 40.869 221.926, 43.149 222.405 C 48.595 223.550, 79.200 225.192, 79.907 224.378 C 80.326 223.895, 81.424 221.475, 82.346 219 C 85.618 210.215, 88.190 206.850, 93 205.061 C 96.977 203.582, 97.476 203.060, 97.295 200.568 C 97.101 197.920, 97.527 198.172, 104.295 204.730 C 108.258 208.570, 113.975 213.302, 117 215.246 C 122.977 219.087, 125.331 221.413, 129.309 227.410 L 131.902 231.320 127.201 233.524 C 124.615 234.736, 119.733 237.780, 116.351 240.288 L 110.202 244.847 110.303 241.307 C 110.393 238.117, 108.267 235, 106 235 C 103.719 235, 101.742 238.069, 101.645 241.760 L 101.537 245.866 95.519 247.549 C 85.902 250.239, 80.389 253.581, 71.508 262.107 L 63.190 270.093 58.766 266.974 C 52.746 262.731, 47.762 262.186, 41.117 265.045 C 34.358 267.953, 31 272.620, 31 279.106 C 31 284.870, 32.217 288.343, 40.317 305.691 C 46.505 318.944, 46.732 319.701, 45.942 324.500 C 44.750 331.742, 44.833 349.090, 46.109 359.500 C 49.482 387.025, 62.115 410.305, 79.500 421.032 L 83.500 423.500 60.289 424.011 C 43.752 424.374, 36.722 424.878, 35.839 425.761 C 35.035 426.565, 34.942 427.342, 35.574 427.974 C 38.664 431.064, 194.324 464.865, 279.892 481.026 C 294.407 483.767, 325.232 489.202, 348.392 493.103 L 390.500 500.197 407.522 499.079 C 425.306 497.911, 444.364 495.455, 446.975 493.994 C 448.216 493.300, 448.024 492.960, 445.946 492.169 C 441.779 490.585, 423.641 486.361, 406.250 482.924 C 397.313 481.158, 390 479.397, 390 479.011 C 390 478.625, 393.712 476.025, 398.250 473.234 C 419.143 460.380, 435.771 440.332, 446.345 415.247 C 455.456 393.633, 458.990 376.631, 458.996 354.381 C 459.002 332.111, 455.301 315.163, 446.472 297.042 C 443.938 291.841, 439.833 284.679, 437.351 281.128 C 433.508 275.631, 433.072 274.539, 434.418 273.786 C 437.318 272.163, 436.058 269.503, 429.250 262.871 C 423.106 256.886, 418.490 253.332, 410.718 248.604 C 409.188 247.674, 408.223 246.449, 408.573 245.883 C 408.923 245.316, 412.312 242.864, 416.104 240.433 C 419.897 238.002, 423 235.353, 423 234.545 C 423 233.738, 420.907 230.473, 418.349 227.289 C 415.792 224.105, 413.306 220.991, 412.825 220.368 C 412.216 219.580, 415.527 217.941, 423.726 214.972 C 430.201 212.627, 435.907 210.344, 436.404 209.900 C 436.919 209.440, 435.738 206.814, 433.654 203.788 C 429.343 197.529, 429.318 197.100, 432.143 178.221 C 434.976 159.291, 434.270 157.125, 419.381 139.085 C 416.469 135.556, 414.282 132.353, 414.521 131.966 C 414.760 131.579, 418.678 130.947, 423.228 130.561 C 427.778 130.175, 433.463 129.375, 435.862 128.783 C 452.885 124.581, 454.810 98.079, 438.692 89.838 C 433.564 87.216, 425.633 85.028, 421.202 85.012 C 416.807 84.996, 414.096 88.063, 410.427 97.201 C 407.953 103.362, 407.541 105.649, 407.764 111.960 C 408.055 120.182, 406.537 120.757, 405.201 112.931 C 404.622 109.542, 403.729 108.037, 401.384 106.503 C 399.592 105.331, 397.568 102.632, 396.505 100 C 395.505 97.525, 391.658 90.325, 387.956 84 C 362.521 40.546, 363.397 41.701, 351.535 35.960 C 335.243 28.074, 317.745 25.949, 302.347 29.985 M 304.500 32.405 C 301.750 33.085, 297.452 34.556, 294.949 35.676 C 290.155 37.820, 283 43.520, 283 45.195 C 283 45.738, 284.589 48.038, 286.531 50.307 C 291.985 56.679, 302.196 77.371, 301.417 80.474 C 300.181 85.398, 301.672 87.482, 310.728 93.489 C 323.068 101.675, 330.461 107.414, 338.164 114.785 C 344.049 120.416, 345.072 121.032, 346.914 120.046 C 348.061 119.432, 348.971 118.608, 348.935 118.215 C 348.782 116.537, 336.379 107.028, 321.698 97.333 C 313.007 91.593, 305.244 86.647, 304.448 86.342 C 302.776 85.700, 302.504 82.425, 304.044 81.473 C 304.618 81.118, 305.696 81.332, 306.439 81.949 C 307.491 82.822, 307.757 82.676, 307.645 81.285 C 307.543 80.035, 308.325 79.405, 310.250 79.184 C 312.230 78.956, 313 79.312, 313 80.458 C 313 82.664, 316.107 83.602, 326 84.386 C 336.737 85.237, 361.377 90.227, 370.997 93.499 C 377.989 95.877, 380.478 96.061, 378.433 94.048 C 377.413 93.043, 366.509 87.524, 362.628 86.049 C 360.886 85.386, 359.712 83.630, 358.460 79.813 C 354.462 67.626, 336.663 36.572, 331.198 32.250 C 329.141 30.623, 311.295 30.727, 304.500 32.405 M 217.115 54.868 C 222.902 59.401, 264.873 85, 266.518 85 C 270.226 85, 252.783 72.751, 234.524 62.534 C 219.381 54.061, 211.853 50.746, 217.115 54.868 M 305.384 70.607 C 304.616 73.665, 306.261 75.147, 309.991 74.759 C 314.757 74.264, 313.279 68, 308.397 68 C 306.689 68, 305.858 68.720, 305.384 70.607 M 324.550 90.848 C 355.975 118.897, 370.659 131.138, 367.316 126.500 C 366.126 124.850, 362.531 120.960, 359.326 117.856 C 352.311 111.061, 326.077 90, 324.628 90 C 323.986 90, 323.956 90.318, 324.550 90.848 M 386.459 97.067 C 385.670 98.343, 385.631 98.303, 389.843 100.447 C 393.914 102.518, 394.816 101.894, 392.612 98.531 C 390.914 95.939, 387.637 95.160, 386.459 97.067 M 281.861 101.999 C 279.544 103.961, 279.536 104.027, 281.441 105.499 C 284.266 107.683, 291 107.256, 291 104.893 C 291 103.494, 287.152 100, 285.611 100 C 284.847 100, 283.159 100.900, 281.861 101.999 M 434.273 114.457 C 425.207 120.935, 424.575 121.593, 429.308 119.632 C 433.719 117.804, 437.694 115.107, 440.411 112.102 C 443.798 108.354, 441.672 109.169, 434.273 114.457 M 399.154 111.552 C 399.345 112.532, 400.105 113.536, 400.846 113.782 C 401.706 114.069, 402.066 113.588, 401.846 112.448 C 401.655 111.468, 400.895 110.464, 400.154 110.218 C 399.294 109.931, 398.934 110.412, 399.154 111.552 M 273.104 111.888 C 271.191 113.136, 272.403 115.771, 275.550 117.205 C 278.852 118.709, 281.500 117.235, 281.500 113.891 C 281.500 111.875, 280.951 111.459, 278 111.239 C 276.075 111.095, 273.872 111.388, 273.104 111.888 M 290 117.233 C 290 117.436, 290.890 121.629, 291.978 126.551 C 293.941 135.431, 294.574 145.341, 293.377 148.461 C 292.385 151.046, 286.517 153.458, 271.500 157.452 C 263.800 159.500, 254.526 162.036, 250.892 163.088 C 243.042 165.359, 241 165.470, 241 163.623 C 241 162.033, 246.832 159.407, 259.252 155.406 C 268.817 152.325, 268.519 152.804, 265.480 145.366 L 264.199 142.232 253.849 145.136 C 239.156 149.259, 216.736 156.101, 215.206 156.928 C 214.353 157.390, 216.565 159.493, 221.706 163.105 C 225.993 166.117, 230.081 169.788, 230.791 171.262 C 232.677 175.178, 230.216 179.262, 223.728 182.983 C 220.853 184.632, 219.019 185.985, 219.654 185.991 C 220.288 185.996, 227.488 184.905, 235.654 183.567 C 243.819 182.229, 255.303 180.379, 261.172 179.457 L 271.845 177.780 275.179 180.323 C 277.013 181.722, 285.486 186.074, 294.007 189.995 C 310.091 197.396, 322.443 203.890, 321.751 204.582 C 321.531 204.802, 316.177 203.189, 309.855 200.997 C 303.532 198.804, 296.276 196.725, 293.730 196.377 C 289.382 195.781, 289.064 195.895, 288.467 198.276 C 287.423 202.437, 284.051 204.707, 270.444 210.410 C 263.325 213.393, 250.075 218.949, 241 222.756 C 217.671 232.542, 196 243.696, 196 245.916 C 196 246.787, 222.350 263, 223.764 263 C 225.954 263, 245.790 235.282, 248.064 229.045 C 250.116 223.418, 250.429 223.066, 252.879 223.636 C 257.207 224.642, 263.455 228.411, 263.805 230.227 C 264.007 231.276, 260.404 235.862, 254.388 242.213 C 242.877 254.366, 234 264.943, 234 266.507 C 234 267.123, 235.294 268.865, 236.874 270.380 L 239.749 273.134 242.719 266.817 C 252.345 246.343, 283.438 223.321, 315.206 213.145 C 331.624 207.886, 340.615 205.888, 351.266 205.132 L 361.500 204.405 356.500 202.805 C 353.750 201.925, 346.100 199.185, 339.500 196.717 C 332.900 194.248, 320.750 190.347, 312.500 188.047 C 294.847 183.126, 258.993 168.504, 259.003 166.230 C 259.005 165.828, 269.755 165.472, 282.891 165.438 C 304.011 165.384, 307.089 165.171, 309.483 163.603 C 311.863 162.044, 312.110 161.399, 311.523 158.271 C 311.156 156.314, 308.699 149.265, 306.063 142.606 C 303.427 135.948, 300.518 128.418, 299.599 125.872 C 298.680 123.327, 297.157 120.568, 296.214 119.741 C 294.580 118.307, 290 116.459, 290 117.233 M 258.500 120.467 C 265.279 126.019, 271.901 127.306, 273.413 123.366 C 274.240 121.212, 273.290 120.310, 271.783 121.817 C 269.910 123.690, 265.864 123.184, 261.148 120.488 C 255.630 117.333, 254.665 117.326, 258.500 120.467 M 251.750 123.367 C 254.210 126.170, 255 128.003, 255 130.912 C 255 135.431, 254.286 136.145, 247 138.911 C 239.533 141.746, 238.707 141.603, 236.137 137.030 C 233.597 132.511, 231.396 130.580, 233.134 134.395 C 234.459 137.303, 232.601 141.073, 228.854 143.078 C 226.544 144.314, 226.561 144.665, 228.613 138.012 C 229.542 135.004, 226.923 134.574, 218.813 136.406 C 208.940 138.636, 200 144.551, 200 148.854 C 200 149.396, 202.158 150.556, 204.796 151.432 C 209.454 152.979, 209.771 152.953, 215.774 150.514 C 219.174 149.132, 231.262 145.504, 242.636 142.452 C 254.010 139.399, 264.115 136.474, 265.092 135.951 C 266.069 135.428, 267.911 134.981, 269.184 134.958 C 270.458 134.935, 273.075 134.007, 275 132.897 C 276.925 131.786, 277.731 131.109, 276.792 131.391 C 273.651 132.336, 257.854 136, 256.921 136 C 256.414 136, 256 133.850, 256 131.223 C 256 126.112, 254.288 122.759, 250.699 120.840 C 248.981 119.921, 249.211 120.474, 251.750 123.367 M 403.999 121.750 C 403.998 122.162, 405.428 126.715, 407.177 131.866 C 410.064 140.366, 410.485 141.059, 411.741 139.366 C 413.672 136.761, 412.695 133.015, 408.390 126.532 C 404.785 121.103, 404.001 120.250, 403.999 121.750 M 316.182 133.750 C 318.155 135.813, 325.256 145.707, 331.962 155.739 C 338.668 165.770, 344.569 174.233, 345.074 174.546 C 348.139 176.440, 335.986 154.682, 329.269 146.248 C 323.335 138.797, 314.841 130, 313.581 130 C 313.038 130, 314.208 131.688, 316.182 133.750 M 336 140.104 C 337.925 141.212, 344.225 144.726, 350 147.912 C 359.772 153.304, 365.566 157.139, 383.500 170.087 C 387.350 172.867, 392.883 176.514, 395.796 178.192 C 398.708 179.869, 400.879 181.455, 400.619 181.714 C 400.077 182.257, 387.188 175.672, 382.040 172.223 C 379.860 170.762, 377.456 170.015, 375.540 170.202 C 372.524 170.498, 372.500 170.548, 372.500 176.500 C 372.500 179.800, 372.151 182.646, 371.725 182.825 C 369.851 183.611, 368.763 182.112, 367.916 177.577 C 367.416 174.902, 366.500 172.103, 365.881 171.357 C 364.085 169.192, 358.996 169.766, 355.354 172.544 L 352.019 175.087 350.336 170.794 C 349.411 168.432, 346.472 162.272, 343.806 157.104 C 341.140 151.936, 339.156 147.511, 339.396 147.270 C 340.194 146.472, 349.081 150.900, 357.896 156.488 C 362.677 159.520, 366.964 162, 367.420 162 C 369.416 162, 352.199 150.458, 344.833 146.859 C 334.614 141.865, 332.949 142.257, 336.915 148.722 C 338.528 151.350, 342.408 158.753, 345.539 165.173 L 351.231 176.845 355.266 173.923 C 361.955 169.077, 366 170.754, 366 178.374 C 366 181.495, 367.889 183.683, 372.068 185.405 L 375.637 186.875 374.689 180.994 C 373.432 173.183, 374.100 171.570, 378.252 172.400 C 380.024 172.755, 382.154 173.767, 382.987 174.650 C 384.362 176.109, 384.205 176.200, 381.250 175.652 L 378 175.050 378.115 181.775 C 378.215 187.623, 378.326 188.002, 378.969 184.682 C 379.789 180.442, 381.497 178.323, 384.492 177.829 C 386.089 177.565, 386.591 178.194, 387.023 181 L 387.561 184.500 388.317 181.679 C 389.576 176.985, 391.458 179.186, 392.077 186.078 L 392.655 192.500 392.827 186.750 C 392.922 183.588, 393.306 181, 393.679 181 C 394.052 181, 395.852 181.540, 397.679 182.201 C 400.675 183.284, 401.007 183.798, 401.070 187.451 C 401.109 189.678, 401.546 192.400, 402.041 193.500 C 402.624 194.796, 402.729 193.299, 402.341 189.250 L 401.742 183 404.871 183 L 408 183 408 190.500 C 408 197.613, 407.884 198, 405.750 197.994 C 404.512 197.990, 402.196 197.307, 400.601 196.476 C 399.007 195.645, 397.477 195.189, 397.202 195.464 C 396.148 196.519, 405.341 199.809, 407.309 199.082 C 409.012 198.451, 409.318 197.375, 409.402 191.721 C 409.504 184.818, 410.162 183.390, 413.500 182.834 C 415.296 182.534, 415.562 183.214, 416.110 189.500 L 416.719 196.500 416.703 188.650 C 416.687 180.902, 416.728 180.775, 419.885 178.776 C 421.645 177.662, 422.942 176.608, 422.768 176.435 C 422.381 176.048, 412.031 179.421, 408.828 180.978 C 406.560 182.081, 406.552 182.068, 408.500 180.475 C 409.600 179.576, 412.525 177.762, 415 176.444 C 417.475 175.126, 420.214 173.475, 421.087 172.774 C 422.821 171.382, 425.378 167.044, 424.803 166.470 C 424.406 166.073, 412.265 173.217, 407.333 176.750 C 405.605 177.988, 403.666 179, 403.025 179 C 402.384 179, 395.379 174.487, 387.459 168.972 C 371.492 157.852, 360.807 151.449, 344.767 143.392 C 334.133 138.050, 329.257 136.221, 336 140.104 M 78.179 143.692 C 78.358 144.622, 83.004 148.468, 88.502 152.238 C 98.388 159.015, 100.979 162.304, 97.489 163.643 C 95.760 164.306, 90.982 161.972, 82.535 156.340 C 77.450 152.949, 76.684 152.975, 75.602 156.570 C 75.121 158.170, 77.384 161.695, 85.556 172.070 C 96.019 185.356, 110.654 201.122, 114.475 203.225 C 116.320 204.240, 116.353 204.177, 114.975 202.274 C 108.247 192.981, 106.640 190.267, 104.940 185.327 C 101.670 175.821, 102.789 167.115, 107.862 162.595 C 112.365 158.583, 109.119 149.205, 102.228 146.317 C 98.258 144.653, 85.372 142.093, 80.677 142.035 C 78.553 142.009, 77.934 142.419, 78.179 143.692 M 192.443 160.750 C 191.496 163.363, 189.010 169.870, 186.919 175.211 C 183.785 183.212, 181 193.528, 181 197.131 C 181 198.522, 221.023 177.826, 222.052 175.904 C 223.818 172.604, 220.528 169.576, 207.631 162.630 C 200.861 158.983, 195.061 156, 194.744 156 C 194.426 156, 193.391 158.137, 192.443 160.750 M 112.455 170.455 C 110.430 172.479, 110 173.895, 110 178.541 L 110 184.172 115.250 186.335 C 118.138 187.525, 129.030 192.676, 139.456 197.783 C 160.565 208.123, 159.609 207.965, 170.711 202.961 C 177.450 199.923, 177.404 200.002, 178.539 189.593 C 178.893 186.345, 179.383 183.165, 179.628 182.528 C 179.947 181.696, 177.993 181.793, 172.705 182.870 C 163.500 184.745, 159.941 183.971, 134.632 174.591 C 124.851 170.966, 116.412 168, 115.879 168 C 115.346 168, 113.805 169.105, 112.455 170.455 M 429.158 172 C 429.158 173.375, 429.385 173.938, 429.662 173.250 C 429.940 172.563, 429.940 171.438, 429.662 170.750 C 429.385 170.063, 429.158 170.625, 429.158 172 M 428.158 178 C 428.158 179.375, 428.385 179.938, 428.662 179.250 C 428.940 178.563, 428.940 177.438, 428.662 176.750 C 428.385 176.063, 428.158 176.625, 428.158 178 M 360.524 177.961 C 360.094 178.657, 360.457 179.885, 361.358 180.786 C 363.500 182.929, 364.132 182.050, 362.561 179.113 C 361.661 177.433, 361.061 177.093, 360.524 177.961 M 349 182.725 C 349 183.742, 353.612 185.906, 375.379 195.106 C 383.013 198.333, 392.086 202.554, 395.542 204.486 C 398.998 206.419, 402.933 208, 404.287 208 C 410.192 208, 429.757 198.423, 427.816 196.483 C 427.501 196.167, 422.197 197.541, 416.031 199.534 L 404.819 203.159 393.659 198.124 C 380.182 192.044, 357.382 183.350, 352.523 182.438 C 350.506 182.060, 349 182.182, 349 182.725 M 422 187.300 C 422 190.215, 421.438 193.167, 420.750 193.859 C 419.748 194.869, 419.847 194.986, 421.250 194.452 C 422.643 193.922, 423 192.585, 423 187.893 C 423 184.652, 422.775 182, 422.500 182 C 422.225 182, 422 184.385, 422 187.300 M 427.035 183.500 C 426.967 184.600, 426.313 187.180, 425.580 189.232 C 424.847 191.285, 424.630 192.729, 425.097 192.440 C 426.256 191.724, 428.231 184.132, 427.638 182.676 C 427.374 182.029, 427.103 182.400, 427.035 183.500 M 230 188.972 C 219.836 189.883, 204.917 193.345, 200.884 195.728 C 196.052 198.582, 169 236.446, 169 240.355 C 169 243.892, 171.324 241.590, 177.689 231.750 C 185.590 219.535, 196.762 204.372, 200.138 201.282 C 205.045 196.790, 245.642 192.314, 248.043 196 C 249.372 198.041, 248.308 202.011, 245.676 204.833 C 244.479 206.116, 239.900 209.095, 235.500 211.452 C 223.893 217.673, 197.769 231.194, 187.084 236.512 C 177.337 241.363, 158.253 254.591, 154.957 258.781 C 153.881 260.150, 153 261.948, 153 262.777 C 153 266.288, 190.324 324.010, 191.702 322.631 C 191.944 322.390, 187.222 313.618, 181.209 303.139 C 163.923 273.014, 158.616 261.790, 162.911 264.445 C 163.485 264.800, 168.695 273.057, 174.489 282.795 C 188.103 305.675, 191.046 309.462, 199 314.327 C 208.050 319.862, 223.009 327.324, 223.690 326.643 C 224.002 326.331, 223.778 324.147, 223.192 321.788 C 221.197 313.752, 220.709 305.412, 222.005 301.486 C 222.685 299.425, 224.772 296.044, 226.643 293.973 L 230.045 290.208 219.926 283.954 C 214.360 280.514, 203.888 273.579, 196.653 268.542 C 189.419 263.505, 181.363 258.060, 178.752 256.442 C 173.671 253.294, 173.155 252.538, 175.477 251.647 C 176.348 251.313, 183.012 255.107, 191.727 260.900 C 212.070 274.420, 214.854 275.657, 219 273.013 C 220.920 271.789, 219.925 271.042, 202.096 260.331 C 194.618 255.839, 187.375 251.215, 186 250.056 L 183.500 247.950 185.824 246.225 C 187.103 245.276, 206.678 235.050, 229.324 223.500 C 270 202.755, 270.504 202.461, 270.813 199.260 C 271.222 195.017, 267.565 191.545, 261.198 190.132 C 254.429 188.631, 239.847 188.088, 230 188.972 M 383 189.393 C 383 189.609, 383.698 190.054, 384.552 190.382 C 385.442 190.723, 385.843 190.555, 385.493 189.989 C 384.906 189.038, 383 188.583, 383 189.393 M 214 211.096 C 206.479 212.562, 204.338 213.932, 200.084 219.995 C 197.838 223.198, 196 226.051, 196 226.336 C 196 226.886, 211.583 218.208, 218.750 213.667 C 221.088 212.187, 223 210.756, 223 210.487 C 223 209.810, 219.326 210.058, 214 211.096 M 134 212.421 C 129.566 213.224, 127.592 214.017, 127.789 214.917 C 127.948 215.643, 131.140 221.020, 134.882 226.868 C 138.623 232.716, 143.366 240.531, 145.420 244.235 C 150.115 252.700, 152.919 256.248, 152.967 253.785 C 153 252.048, 146.560 240.981, 137.158 226.622 C 134.321 222.289, 132 218.381, 132 217.939 C 132 216.989, 133.037 216.669, 143.254 214.468 C 147.518 213.549, 151.257 212.393, 151.563 211.899 C 152.321 210.672, 141.956 210.981, 134 212.421 M 363.519 211.969 C 362.785 213.156, 364.485 213.562, 378.500 215.545 C 384.550 216.401, 393.248 217.978, 397.829 219.050 C 407.381 221.286, 408 221.346, 408 220.039 C 408 217.213, 365.089 209.428, 363.519 211.969 M 301.918 231.250 C 299.425 235.196, 299.673 241.082, 303.138 260.178 L 305.432 272.815 310.129 270.434 C 313.560 268.696, 314.715 267.575, 314.413 266.277 C 314.186 265.300, 312.458 257.525, 310.574 249 C 307.179 233.637, 305.551 228, 304.510 228 C 304.213 228, 303.047 229.463, 301.918 231.250 M 128.961 237.830 C 122.272 241.215, 122.178 241.423, 127 242.162 C 129.475 242.541, 132.766 242.885, 134.313 242.926 C 136.897 242.994, 137.101 242.735, 136.813 239.750 C 136.432 235.792, 134.111 235.225, 128.961 237.830 M 103.656 243.971 C 102.288 250.812, 101.755 260, 102.727 260 C 103.279 260, 104.893 259.085, 106.314 257.968 C 111.796 253.655, 120.219 250.643, 127 250.570 C 132.969 250.506, 134.063 250.849, 140.392 254.774 C 144.183 257.125, 147.555 258.778, 147.886 258.447 C 148.714 257.619, 142.515 252.646, 136.630 249.417 C 130.469 246.036, 124.380 246.448, 114.540 250.909 C 110.791 252.609, 107.561 254, 107.362 254 C 107.163 254, 107 251.075, 107 247.500 C 107 242.652, 106.651 241, 105.625 241 C 104.869 241, 103.983 242.337, 103.656 243.971 M 341.998 251.869 C 338.973 252.837, 333.235 255.344, 329.248 257.439 C 320.763 261.898, 320.952 261.162, 324.172 277.190 C 326.210 287.338, 327.651 289.991, 329.500 287 C 330.744 284.986, 335.181 286.028, 338.194 289.040 C 340.735 291.581, 341.130 292.600, 340.602 295.242 C 339.837 299.063, 336.700 302.607, 333.334 303.452 C 329.677 304.370, 330.972 306.169, 336.563 307.938 L 341.500 309.500 342 315.096 C 342.589 321.692, 344.307 324.220, 347.914 323.801 C 350.120 323.544, 350.546 322.944, 350.812 319.715 C 351.111 316.101, 351.009 315.960, 348.562 316.574 C 346.419 317.112, 346 316.872, 346 315.108 C 346 313.667, 346.632 313, 348 313 C 349.917 313, 350.001 312.329, 350.014 296.750 C 350.021 287.813, 350.303 279.472, 350.639 278.215 C 351.523 274.915, 344.913 268.959, 337.142 266.053 C 333.764 264.790, 331 263.373, 331 262.904 C 331 261.735, 334.826 259.860, 346 255.553 C 351.225 253.538, 355.928 251.465, 356.450 250.945 C 358.076 249.327, 347.908 249.977, 341.998 251.869 M 273.136 258.636 C 272.839 269.852, 280.656 278.278, 292.500 279.508 L 297.500 280.027 290.544 277.510 C 279.715 273.591, 275.791 268.582, 273.690 256 C 273.460 254.625, 273.211 255.811, 273.136 258.636 M 78.500 271.351 C 73.703 273.587, 69.642 277, 71.778 277 C 72.341 277, 75.209 275.879, 78.151 274.510 C 84.370 271.614, 87.896 271.405, 94.205 273.554 C 102.456 276.366, 106.725 281.120, 113.152 294.656 C 116.334 301.359, 119.459 307.165, 120.095 307.558 C 120.893 308.052, 121.059 310.476, 120.630 315.387 C 119.964 323.014, 120.946 326.454, 123.159 324.241 C 124.356 323.044, 124.800 309.696, 123.883 302.500 C 123.530 299.732, 123.761 299.475, 126.881 299.177 C 130.122 298.867, 130.235 298.970, 129.628 301.677 C 127.660 310.446, 126.953 317.020, 127.528 321.200 C 128.256 326.498, 128.561 326.285, 118.554 327.443 C 113.998 327.970, 112.054 329.140, 112.015 331.379 C 112.001 332.187, 117.856 331.753, 125.696 330.364 C 127.503 330.044, 129.066 329.081, 129.291 328.149 C 129.626 326.766, 129.805 326.822, 130.400 328.500 C 131.790 332.417, 133.517 335.345, 134.661 335.724 C 137.669 336.718, 143.927 325.652, 146.480 314.824 C 148.496 306.270, 148.425 298.578, 146.299 295.334 C 144.623 292.776, 144.632 292.748, 146.885 293.463 C 148.956 294.121, 149.067 293.993, 148.063 292.118 C 145.635 287.581, 141.376 287.237, 135.846 291.131 C 132.323 293.611, 132.014 293.570, 122.777 289.399 C 117.423 286.982, 114.471 286.129, 113.795 286.805 C 113.119 287.481, 114.259 288.463, 117.265 289.793 C 124.109 292.821, 125.208 295.888, 118.860 294.244 C 117.012 293.766, 115.032 292.438, 114.461 291.294 C 113.889 290.150, 112.838 288.510, 112.125 287.650 C 110.429 285.608, 111.501 284, 114.559 284 C 117.718 284, 117.641 282.964, 114.250 279.846 C 107.795 273.912, 95.921 268.993, 88.093 269.010 C 85.398 269.016, 81.434 269.983, 78.500 271.351 M 363.455 269.927 C 363.770 270.437, 365.709 271.399, 367.764 272.065 C 374.080 274.113, 385.272 280.045, 389.879 283.788 C 401.143 292.939, 411.441 312.516, 415.061 331.665 C 416.863 341.194, 415.774 371.624, 413.305 380.777 C 412.191 384.902, 411.788 387.904, 412.374 387.709 C 416.815 386.228, 419.797 344.851, 416.660 328.221 C 414.839 318.566, 409.393 304.672, 404.600 297.452 C 400.081 290.647, 390.650 280.543, 385.525 277.017 C 383.255 275.456, 378.531 273.013, 375.027 271.589 C 368.749 269.038, 362.336 268.117, 363.455 269.927 M 43.329 271.458 C 39.622 273.070, 37.605 276.288, 38.375 279.359 C 39.349 283.238, 46.704 292.066, 66.286 312.862 C 85.763 333.548, 97.926 345.407, 98.784 344.549 C 99.043 344.290, 97.246 340.798, 94.791 336.789 C 92.335 332.780, 88.036 324.748, 85.238 318.939 C 82.439 313.130, 74.903 300.451, 68.491 290.763 C 54.650 269.849, 51.891 267.733, 43.329 271.458 M 308.502 273.575 C 303.754 276.051, 302 278.096, 302 281.155 C 302 284.602, 302.246 284.624, 307.412 281.635 C 309.660 280.334, 313.300 278.705, 315.500 278.014 C 320.762 276.362, 321.457 275.600, 319.493 273.636 C 317.429 271.572, 312.398 271.544, 308.502 273.575 M 151.824 283.302 L 146.148 285.500 148.480 288.196 C 151.080 291.203, 152.999 298.675, 153.001 305.799 L 153.002 310.500 160.507 310.411 C 164.634 310.362, 168.278 310.055, 168.603 309.730 C 169.779 308.554, 166.890 298.606, 162.843 289.896 C 160.570 285.003, 158.438 281.023, 158.105 281.052 C 157.772 281.080, 154.946 282.092, 151.824 283.302 M 309.666 285.255 C 308.059 286.430, 308.138 287.250, 310.884 298.005 C 312.499 304.327, 314.106 311.188, 314.455 313.250 C 315.149 317.347, 315.695 317.675, 318.455 315.656 C 319.705 314.743, 320.120 313.543, 319.751 311.906 C 318.712 307.288, 314 284.722, 314 284.362 C 314 283.527, 311.255 284.093, 309.666 285.255 M 87.152 288.161 C 82.244 290.692, 81.248 291.594, 82.152 292.684 C 83.098 293.823, 83.708 293.769, 85.891 292.352 C 87.326 291.420, 89.957 289.723, 91.738 288.579 C 94.865 286.571, 95.919 285, 94.140 285 C 93.668 285, 90.523 286.422, 87.152 288.161 M 295.750 285.689 C 293.732 286.217, 293.345 290, 295.309 290 C 297.456 290, 300.360 287.392, 299.594 286.152 C 298.855 284.956, 298.650 284.931, 295.750 285.689 M 419.342 286.551 C 419.022 287.386, 419.327 290.095, 420.020 292.571 C 421.966 299.521, 424.959 296.925, 423.565 289.497 C 422.892 285.908, 420.286 284.091, 419.342 286.551 M 425.816 286.517 C 425.244 287.090, 429.746 315.080, 430.539 315.872 C 431.748 317.081, 432.970 313.272, 432.985 308.250 C 432.993 305.363, 433.410 303, 433.912 303 C 435.351 303, 436.220 310.347, 435.594 317.220 C 435.280 320.674, 435.580 328.175, 436.261 333.890 L 437.500 344.280 440.912 335.926 C 443.628 329.275, 444.480 327.972, 445.091 329.536 C 446.468 333.055, 446.124 325.826, 444.516 317.421 C 442.998 309.487, 438.793 299.254, 434.471 292.979 C 432.124 289.572, 426.764 285.570, 425.816 286.517 M 96 293.138 C 89.194 298.249, 89.570 297.904, 90.157 298.491 C 90.427 298.760, 94.102 297.820, 98.324 296.400 C 105.054 294.137, 106 293.522, 106 291.410 C 106 287.718, 102.387 288.342, 96 293.138 M 289.938 296.117 C 289.042 297.789, 289.124 298.552, 290.325 299.753 C 292.196 301.625, 295 300.712, 295 298.231 C 295 296.371, 293.227 294, 291.835 294 C 291.415 294, 290.561 294.952, 289.938 296.117 M 387.859 302.534 C 387.485 310.516, 387.250 311.189, 379.209 327.250 C 379.002 327.663, 379.792 328, 380.963 328 C 382.647 328, 383.937 326.239, 387.134 319.577 C 392.182 309.056, 393.312 300.835, 390.231 297.034 L 388.231 294.568 387.859 302.534 M 103.500 301.800 C 94.692 305.828, 92.324 307.275, 93.757 307.752 C 95.077 308.192, 109.659 301.361, 110.580 299.870 C 111.453 298.458, 109.857 298.893, 103.500 301.800 M 133.155 302.250 C 130.774 306.102, 128.499 318.869, 129.490 322.817 C 130.308 326.073, 131.604 326.969, 135.500 326.969 C 141.291 326.969, 143.124 323.700, 143.341 312.981 C 143.474 306.458, 143.154 304.705, 141.400 302.336 C 138.352 298.221, 135.662 298.193, 133.155 302.250 M 296.163 300.878 C 294.068 302.206, 295.142 306.449, 297.664 306.808 C 300.278 307.181, 301.789 303.656, 299.960 301.452 C 298.577 299.786, 298.019 299.701, 296.163 300.878 M 135.099 305.077 C 132.444 309.443, 133.374 312, 137.617 312 C 141.090 312, 141.527 311.292, 141.018 306.500 C 140.778 304.245, 139.204 302, 137.863 302 C 137.372 302, 136.128 303.385, 135.099 305.077 M 134.500 308 C 134.160 308.550, 134.359 309, 134.941 309 C 135.523 309, 136 308.550, 136 308 C 136 307.450, 135.802 307, 135.559 307 C 135.316 307, 134.840 307.450, 134.500 308 M 355 307.566 C 355 308.643, 357.304 312.503, 358.353 313.185 C 359.072 313.652, 358.975 314.678, 358.051 316.405 C 356.151 319.955, 357.740 325.381, 360.808 325.823 C 362.041 326, 363.713 327.159, 364.525 328.398 C 366.864 331.968, 371 346.918, 371 351.804 L 371 356.256 367.105 355.633 C 363.006 354.977, 362 355.854, 362 360.082 C 362 361.662, 362.725 362, 366.120 362 L 370.240 362 369.817 367.750 C 369.338 374.252, 365.254 384.071, 361.315 388.189 C 358.890 390.724, 358.607 390.789, 356.371 389.324 C 354.214 387.910, 354 387.915, 354 389.385 C 354 391.590, 352.740 391.414, 351.232 389 C 350.545 387.900, 349.256 387, 348.367 387 C 345.896 387, 347.414 392.987, 350.594 395.783 C 352.753 397.683, 352.977 398.323, 351.927 399.588 C 351.233 400.425, 349.797 401.573, 348.737 402.141 C 347.194 402.967, 346.510 402.745, 345.308 401.029 C 343.204 398.026, 338.784 398.613, 338 402 C 337.334 404.877, 333.219 405.794, 328.694 404.074 C 325.184 402.739, 325.287 400.778, 329.029 397.629 C 332.282 394.892, 332.346 392.730, 329.352 386.784 C 327.511 383.129, 325.692 384.015, 321.462 390.626 C 319.572 393.582, 317.390 396, 316.614 396 C 314.839 396, 309.710 386.252, 307.519 378.714 C 305.981 373.423, 304.027 371.529, 302.558 373.906 C 302.250 374.404, 301.098 374.577, 299.999 374.289 C 295.770 373.184, 298.087 386.344, 304.268 398.542 C 307.342 404.609, 315.417 412.383, 320.940 414.593 C 323.909 415.781, 325.003 416.792, 325.010 418.359 C 325.027 422.234, 329.671 430.583, 333.621 433.841 C 339.360 438.575, 347.213 441.244, 355.539 441.293 C 365.466 441.350, 373.600 437.242, 384.045 426.895 C 392.358 418.660, 399 409.684, 399 406.685 C 399 405.178, 398.231 405.502, 394.761 408.472 C 392.430 410.468, 387.420 413.653, 383.627 415.550 C 377.554 418.589, 375.823 418.997, 369.116 418.978 C 361.805 418.957, 354.225 416.791, 352.673 414.280 C 352.358 413.770, 354.319 411.696, 357.031 409.671 C 366.163 402.853, 374.157 390.599, 377.637 378.082 C 378.567 374.737, 379.592 372.005, 379.914 372.010 C 380.236 372.016, 382.525 374.806, 385 378.212 C 393.820 390.346, 403 398.939, 403 395.060 C 403 393.789, 394.061 382.056, 386.725 373.697 L 380.754 366.893 381.426 360.954 C 382.369 352.618, 380.392 339.900, 376.700 330.552 C 374.306 324.489, 372.148 321.093, 367.605 316.237 C 361.455 309.663, 355 305.222, 355 307.566 M 138.141 316.014 C 137.393 317.720, 137.019 319.353, 137.310 319.643 C 138.105 320.439, 140.172 316.114, 139.813 314.405 C 139.624 313.505, 138.961 314.144, 138.141 316.014 M 292.074 316.279 C 291.613 317.501, 291.401 318.785, 291.604 319.133 C 291.807 319.481, 296.592 322.462, 302.237 325.756 C 312.947 332.007, 315.139 334.440, 317.932 343.177 C 319.083 346.778, 319.015 346.950, 314.634 351.521 C 310.343 356, 309.922 356.194, 304.212 356.325 C 300.628 356.408, 297.643 355.948, 296.705 355.170 C 295.310 354.012, 295.399 353.341, 297.564 348.689 C 300.249 342.923, 300.643 340, 298.735 340 C 298.039 340, 296.678 342.229, 295.710 344.953 C 293.465 351.273, 291.689 353, 287.429 353 C 282.597 353, 282.987 355.438, 288.250 358.145 C 293.007 360.592, 297.456 360.853, 311.916 359.535 L 321.333 358.677 318.562 356.468 C 316.184 354.572, 315.952 353.958, 316.925 352.141 C 318.499 349.199, 322.443 348.405, 325.507 350.413 C 329.485 353.019, 328.193 359.238, 323.487 360.145 C 321.358 360.555, 320.533 362.774, 321.788 364.713 C 322.384 365.635, 323.947 365.421, 328.286 363.822 C 335.041 361.334, 335.184 360.716, 331.869 348.410 C 330.697 344.059, 328.736 335.841, 327.511 330.146 C 326.285 324.452, 324.723 319.447, 324.040 319.025 C 323.356 318.602, 321.155 318.661, 319.148 319.156 C 310.677 321.246, 309.376 321.232, 305.012 319.006 C 302.637 317.795, 298.944 316.186, 296.804 315.431 C 293.095 314.122, 292.875 314.161, 292.074 316.279 M 362 317.941 C 362 319.073, 362.450 320, 363 320 C 363.550 320, 364 319.352, 364 318.559 C 364 317.766, 363.550 316.840, 363 316.500 C 362.450 316.160, 362 316.809, 362 317.941 M 284.106 323.473 C 272.257 343.023, 270.663 378.729, 280.371 407.158 C 285.360 421.768, 291.061 431.052, 301.500 441.562 C 314.977 455.131, 327.650 461, 343.471 461 C 353.465 461, 361.288 459.090, 370.808 454.325 C 381.317 449.065, 397.286 433.891, 395.446 430.913 C 395.020 430.224, 393.223 431.297, 390.633 433.788 C 371.926 451.779, 350.782 458.443, 329.596 453.025 C 318.099 450.084, 310.653 445.724, 301.443 436.537 C 288.763 423.888, 280.941 408.455, 277.825 389.937 C 275.998 379.085, 276.330 354.280, 278.431 344.592 C 280.138 336.724, 285.218 322.656, 287.230 320.226 C 287.810 319.525, 288.083 318.750, 287.837 318.504 C 287.591 318.257, 285.911 320.493, 284.106 323.473 M 200.406 322.384 C 200.068 323.265, 201.027 327.371, 202.536 331.509 C 205.163 338.713, 205.205 339.116, 203.524 340.974 C 202.558 342.041, 198.782 343.896, 195.134 345.096 C 185.001 348.429, 168.967 355.683, 166.398 358.096 C 165.136 359.281, 163.821 361.539, 163.475 363.114 C 163.129 364.689, 162.461 366.215, 161.991 366.505 C 161.521 366.796, 157.618 365.633, 153.318 363.921 C 144.165 360.277, 140.519 360.373, 131.686 364.493 C 128.488 365.985, 126.013 367.328, 126.186 367.478 C 128.159 369.192, 195.426 391, 198.742 391 C 199.117 391, 197.409 388.863, 194.945 386.250 C 181.917 372.435, 182.240 371.403, 196.120 382.498 C 207.577 391.657, 209.701 392.702, 220.761 394.619 C 225.567 395.453, 234.152 397.229, 239.839 398.567 C 245.525 399.905, 250.372 401, 250.609 401 C 250.846 401, 250.126 399.207, 249.007 397.015 C 246.657 392.407, 244.539 390.885, 237.177 388.509 C 231.502 386.677, 202.346 372.191, 195.250 367.678 C 183.689 360.325, 196.906 363.396, 222.559 374.024 C 233.147 378.411, 242.253 382, 242.796 382 C 243.338 382, 241.968 377.387, 239.750 371.750 C 237.532 366.113, 233.641 355.650, 231.103 348.500 L 226.489 335.500 220.995 332.645 C 215.389 329.732, 208.670 325.809, 203.760 322.584 C 201.289 320.960, 200.960 320.940, 200.406 322.384 M 367.154 325.552 C 367.345 326.532, 368.105 327.536, 368.846 327.782 C 369.706 328.069, 370.066 327.588, 369.846 326.448 C 369.655 325.468, 368.895 324.464, 368.154 324.218 C 367.294 323.931, 366.934 324.412, 367.154 325.552 M 292.250 329.662 C 291.563 329.940, 291 331.254, 291 332.583 C 291 335.239, 293.681 335.919, 295.800 333.800 C 297.622 331.978, 297.274 328.988, 295.250 329.079 C 294.288 329.122, 292.938 329.385, 292.250 329.662 M 346 334 C 346 336.533, 346.389 337, 348.500 337 C 350.611 337, 351 336.533, 351 334 C 351 331.467, 350.611 331, 348.500 331 C 346.389 331, 346 331.467, 346 334 M 370 332.500 C 370 333.325, 370.450 334, 371 334 C 371.550 334, 372 333.325, 372 332.500 C 372 331.675, 371.550 331, 371 331 C 370.450 331, 370 331.675, 370 332.500 M 127.420 336.834 C 128.176 341.306, 131.613 345.934, 135.344 347.503 C 138.432 348.801, 139.687 348.687, 143.750 346.740 C 147.243 345.066, 146.438 344.470, 141.178 344.835 C 137.176 345.112, 135.837 344.734, 133.315 342.612 C 131.644 341.205, 129.507 338.580, 128.566 336.777 L 126.857 333.500 127.420 336.834 M 445.079 337.583 C 445.127 338.748, 445.364 338.985, 445.683 338.188 C 445.972 337.466, 445.936 336.603, 445.604 336.271 C 445.272 335.939, 445.036 336.529, 445.079 337.583 M 399.655 340.004 C 397.050 341.656, 392.687 344.138, 389.959 345.521 C 384.879 348.095, 383.931 349.376, 386.404 350.325 C 388.129 350.987, 390.341 350.507, 400.287 347.312 C 406.931 345.178, 407.996 344.531, 407.537 342.905 C 405.514 335.730, 406.071 335.935, 399.655 340.004 M 373 340.500 C 373 341.325, 373.450 342, 374 342 C 374.550 342, 375 341.325, 375 340.500 C 375 339.675, 374.550 339, 374 339 C 373.450 339, 373 339.675, 373 340.500 M 71.177 341.643 C 71.563 343.607, 74.611 345.722, 75.613 344.721 C 76.404 343.929, 73.207 340, 71.772 340 C 71.267 340, 70.999 340.739, 71.177 341.643 M 207.058 341.500 C 207.050 342.600, 207.981 345.525, 209.126 348 C 213.895 358.305, 213.232 361, 205.929 361 C 201.356 361, 200.817 362.295, 204.750 363.832 C 211.283 366.384, 226.826 372, 227.357 372 C 227.676 372, 227.650 371.212, 227.300 370.250 C 226.377 367.718, 212.532 346.039, 209.577 342.500 C 207.400 339.893, 207.070 339.762, 207.058 341.500 M 287.380 344.452 C 286.401 347.004, 288.135 348.536, 289.653 346.460 C 290.394 345.447, 291 344.254, 291 343.809 C 291 342.398, 287.961 342.938, 287.380 344.452 M 375.369 347.480 C 374.525 349.680, 375.453 350.364, 376.906 348.613 C 377.724 347.628, 377.766 346.974, 377.041 346.526 C 376.461 346.167, 375.708 346.596, 375.369 347.480 M 103.319 350.522 C 100.930 352.286, 101.559 352.818, 112.821 358.546 C 121.395 362.907, 122.271 363.158, 123.754 361.675 C 125.237 360.191, 125.219 359.899, 123.524 358.027 C 121.509 355.800, 113.309 351.523, 108.304 350.087 C 106.020 349.432, 104.631 349.553, 103.319 350.522 M 66.535 353.250 C 68.552 360.029, 75.464 365.675, 80.271 364.468 C 81.563 364.144, 83.942 362.752, 85.560 361.376 L 88.500 358.872 85.750 359.436 C 84.237 359.746, 81.871 360.278, 80.492 360.618 C 76.751 361.540, 72.466 359.302, 69.558 354.909 C 66.650 350.514, 65.539 349.905, 66.535 353.250 M 321.386 352.437 C 320.598 354.490, 321.708 357.299, 322.993 356.504 C 323.547 356.162, 324 355.035, 324 354 C 324 351.536, 322.155 350.433, 321.386 352.437 M 56.608 359.500 C 58.135 376.659, 66.203 393.788, 76.154 400.996 C 81.905 405.163, 88.443 405.161, 95.715 400.990 C 98.583 399.345, 101.411 397.100, 102 396 C 103.428 393.333, 102.157 393.441, 96.454 396.473 C 86.557 401.736, 79.213 400.449, 71.913 392.174 C 65.303 384.682, 61.485 376.017, 57.516 359.500 L 56.074 353.500 56.608 359.500 M 73 355.441 C 73 356.234, 73.450 357.160, 74 357.500 C 74.550 357.840, 75 357.390, 75 356.500 C 75 355.532, 75.464 355.168, 76.155 355.595 C 76.870 356.038, 77.038 355.870, 76.595 355.155 C 75.583 353.516, 73 353.721, 73 355.441 M 376 356 C 376 357.100, 376.402 358, 376.893 358 C 378.017 358, 379.066 355.399, 378.264 354.598 C 377.061 353.394, 376 354.051, 376 356 M 147.362 355.777 C 148.013 356.830, 154.913 360.246, 158.875 361.477 C 162.817 362.701, 160.320 360.066, 155.640 358.062 C 149.415 355.397, 146.657 354.635, 147.362 355.777 M 79.460 357.595 C 81.581 359.145, 84.433 359.509, 83.574 358.119 C 83.274 357.635, 81.794 357.003, 80.284 356.714 C 77.717 356.223, 77.664 356.281, 79.460 357.595 M 342 360 C 342 361.333, 342.667 362, 344 362 C 345.333 362, 346 361.333, 346 360 C 346 358.667, 345.333 358, 344 358 C 342.667 358, 342 358.667, 342 360 M 395.250 359.989 C 391.673 362.170, 391.300 363.745, 393.398 367.802 C 394.881 370.670, 398.745 374.599, 399.406 373.911 C 399.622 373.685, 400.123 370.012, 400.517 365.750 C 401.324 357.034, 400.885 356.553, 395.250 359.989 M 374 362.559 C 374 363.416, 374.457 363.835, 375.016 363.490 C 375.575 363.144, 375.774 362.443, 375.457 361.931 C 374.600 360.544, 374 360.802, 374 362.559 M 408 363.500 C 408 364.325, 408.450 365, 409 365 C 409.550 365, 410 364.325, 410 363.500 C 410 362.675, 409.550 362, 409 362 C 408.450 362, 408 362.675, 408 363.500 M 90.523 366.974 C 87.128 370.726, 91.297 383.447, 96.733 385.924 C 98.952 386.935, 99.557 386.689, 102.491 383.579 C 106.056 379.798, 108.203 374.947, 107.101 373.163 C 105.740 370.961, 96.471 365, 94.408 365 C 93.254 365, 91.506 365.889, 90.523 366.974 M 373 370.500 C 373 371.325, 373.675 372, 374.500 372 C 375.325 372, 376 371.325, 376 370.500 C 376 369.675, 375.325 369, 374.500 369 C 373.675 369, 373 369.675, 373 370.500 M 313.250 370.662 C 310.456 371.790, 312.953 387, 315.932 387 C 317.133 387, 322 377.802, 322 375.533 C 322 371.976, 316.955 369.167, 313.250 370.662 M 370.980 378.524 C 368.919 381.007, 370.863 381.581, 373.250 379.194 C 375.014 377.431, 375.130 377, 373.845 377 C 372.965 377, 371.676 377.686, 370.980 378.524 M 301.446 381.087 C 301.077 381.685, 301.275 382.675, 301.887 383.287 C 302.704 384.104, 303 383.815, 303 382.200 C 303 379.785, 302.481 379.413, 301.446 381.087 M 77 384.826 C 77 387.352, 84.571 392, 88.684 391.999 C 91.158 391.999, 90.711 391.513, 85 388 C 78.356 383.912, 77 383.374, 77 384.826 M 367.131 386.342 C 366.519 387.080, 366.310 387.976, 366.667 388.333 C 367.417 389.084, 370 387.181, 370 385.878 C 370 384.561, 368.393 384.821, 367.131 386.342 M 303 389 C 303 389.550, 303.450 390, 304 390 C 304.550 390, 305 389.550, 305 389 C 305 388.450, 304.550 388, 304 388 C 303.450 388, 303 388.450, 303 389 M 151.329 396.288 C 146.675 405.261, 135.016 417.219, 126.500 421.752 L 120.500 424.947 135.509 424.973 C 148.567 424.997, 153.376 425.516, 172.509 428.969 C 236.423 440.506, 270.173 449.541, 290.654 460.598 C 302.752 467.129, 303.536 466.314, 294.357 456.750 C 290.001 452.212, 285.049 446.475, 283.351 444 C 279.647 438.602, 273.984 427.395, 271.475 420.500 C 269.044 413.820, 268.594 413.346, 264.523 413.193 C 262.597 413.121, 249.879 410.596, 236.261 407.583 C 222.642 404.569, 201.150 400.230, 188.500 397.939 C 175.850 395.649, 164.266 393.141, 162.757 392.365 C 155.184 388.474, 155.424 388.392, 151.329 396.288 M 305.553 392.915 C 305.231 393.436, 305.394 394.125, 305.915 394.447 C 306.436 394.769, 307.125 394.606, 307.447 394.085 C 307.769 393.564, 307.606 392.875, 307.085 392.553 C 306.564 392.231, 305.875 392.394, 305.553 392.915 M 354.729 393.604 C 354.328 394.005, 354 395.023, 354 395.867 C 354 396.992, 354.296 397.104, 355.113 396.288 C 355.724 395.676, 356.053 394.658, 355.842 394.025 C 355.631 393.392, 355.130 393.203, 354.729 393.604 M 362.173 394.659 C 362.368 395.672, 363.196 396.500, 364.014 396.500 C 366.157 396.500, 365.848 393.594, 363.659 393.173 C 362.323 392.916, 361.916 393.323, 362.173 394.659 M 379.437 401.078 C 368.151 408.754, 367.716 409.186, 372.031 408.430 C 376.640 407.623, 387.190 402.553, 389.444 400.062 C 391.156 398.170, 391.015 395, 389.219 395 C 388.755 395, 384.353 397.735, 379.437 401.078 M 357.500 401 C 357.160 401.550, 357.584 402, 358.441 402 C 359.298 402, 360 401.550, 360 401 C 360 400.450, 359.577 400, 359.059 400 C 358.541 400, 357.840 400.450, 357.500 401 M 311 402 C 311 402.550, 311.450 403, 312 403 C 312.550 403, 313 402.550, 313 402 C 313 401.450, 312.550 401, 312 401 C 311.450 401, 311 401.450, 311 402 M 340.500 404 C 340.160 404.550, 340.809 405, 341.941 405 C 343.073 405, 344 404.550, 344 404 C 344 403.450, 343.352 403, 342.559 403 C 341.766 403, 340.840 403.450, 340.500 404 M 351 406.559 C 351 407.416, 351.450 407.840, 352 407.500 C 352.550 407.160, 353 406.459, 353 405.941 C 353 405.423, 352.550 405, 352 405 C 351.450 405, 351 405.702, 351 406.559 M 321 407.559 C 321 408.416, 321.457 408.835, 322.016 408.490 C 322.575 408.144, 322.774 407.443, 322.457 406.931 C 321.600 405.544, 321 405.802, 321 407.559 M 324 408 C 324 408.550, 324.450 409, 325 409 C 325.550 409, 326 408.550, 326 408 C 326 407.450, 325.550 407, 325 407 C 324.450 407, 324 407.450, 324 408 M 342 409.059 C 342 409.641, 342.450 409.840, 343 409.500 C 343.550 409.160, 344 408.684, 344 408.441 C 344 408.198, 343.550 408, 343 408 C 342.450 408, 342 408.477, 342 409.059 M 334.813 409.683 C 335.534 409.972, 336.397 409.936, 336.729 409.604 C 337.061 409.272, 336.471 409.036, 335.417 409.079 C 334.252 409.127, 334.015 409.364, 334.813 409.683 M 320.401 439.890 C 322.874 442.623, 333.373 448.007, 336.140 447.961 C 338.314 447.925, 338.264 447.818, 335.500 446.599 C 333.850 445.871, 329.800 443.640, 326.500 441.641 C 319.852 437.612, 317.809 437.026, 320.401 439.890" stroke="none" fill="black" fill-rule="evenodd"/>
</svg>